<?xml version="1.0" encoding="iso-8859-1"?>
<!-- Generator: Adobe Illustrator 19.0.0, SVG Export Plug-In . SVG Version: 6.00 Build 0)  -->
<svg version="1.1" id="Layer_1" xmlns="http://www.w3.org/2000/svg" xmlns:xlink="http://www.w3.org/1999/xlink" x="0px" y="0px"
	 viewBox="0 0 511.989 511.989" style="enable-background:new 0 0 511.989 511.989;" xml:space="preserve">
<rect x="383.994" y="138.664" style="fill:#E9573F;" width="63.997" height="31.999"/>
<path style="fill:#FC6E51;" d="M447.99,149.338h-63.997c-5.906,0-10.656-4.781-10.656-10.672c0-5.89,4.75-10.671,10.656-10.671
	h63.997c5.875,0,10.656,4.781,10.656,10.671C458.646,144.557,453.865,149.338,447.99,149.338z"/>
<g>
	<path style="fill:#E6E9ED;" d="M423.523,99.121c4.186,4.171,4.186,10.921,0,15.093c-4.156,4.156-10.906,4.156-15.062,0
		c-4.188-4.172-4.188-10.922,0-15.093C412.617,94.965,419.367,94.965,423.523,99.121z"/>
	<path style="fill:#E6E9ED;" d="M466.209,56.467c4.156,4.155,4.156,10.905,0,15.077c-4.188,4.172-10.938,4.172-15.094,0
		c-4.156-4.171-4.156-10.921,0-15.077C455.271,52.295,462.021,52.295,466.209,56.467z"/>
	<path style="fill:#E6E9ED;" d="M380.868,77.794c4.156,4.156,4.156,10.922,0,15.078c-4.156,4.171-10.906,4.171-15.094,0
		c-4.155-4.156-4.155-10.922,0-15.078C369.962,73.622,376.712,73.622,380.868,77.794z"/>
	<path style="fill:#E6E9ED;" d="M423.523,35.124c4.186,4.171,4.186,10.921,0,15.093c-4.156,4.156-10.906,4.156-15.062,0
		c-4.188-4.172-4.188-10.922,0-15.093C412.617,30.968,419.367,30.968,423.523,35.124z"/>
	<path style="fill:#E6E9ED;" d="M327.745,130.901c-36.248-36.264-84.458-56.232-135.753-56.232
		c-51.279,0-99.496,19.968-135.744,56.232C19.983,167.165,0,215.382,0,266.661s19.983,99.496,56.248,135.761
		c36.248,36.264,84.465,56.232,135.744,56.232c51.295,0,99.505-19.969,135.753-56.232c36.279-36.265,56.248-84.481,56.248-135.761
		C383.993,215.383,364.024,167.165,327.745,130.901z"/>
</g>
<path style="fill:#CCD1D9;" d="M191.992,159.994c-58.811,0-106.652,47.857-106.652,106.667s47.842,106.668,106.652,106.668
	c58.826,0,106.66-47.858,106.66-106.668S250.818,159.994,191.992,159.994z"/>
<path style="fill:#AAB2BC;" d="M106.668,266.661c0-55.216,42.17-100.761,95.996-106.136c-3.516-0.344-7.062-0.531-10.672-0.531
	c-58.811,0-106.652,47.857-106.652,106.667s47.842,106.668,106.652,106.668c3.609,0,7.156-0.188,10.672-0.547
	C148.838,367.423,106.668,321.878,106.668,266.661z"/>
<path style="fill:#FC6E51;" d="M491.114,259.333c6.687-10.874,10.218-23.092,10.218-35.56c0-38.733-33.498-63.779-85.34-63.779
	c-51.843,0-85.341,25.046-85.341,63.779c0,12.467,3.531,24.686,10.219,35.56l-20.938,177.978l0.125,1.25
	c0.125,1.031,1.344,10.375,6.688,19.953c7.75,13.843,20.499,21.468,35.904,21.468h106.685c17.03,0,30.342-7.766,37.436-21.874
	c5-9.938,5.219-19.656,5.219-20.719v-0.656L491.114,259.333z"/>
<polygon style="fill:#FFCE54;" points="494.488,287.989 337.495,287.989 324.932,394.656 507.051,394.656 "/>
<path style="fill:#434A54;" d="M448.178,351.986h-63.997c-5.906,0-10.656-4.766-10.656-10.656s4.75-10.672,10.656-10.672h63.997
	c5.875,0,10.656,4.781,10.656,10.672S454.053,351.986,448.178,351.986z"/>
<path style="opacity:0.2;fill:#FFFFFF;enable-background:new    ;" d="M491.114,259.333c6.687-10.874,10.218-23.092,10.218-35.56
	c0-38.733-33.498-63.779-85.34-63.779c-1.812,0-3.594,0.031-5.343,0.094c48.778,1.672,79.996,26.296,79.996,63.686
	c0,12.467-3.5,24.686-10.188,35.56l20.874,177.399v0.656c-0.031,1.062-0.219,10.781-5.219,20.719
	c-7.093,14.108-20.404,21.874-37.467,21.874h10.688c17.03,0,30.342-7.766,37.436-21.874c5-9.938,5.219-19.656,5.219-20.719v-0.656
	L491.114,259.333z"/>
<g>
</g>
<g>
</g>
<g>
</g>
<g>
</g>
<g>
</g>
<g>
</g>
<g>
</g>
<g>
</g>
<g>
</g>
<g>
</g>
<g>
</g>
<g>
</g>
<g>
</g>
<g>
</g>
<g>
</g>
</svg>
