<?xml version="1.0" encoding="iso-8859-1"?>
<!-- Generator: Adobe Illustrator 19.0.0, SVG Export Plug-In . SVG Version: 6.00 Build 0)  -->
<svg version="1.1" id="Layer_1" xmlns="http://www.w3.org/2000/svg" xmlns:xlink="http://www.w3.org/1999/xlink" x="0px" y="0px"
	 viewBox="0 0 511.98 511.98" style="enable-background:new 0 0 511.98 511.98;" xml:space="preserve">
<rect x="40.498" y="47.06" style="fill:#FFFFFF;" width="430.97" height="31.999"/>
<polygon style="fill:#4FC2E9;" points="426.64,437.322 85.324,437.322 31.999,10.659 479.981,10.659 "/>
<polygon style="fill:#3BAFDA;" points="469.31,95.992 471.982,74.657 39.998,74.657 42.655,95.992 "/>
<path style="fill:#656D78;" d="M501.308,330.638h-255.99c-5.891,0-10.672,4.781-10.672,10.688v32
	c0,5.875,4.781,10.656,10.672,10.656h255.99c5.891,0,10.672-4.781,10.672-10.656v-32C511.98,335.42,507.199,330.638,501.308,330.638
	z"/>
<g>
	<path style="fill:#434A54;" d="M458.638,341.326c5.891,0,10.672-4.781,10.672-10.688h-21.328
		C447.982,336.545,452.748,341.326,458.638,341.326z"/>
	<path style="fill:#434A54;" d="M415.984,341.326c5.891,0,10.656-4.781,10.656-10.688h-21.327
		C405.313,336.545,410.094,341.326,415.984,341.326z"/>
	<path style="fill:#434A54;" d="M373.313,341.326c5.891,0,10.672-4.781,10.672-10.688h-21.344
		C362.641,336.545,367.423,341.326,373.313,341.326z"/>
	<path style="fill:#434A54;" d="M330.643,341.326c5.891,0,10.672-4.781,10.672-10.688h-21.328
		C319.987,336.545,324.753,341.326,330.643,341.326z"/>
	<path style="fill:#434A54;" d="M287.989,341.326c5.891,0,10.655-4.781,10.655-10.688h-21.326
		C277.318,336.545,282.098,341.326,287.989,341.326z"/>
</g>
<g>
	<path style="fill:#3BAFDA;" d="M85.324,21.331c5.891,0,10.672-4.781,10.672-10.672H74.653
		C74.653,16.55,79.434,21.331,85.324,21.331z"/>
	<path style="fill:#3BAFDA;" d="M127.995,21.331c5.89,0,10.656-4.781,10.656-10.672h-21.328
		C117.323,16.55,122.104,21.331,127.995,21.331z"/>
	<path style="fill:#3BAFDA;" d="M170.649,21.331c5.891,0,10.671-4.781,10.671-10.672h-21.327
		C159.994,16.55,164.759,21.331,170.649,21.331z"/>
	<path style="fill:#3BAFDA;" d="M213.32,21.331c5.89,0,10.671-4.781,10.671-10.672h-21.343
		C202.648,16.55,207.429,21.331,213.32,21.331z"/>
	<path style="fill:#3BAFDA;" d="M255.99,21.331c5.891,0,10.656-4.781,10.656-10.672h-21.328
		C245.319,16.55,250.099,21.331,255.99,21.331z"/>
	<path style="fill:#3BAFDA;" d="M298.66,21.331c5.891,0,10.656-4.781,10.656-10.672h-21.327
		C287.989,16.55,292.77,21.331,298.66,21.331z"/>
	<path style="fill:#3BAFDA;" d="M341.315,21.331c5.89,0,10.671-4.781,10.671-10.672h-21.327
		C330.659,16.55,335.425,21.331,341.315,21.331z"/>
	<path style="fill:#3BAFDA;" d="M383.985,21.331c5.891,0,10.672-4.781,10.672-10.672h-21.344
		C373.313,16.55,378.094,21.331,383.985,21.331z"/>
	<path style="fill:#3BAFDA;" d="M426.656,21.331c5.889,0,10.67-4.781,10.67-10.672h-21.342
		C415.984,16.55,420.765,21.331,426.656,21.331z"/>
</g>
<path style="fill:#434A54;" d="M474.638,53.33l-2.656,21.327h17.702c-2.156,24.156-8.016,47.624-17.483,70.005
	c-11.812,27.937-28.734,53.037-50.295,74.591c-21.546,21.561-46.655,38.482-74.592,50.303c-28.921,12.227-59.638,18.43-91.324,18.43
	c-31.702,0-62.419-6.203-91.34-18.43c-27.937-11.82-53.044-28.742-74.591-50.303c-21.562-21.554-38.483-46.655-50.311-74.591
	c-9.453-22.382-15.312-45.85-17.468-70.005h17.718L37.326,53.33H0c0,141.377,114.605,255.998,255.99,255.998
	c141.37,0,255.99-114.621,255.99-255.998L474.638,53.33L474.638,53.33z"/>
<path style="fill:#FFCE54;" d="M501.308,362.638h-255.99c-5.891,0-10.672,4.781-10.672,10.688v117.309
	c0,5.904,4.781,10.686,10.672,10.686h255.99c5.891,0,10.672-4.781,10.672-10.686V373.326
	C511.98,367.42,507.199,362.638,501.308,362.638z"/>
<g>
	<path style="fill:#F6BB42;" d="M280.442,440.431c-4.171,4.172-4.171,10.922,0,15.078c4.156,4.188,10.922,4.188,15.078,0
		c4.171-4.156,4.171-10.906,0-15.078C291.364,436.26,284.598,436.26,280.442,440.431z"/>
	<path style="fill:#F6BB42;" d="M323.096,397.761c-4.156,4.172-4.156,10.938,0,15.094c4.172,4.156,10.922,4.156,15.094,0
		s4.172-10.922,0-15.094C334.018,393.605,327.268,393.605,323.096,397.761z"/>
	<path style="fill:#F6BB42;" d="M365.766,440.431c-4.155,4.172-4.155,10.922,0,15.078c4.172,4.188,10.922,4.188,15.094,0
		c4.156-4.156,4.156-10.906,0-15.078C376.688,436.26,369.938,436.26,365.766,440.431z"/>
	<path style="fill:#F6BB42;" d="M408.438,397.761c-4.172,4.172-4.172,10.938,0,15.094c4.155,4.156,10.921,4.156,15.077,0
		c4.17-4.156,4.17-10.922,0-15.094C419.359,393.605,412.594,393.605,408.438,397.761z"/>
	<path style="fill:#F6BB42;" d="M466.185,440.431c-4.172-4.172-10.922-4.172-15.094,0c-4.156,4.172-4.156,10.922,0,15.078
		c4.172,4.188,10.922,4.188,15.094,0C470.357,451.353,470.357,444.603,466.185,440.431z"/>
</g>
<g>
</g>
<g>
</g>
<g>
</g>
<g>
</g>
<g>
</g>
<g>
</g>
<g>
</g>
<g>
</g>
<g>
</g>
<g>
</g>
<g>
</g>
<g>
</g>
<g>
</g>
<g>
</g>
<g>
</g>
</svg>
