<?xml version="1.0" encoding="utf-8"?>
<!-- Generator: Adobe Illustrator 19.0.0, SVG Export Plug-In . SVG Version: 6.00 Build 0)  -->
<svg version="1.1" id="Layer_1" xmlns="http://www.w3.org/2000/svg" xmlns:xlink="http://www.w3.org/1999/xlink" x="0px" y="0px"
	 viewBox="0 0 500 500" style="enable-background:new 0 0 500 500;" xml:space="preserve">
<style type="text/css">
	.st0{fill:url(#XMLID_3_);}
	.st1{fill:url(#XMLID_4_);}
	.st2{fill:url(#XMLID_10_);}
	.st3{fill:url(#XMLID_32_);}
	.st4{fill:url(#XMLID_33_);}
	.st5{fill:url(#XMLID_34_);}
	.st6{fill:url(#XMLID_35_);}
	.st7{fill:url(#XMLID_36_);}
	.st8{fill:url(#XMLID_37_);}
	.st9{fill:url(#XMLID_38_);}
	.st10{fill:url(#XMLID_39_);}
</style>
<g id="XMLID_8_">
	<g id="XMLID_1_">
		<linearGradient id="XMLID_3_" gradientUnits="userSpaceOnUse" x1="304.3931" y1="455.4267" x2="13.7265" y2="99.8711">
			<stop  offset="0" style="stop-color:#F38546"/>
			<stop  offset="0.5" style="stop-color:#E664A5"/>
			<stop  offset="1" style="stop-color:#7A4A9D"/>
		</linearGradient>
		<rect id="XMLID_30_" x="158.6" y="202" class="st0" width="3" height="153.7"/>
	</g>
	<g id="XMLID_15_">
		<linearGradient id="XMLID_4_" gradientUnits="userSpaceOnUse" x1="410.744" y1="368.4849" x2="120.0773" y2="12.9293">
			<stop  offset="0" style="stop-color:#F38546"/>
			<stop  offset="0.5" style="stop-color:#E664A5"/>
			<stop  offset="1" style="stop-color:#7A4A9D"/>
		</linearGradient>
		<rect id="XMLID_29_" x="253.5" y="150.5" class="st1" width="3" height="55"/>
	</g>
	<g id="XMLID_16_">
		
			<linearGradient id="XMLID_10_" gradientUnits="userSpaceOnUse" x1="359.9781" y1="409.9859" x2="69.3115" y2="54.4304" gradientTransform="matrix(0.658 -0.342 -0.342 0.658 179.9076 179.9076)">
			<stop  offset="0" style="stop-color:#F38546"/>
			<stop  offset="0.5" style="stop-color:#E664A5"/>
			<stop  offset="1" style="stop-color:#7A4A9D"/>
		</linearGradient>
		<path id="XMLID_28_" class="st2" d="M212,314.1L212,314.1c-0.6-0.6-0.6-1.5,0-2.1l74.5-74.5c0.6-0.6,1.5-0.6,2.1,0l0,0
			c0.6,0.6,0.6,1.5,0,2.1l-74.5,74.5C213.5,314.7,212.6,314.7,212,314.1z"/>
	</g>
	<g id="XMLID_6_">
		<linearGradient id="XMLID_32_" gradientUnits="userSpaceOnUse" x1="418.2454" y1="362.3524" x2="127.5788" y2="6.7969">
			<stop  offset="0" style="stop-color:#F38546"/>
			<stop  offset="0.5" style="stop-color:#E664A5"/>
			<stop  offset="1" style="stop-color:#7A4A9D"/>
		</linearGradient>
		<rect id="XMLID_27_" x="348.5" y="202" class="st3" width="3" height="153.7"/>
	</g>
	<g id="XMLID_7_">
		<linearGradient id="XMLID_33_" gradientUnits="userSpaceOnUse" x1="324.4043" y1="439.0676" x2="33.7376" y2="83.512">
			<stop  offset="0" style="stop-color:#F38546"/>
			<stop  offset="0.5" style="stop-color:#E664A5"/>
			<stop  offset="1" style="stop-color:#7A4A9D"/>
		</linearGradient>
		<rect id="XMLID_26_" x="158.6" y="352.7" class="st4" width="192.9" height="3"/>
	</g>
	<g id="XMLID_11_">
		<linearGradient id="XMLID_34_" gradientUnits="userSpaceOnUse" x1="397.2776" y1="379.4937" x2="106.6109" y2="23.9381">
			<stop  offset="0" style="stop-color:#F38546"/>
			<stop  offset="0.5" style="stop-color:#E664A5"/>
			<stop  offset="1" style="stop-color:#7A4A9D"/>
		</linearGradient>
		<rect id="XMLID_25_" x="158.6" y="204" class="st5" width="193" height="3"/>
	</g>
	<g id="XMLID_12_">
		<linearGradient id="XMLID_35_" gradientUnits="userSpaceOnUse" x1="423.4872" y1="358.0673" x2="132.8205" y2="2.5117">
			<stop  offset="0" style="stop-color:#F38546"/>
			<stop  offset="0.5" style="stop-color:#E664A5"/>
			<stop  offset="1" style="stop-color:#7A4A9D"/>
		</linearGradient>
		<rect id="XMLID_24_" x="205.4" y="150.5" class="st6" width="99.2" height="3"/>
	</g>
	<g id="XMLID_13_">
		
			<linearGradient id="XMLID_36_" gradientUnits="userSpaceOnUse" x1="368.0496" y1="403.3875" x2="77.383" y2="47.8319" gradientTransform="matrix(0.6092 -0.3221 -0.3221 0.67 128.6075 117.546)">
			<stop  offset="0" style="stop-color:#F38546"/>
			<stop  offset="0.5" style="stop-color:#E664A5"/>
			<stop  offset="1" style="stop-color:#7A4A9D"/>
		</linearGradient>
		<polygon id="XMLID_23_" class="st7" points="205.4,150.5 207.7,152.5 160.8,204.1 158.6,202 		"/>
	</g>
	<g id="XMLID_14_">
		
			<linearGradient id="XMLID_37_" gradientUnits="userSpaceOnUse" x1="454.2147" y1="332.9476" x2="163.548" y2="-22.608" gradientTransform="matrix(0.6087 0.3216 0.3216 0.6694 71.0097 -46.4382)">
			<stop  offset="0" style="stop-color:#F38546"/>
			<stop  offset="0.5" style="stop-color:#E664A5"/>
			<stop  offset="1" style="stop-color:#7A4A9D"/>
		</linearGradient>
		<polygon id="XMLID_9_" class="st8" points="304.7,150.6 302.5,152.6 349.3,204.1 351.5,202 		"/>
	</g>
	<g id="XMLID_5_">
		<linearGradient id="XMLID_38_" gradientUnits="userSpaceOnUse" x1="353.1968" y1="415.5297" x2="62.5301" y2="59.9741">
			<stop  offset="0" style="stop-color:#F38546"/>
			<stop  offset="0.5" style="stop-color:#E664A5"/>
			<stop  offset="1" style="stop-color:#7A4A9D"/>
		</linearGradient>
		<path id="XMLID_21_" class="st9" d="M223.1,275.6c-10.6,0-19.2-8.6-19.2-19.2s8.6-19.2,19.2-19.2s19.2,8.6,19.2,19.2
			S233.7,275.6,223.1,275.6z M223.1,240.2c-8.9,0-16.2,7.3-16.2,16.2c0,8.9,7.3,16.2,16.2,16.2s16.2-7.3,16.2-16.2
			C239.3,247.5,232,240.2,223.1,240.2z"/>
	</g>
	<g id="XMLID_17_">
		<linearGradient id="XMLID_39_" gradientUnits="userSpaceOnUse" x1="362.3204" y1="408.0711" x2="71.6537" y2="52.5156">
			<stop  offset="0" style="stop-color:#F38546"/>
			<stop  offset="0.5" style="stop-color:#E664A5"/>
			<stop  offset="1" style="stop-color:#7A4A9D"/>
		</linearGradient>
		<path id="XMLID_18_" class="st10" d="M272.7,317.6c-10.6,0-19.2-8.6-19.2-19.2s8.6-19.2,19.2-19.2s19.2,8.6,19.2,19.2
			S283.3,317.6,272.7,317.6z M272.7,282.3c-8.9,0-16.2,7.3-16.2,16.2s7.3,16.2,16.2,16.2s16.2-7.3,16.2-16.2
			S281.6,282.3,272.7,282.3z"/>
	</g>
</g>
</svg>
