<?xml version="1.0" encoding="utf-8"?>
<!-- Generator: Adobe Illustrator 19.0.0, SVG Export Plug-In . SVG Version: 6.00 Build 0)  -->
<svg version="1.1" id="Layer_1" xmlns="http://www.w3.org/2000/svg" xmlns:xlink="http://www.w3.org/1999/xlink" x="0px" y="0px"
	 viewBox="0 0 500 500" style="enable-background:new 0 0 500 500;" xml:space="preserve">
<style type="text/css">
	.st0{fill:url(#XMLID_6_);}
	.st1{fill:url(#XMLID_7_);}
	.st2{fill:url(#XMLID_9_);}
	.st3{fill:url(#XMLID_11_);}
	.st4{fill:url(#XMLID_12_);}
	.st5{fill:url(#XMLID_13_);}
	.st6{fill:url(#XMLID_14_);}
	.st7{fill:url(#XMLID_15_);}
	.st8{fill:url(#XMLID_16_);}
	.st9{fill:url(#XMLID_17_);}
	.st10{fill:url(#XMLID_18_);}
	.st11{fill:url(#XMLID_19_);}
	.st12{fill:url(#XMLID_20_);}
	.st13{fill:url(#XMLID_21_);}
	.st14{fill:url(#XMLID_22_);}
	.st15{fill:url(#XMLID_23_);}
	.st16{fill:url(#XMLID_24_);}
	.st17{fill:url(#XMLID_25_);}
	.st18{fill:url(#XMLID_26_);}
	.st19{fill:url(#XMLID_27_);}
	.st20{fill:url(#XMLID_28_);}
	.st21{fill:url(#XMLID_29_);}
	.st22{fill:url(#XMLID_31_);}
	.st23{fill:url(#XMLID_110_);}
	.st24{fill:url(#XMLID_111_);}
	.st25{fill:url(#XMLID_112_);}
	.st26{fill:url(#XMLID_113_);}
	.st27{fill:url(#XMLID_114_);}
	.st28{fill:url(#XMLID_115_);}
	.st29{fill:url(#XMLID_116_);}
	.st30{fill:url(#XMLID_117_);}
	.st31{fill:url(#XMLID_118_);}
</style>
<g id="XMLID_1_">
	<linearGradient id="XMLID_6_" gradientUnits="userSpaceOnUse" x1="472.1851" y1="367.715" x2="169.757" y2="19.7288">
		<stop  offset="0" style="stop-color:#F38546"/>
		<stop  offset="0.5" style="stop-color:#E664A5"/>
		<stop  offset="1" style="stop-color:#7A4A9D"/>
	</linearGradient>
	<path id="XMLID_30_" class="st0" d="M262.1,151L262.1,151c-0.8,0-1.5-0.7-1.5-1.5v-47c0-0.8,0.7-1.5,1.5-1.5l0,0
		c0.8,0,1.5,0.7,1.5,1.5v47C263.6,150.4,263,151,262.1,151z"/>
	
		<linearGradient id="XMLID_7_" gradientUnits="userSpaceOnUse" x1="505.8993" y1="338.4147" x2="203.4711" y2="-9.5715" gradientTransform="matrix(0.7071 0.7071 -0.2121 0.2121 94.8352 -70.3171)">
		<stop  offset="0" style="stop-color:#F38546"/>
		<stop  offset="0.5" style="stop-color:#E664A5"/>
		<stop  offset="1" style="stop-color:#7A4A9D"/>
	</linearGradient>
	<path id="XMLID_3_" class="st1" d="M252.6,112.1L252.6,112.1c-0.6-0.6-0.6-1.5,0-2.1l8.5-8.5c0.6-0.6,1.5-0.6,2.1,0l0,0
		c0.6,0.6,0.6,1.5,0,2.1l-8.5,8.5C254.1,112.7,253.2,112.7,252.6,112.1z"/>
	
		<linearGradient id="XMLID_9_" gradientUnits="userSpaceOnUse" x1="537.2949" y1="311.1293" x2="234.8668" y2="-36.8569" gradientTransform="matrix(-0.7071 0.7071 0.2121 0.2121 449.4703 -70.3171)">
		<stop  offset="0" style="stop-color:#F38546"/>
		<stop  offset="0.5" style="stop-color:#E664A5"/>
		<stop  offset="1" style="stop-color:#7A4A9D"/>
	</linearGradient>
	<path id="XMLID_8_" class="st2" d="M271.7,112.1L271.7,112.1c0.6-0.6,0.6-1.5,0-2.1l-8.5-8.5c-0.6-0.6-1.5-0.6-2.1,0h0
		c-0.6,0.6-0.6,1.5,0,2.1l8.5,8.5C270.2,112.7,271.1,112.7,271.7,112.1z"/>
	<linearGradient id="XMLID_11_" gradientUnits="userSpaceOnUse" x1="494.1834" y1="348.5967" x2="191.7553" y2="0.6105">
		<stop  offset="0" style="stop-color:#F38546"/>
		<stop  offset="0.5" style="stop-color:#E664A5"/>
		<stop  offset="1" style="stop-color:#7A4A9D"/>
	</linearGradient>
	<path id="XMLID_55_" class="st3" d="M362.1,221.6L362.1,221.6c-0.8,0-1.5-0.7-1.5-1.5v-47c0-0.8,0.7-1.5,1.5-1.5l0,0
		c0.8,0,1.5,0.7,1.5,1.5v47C363.6,221,363,221.6,362.1,221.6z"/>
	
		<linearGradient id="XMLID_12_" gradientUnits="userSpaceOnUse" x1="608.8982" y1="248.9003" x2="306.4701" y2="-99.0859" gradientTransform="matrix(0.7071 0.7071 -0.2121 0.2121 94.8352 -70.3171)">
		<stop  offset="0" style="stop-color:#F38546"/>
		<stop  offset="0.5" style="stop-color:#E664A5"/>
		<stop  offset="1" style="stop-color:#7A4A9D"/>
	</linearGradient>
	<path id="XMLID_54_" class="st4" d="M352.6,182.7L352.6,182.7c-0.6-0.6-0.6-1.5,0-2.1l8.5-8.5c0.6-0.6,1.5-0.6,2.1,0l0,0
		c0.6,0.6,0.6,1.5,0,2.1l-8.5,8.5C354.1,183.3,353.2,183.3,352.6,182.7z"/>
	
		<linearGradient id="XMLID_13_" gradientUnits="userSpaceOnUse" x1="326.37" y1="494.4401" x2="23.9419" y2="146.4539" gradientTransform="matrix(-0.7071 0.7071 0.2121 0.2121 449.4703 -70.3171)">
		<stop  offset="0" style="stop-color:#F38546"/>
		<stop  offset="0.5" style="stop-color:#E664A5"/>
		<stop  offset="1" style="stop-color:#7A4A9D"/>
	</linearGradient>
	<path id="XMLID_53_" class="st5" d="M371.7,182.7L371.7,182.7c0.6-0.6,0.6-1.5,0-2.1l-8.5-8.5c-0.6-0.6-1.5-0.6-2.1,0l0,0
		c-0.6,0.6-0.6,1.5,0,2.1l8.5,8.5C370.2,183.3,371.1,183.3,371.7,182.7z"/>
	<linearGradient id="XMLID_14_" gradientUnits="userSpaceOnUse" x1="380.2429" y1="447.6202" x2="77.8147" y2="99.634">
		<stop  offset="0" style="stop-color:#F38546"/>
		<stop  offset="0.5" style="stop-color:#E664A5"/>
		<stop  offset="1" style="stop-color:#7A4A9D"/>
	</linearGradient>
	<path id="XMLID_58_" class="st6" d="M162.1,221.6L162.1,221.6c-0.8,0-1.5-0.7-1.5-1.5v-47c0-0.8,0.7-1.5,1.5-1.5l0,0
		c0.8,0,1.5,0.7,1.5,1.5v47C163.6,221,163,221.6,162.1,221.6z"/>
	
		<linearGradient id="XMLID_15_" gradientUnits="userSpaceOnUse" x1="294.9294" y1="521.7646" x2="-7.4988" y2="173.7784" gradientTransform="matrix(0.7071 0.7071 -0.2121 0.2121 94.8352 -70.3171)">
		<stop  offset="0" style="stop-color:#F38546"/>
		<stop  offset="0.5" style="stop-color:#E664A5"/>
		<stop  offset="1" style="stop-color:#7A4A9D"/>
	</linearGradient>
	<path id="XMLID_57_" class="st7" d="M152.6,182.7L152.6,182.7c-0.6-0.6-0.6-1.5,0-2.1l8.5-8.5c0.6-0.6,1.5-0.6,2.1,0h0
		c0.6,0.6,0.6,1.5,0,2.1l-8.5,8.5C154.1,183.3,153.2,183.3,152.6,182.7z"/>
	
		<linearGradient id="XMLID_16_" gradientUnits="userSpaceOnUse" x1="640.3389" y1="221.5758" x2="337.9107" y2="-126.4104" gradientTransform="matrix(-0.7071 0.7071 0.2121 0.2121 449.4703 -70.3171)">
		<stop  offset="0" style="stop-color:#F38546"/>
		<stop  offset="0.5" style="stop-color:#E664A5"/>
		<stop  offset="1" style="stop-color:#7A4A9D"/>
	</linearGradient>
	<path id="XMLID_56_" class="st8" d="M171.7,182.7L171.7,182.7c0.6-0.6,0.6-1.5,0-2.1l-8.5-8.5c-0.6-0.6-1.5-0.6-2.1,0l0,0
		c-0.6,0.6-0.6,1.5,0,2.1l8.5,8.5C170.2,183.3,171.1,183.3,171.7,182.7z"/>
	<g id="XMLID_35_">
		<linearGradient id="XMLID_17_" gradientUnits="userSpaceOnUse" x1="432.1487" y1="402.5099" x2="129.7206" y2="54.5236">
			<stop  offset="0" style="stop-color:#F38546"/>
			<stop  offset="0.5" style="stop-color:#E664A5"/>
			<stop  offset="1" style="stop-color:#7A4A9D"/>
		</linearGradient>
		<path id="XMLID_63_" class="st9" d="M311.5,199.5c-0.3-0.6-0.6-1.1-0.9-1.7c-0.3-0.5-0.6-1-1-1.5c-0.2,0.6-0.4,1.1-0.7,1.7
			c-0.2,0.5-0.5,1-0.8,1.4c0.3,0.5,0.6,1,0.8,1.4c0.3,0.6,0.5,1.1,0.7,1.7c0.4,1.2,0.6,2.4,0.6,3.6c0,13-21.8,23.5-48.5,23.5
			c-26.8,0-48.5-10.5-48.5-23.5c0-1.2,0.2-2.4,0.6-3.6c0.2-0.6,0.4-1.1,0.7-1.7c0.2-0.5,0.5-1,0.8-1.5c-0.3-0.5-0.6-1-0.8-1.5
			c-0.3-0.5-0.5-1.1-0.7-1.7c-0.4,0.5-0.7,1-1,1.5c-0.3,0.5-0.6,1.1-0.9,1.6c-1,2.1-1.6,4.4-1.6,6.7c0,14.9,22.6,26.5,51.5,26.5
			s51.5-11.6,51.5-26.5C313.1,203.9,312.6,201.7,311.5,199.5z"/>
	</g>
	<g id="XMLID_60_">
		<linearGradient id="XMLID_18_" gradientUnits="userSpaceOnUse" x1="425.3482" y1="408.4201" x2="122.92" y2="60.4339">
			<stop  offset="0" style="stop-color:#F38546"/>
			<stop  offset="0.5" style="stop-color:#E664A5"/>
			<stop  offset="1" style="stop-color:#7A4A9D"/>
		</linearGradient>
		<path id="XMLID_61_" class="st10" d="M311.5,213.3c-0.3-0.6-0.6-1.1-0.9-1.7c-0.3-0.5-0.6-1-1-1.5c-0.2,0.6-0.4,1.1-0.7,1.7
			c-0.2,0.5-0.5,1-0.8,1.4c0.3,0.5,0.6,1,0.8,1.4c0.3,0.6,0.5,1.1,0.7,1.7c0.4,1.2,0.6,2.4,0.6,3.6c0,13-21.8,23.5-48.5,23.5
			c-26.8,0-48.5-10.5-48.5-23.5c0-1.2,0.2-2.4,0.6-3.6c0.2-0.6,0.4-1.1,0.7-1.7c0.2-0.5,0.5-1,0.8-1.5c-0.3-0.5-0.6-1-0.8-1.5
			c-0.3-0.5-0.5-1.1-0.7-1.7c-0.4,0.5-0.7,1-1,1.5c-0.3,0.5-0.6,1.1-0.9,1.6c-1,2.1-1.6,4.4-1.6,6.7c0,14.9,22.6,26.5,51.5,26.5
			s51.5-11.6,51.5-26.5C313.1,217.7,312.6,215.4,311.5,213.3z"/>
	</g>
	<g id="XMLID_64_">
		<linearGradient id="XMLID_19_" gradientUnits="userSpaceOnUse" x1="418.5476" y1="414.3303" x2="116.1195" y2="66.3441">
			<stop  offset="0" style="stop-color:#F38546"/>
			<stop  offset="0.5" style="stop-color:#E664A5"/>
			<stop  offset="1" style="stop-color:#7A4A9D"/>
		</linearGradient>
		<path id="XMLID_65_" class="st11" d="M311.5,227c-0.3-0.6-0.6-1.1-0.9-1.7c-0.3-0.5-0.6-1-1-1.5c-0.2,0.6-0.4,1.1-0.7,1.7
			c-0.2,0.5-0.5,1-0.8,1.4c0.3,0.5,0.6,1,0.8,1.4c0.3,0.6,0.5,1.1,0.7,1.7c0.4,1.2,0.6,2.4,0.6,3.6c0,13-21.8,23.5-48.5,23.5
			c-26.8,0-48.5-10.5-48.5-23.5c0-1.2,0.2-2.4,0.6-3.6c0.2-0.6,0.4-1.1,0.7-1.7c0.2-0.5,0.5-1,0.8-1.5c-0.3-0.5-0.6-1-0.8-1.5
			c-0.3-0.5-0.5-1.1-0.7-1.7c-0.4,0.5-0.7,1-1,1.5c-0.3,0.5-0.6,1.1-0.9,1.6c-1,2.1-1.6,4.4-1.6,6.7c0,14.9,22.6,26.5,51.5,26.5
			s51.5-11.6,51.5-26.5C313.1,231.4,312.6,229.2,311.5,227z"/>
	</g>
	<g id="XMLID_67_">
		<linearGradient id="XMLID_20_" gradientUnits="userSpaceOnUse" x1="411.7471" y1="420.2406" x2="109.3189" y2="72.2543">
			<stop  offset="0" style="stop-color:#F38546"/>
			<stop  offset="0.5" style="stop-color:#E664A5"/>
			<stop  offset="1" style="stop-color:#7A4A9D"/>
		</linearGradient>
		<path id="XMLID_68_" class="st12" d="M311.5,240.7c-0.3-0.6-0.6-1.1-0.9-1.7c-0.3-0.5-0.6-1-1-1.5c-0.2,0.6-0.4,1.1-0.7,1.7
			c-0.2,0.5-0.5,1-0.8,1.4c0.3,0.5,0.6,1,0.8,1.4c0.3,0.6,0.5,1.1,0.7,1.7c0.4,1.2,0.6,2.4,0.6,3.6c0,13-21.8,23.5-48.5,23.5
			c-26.8,0-48.5-10.5-48.5-23.5c0-1.2,0.2-2.4,0.6-3.6c0.2-0.6,0.4-1.1,0.7-1.7c0.2-0.5,0.5-1,0.8-1.5c-0.3-0.5-0.6-1-0.8-1.5
			c-0.3-0.5-0.5-1.1-0.7-1.7c-0.4,0.5-0.7,1-1,1.5c-0.3,0.5-0.6,1.1-0.9,1.6c-1,2.1-1.6,4.4-1.6,6.7c0,14.9,22.6,26.5,51.5,26.5
			s51.5-11.6,51.5-26.5C313.1,245.1,312.6,242.9,311.5,240.7z"/>
	</g>
	<g id="XMLID_70_">
		<linearGradient id="XMLID_21_" gradientUnits="userSpaceOnUse" x1="404.9465" y1="426.1508" x2="102.5184" y2="78.1646">
			<stop  offset="0" style="stop-color:#F38546"/>
			<stop  offset="0.5" style="stop-color:#E664A5"/>
			<stop  offset="1" style="stop-color:#7A4A9D"/>
		</linearGradient>
		<path id="XMLID_71_" class="st13" d="M311.5,254.5c-0.3-0.6-0.6-1.1-0.9-1.7c-0.3-0.5-0.6-1-1-1.5c-0.2,0.6-0.4,1.1-0.7,1.7
			c-0.2,0.5-0.5,1-0.8,1.4c0.3,0.5,0.6,1,0.8,1.4c0.3,0.6,0.5,1.1,0.7,1.7c0.4,1.2,0.6,2.4,0.6,3.6c0,13-21.8,23.5-48.5,23.5
			c-26.8,0-48.5-10.5-48.5-23.5c0-1.2,0.2-2.4,0.6-3.6c0.2-0.6,0.4-1.1,0.7-1.7c0.2-0.5,0.5-1,0.8-1.5c-0.3-0.5-0.6-1-0.8-1.5
			c-0.3-0.5-0.5-1.1-0.7-1.7c-0.4,0.5-0.7,1-1,1.5c-0.3,0.5-0.6,1.1-0.9,1.6c-1,2.1-1.6,4.4-1.6,6.7c0,14.9,22.6,26.5,51.5,26.5
			s51.5-11.6,51.5-26.5C313.1,258.9,312.6,256.6,311.5,254.5z"/>
	</g>
	<g id="XMLID_73_">
		<linearGradient id="XMLID_22_" gradientUnits="userSpaceOnUse" x1="398.146" y1="432.061" x2="95.7178" y2="84.0748">
			<stop  offset="0" style="stop-color:#F38546"/>
			<stop  offset="0.5" style="stop-color:#E664A5"/>
			<stop  offset="1" style="stop-color:#7A4A9D"/>
		</linearGradient>
		<path id="XMLID_74_" class="st14" d="M311.5,268.2c-0.3-0.6-0.6-1.1-0.9-1.7c-0.3-0.5-0.6-1-1-1.5c-0.2,0.6-0.4,1.1-0.7,1.7
			c-0.2,0.5-0.5,1-0.8,1.4c0.3,0.5,0.6,1,0.8,1.4c0.3,0.6,0.5,1.1,0.7,1.7c0.4,1.2,0.6,2.4,0.6,3.6c0,13-21.8,23.5-48.5,23.5
			c-26.8,0-48.5-10.5-48.5-23.5c0-1.2,0.2-2.4,0.6-3.6c0.2-0.6,0.4-1.1,0.7-1.7c0.2-0.5,0.5-1,0.8-1.5c-0.3-0.5-0.6-1-0.8-1.5
			c-0.3-0.5-0.5-1.1-0.7-1.7c-0.4,0.5-0.7,1-1,1.5c-0.3,0.5-0.6,1.1-0.9,1.6c-1,2.1-1.6,4.4-1.6,6.7c0,14.9,22.6,26.5,51.5,26.5
			s51.5-11.6,51.5-26.5C313.1,272.6,312.6,270.4,311.5,268.2z"/>
	</g>
	<g id="XMLID_2_">
		<linearGradient id="XMLID_23_" gradientUnits="userSpaceOnUse" x1="391.3246" y1="437.9894" x2="88.8964" y2="90.0032">
			<stop  offset="0" style="stop-color:#F38546"/>
			<stop  offset="0.5" style="stop-color:#E664A5"/>
			<stop  offset="1" style="stop-color:#7A4A9D"/>
		</linearGradient>
		<path id="XMLID_4_" class="st15" d="M311.5,282c-0.3-0.6-0.6-1.1-0.9-1.7c-0.3-0.5-0.6-1-1-1.5c-0.2,0.6-0.4,1.1-0.7,1.7
			c-0.2,0.5-0.5,1-0.8,1.4c0.3,0.5,0.6,1,0.8,1.4c0.3,0.6,0.5,1.1,0.7,1.7c0.4,1.2,0.6,2.4,0.6,3.6c0,13-21.8,23.5-48.5,23.5
			c-26.8,0-48.5-10.5-48.5-23.5c0-1.2,0.2-2.4,0.6-3.6c0.2-0.6,0.4-1.1,0.7-1.7c0.2-0.5,0.5-1,0.8-1.5c-0.3-0.5-0.6-1-0.8-1.5
			c-0.3-0.5-0.5-1.1-0.7-1.7c-0.4,0.5-0.7,1-1,1.5c-0.3,0.5-0.6,1.1-0.9,1.6c-1,2.1-1.6,4.4-1.6,6.7c0,14.9,22.6,26.5,51.5,26.5
			s51.5-11.6,51.5-26.5C313.1,286.4,312.6,284.1,311.5,282z"/>
	</g>
	<g id="XMLID_32_">
		<linearGradient id="XMLID_24_" gradientUnits="userSpaceOnUse" x1="384.5031" y1="443.9178" x2="82.075" y2="95.9315">
			<stop  offset="0" style="stop-color:#F38546"/>
			<stop  offset="0.5" style="stop-color:#E664A5"/>
			<stop  offset="1" style="stop-color:#7A4A9D"/>
		</linearGradient>
		<path id="XMLID_33_" class="st16" d="M311.5,295.8c-0.3-0.6-0.6-1.1-0.9-1.7c-0.3-0.5-0.6-1-1-1.5c-0.2,0.6-0.4,1.1-0.7,1.7
			c-0.2,0.5-0.5,1-0.8,1.4c0.3,0.5,0.6,1,0.8,1.4c0.3,0.6,0.5,1.1,0.7,1.7c0.4,1.2,0.6,2.4,0.6,3.6c0,13-21.8,23.5-48.5,23.5
			c-26.8,0-48.5-10.5-48.5-23.5c0-1.2,0.2-2.4,0.6-3.6c0.2-0.6,0.4-1.1,0.7-1.7c0.2-0.5,0.5-1,0.8-1.5c-0.3-0.5-0.6-1-0.8-1.5
			c-0.3-0.5-0.5-1.1-0.7-1.7c-0.4,0.5-0.7,1-1,1.5c-0.3,0.5-0.6,1.1-0.9,1.6c-1,2.1-1.6,4.4-1.6,6.7c0,14.9,22.6,26.5,51.5,26.5
			s51.5-11.6,51.5-26.5C313.1,300.2,312.6,297.9,311.5,295.8z"/>
	</g>
	<g id="XMLID_36_">
		<linearGradient id="XMLID_25_" gradientUnits="userSpaceOnUse" x1="377.6817" y1="449.8461" x2="75.2536" y2="101.8599">
			<stop  offset="0" style="stop-color:#F38546"/>
			<stop  offset="0.5" style="stop-color:#E664A5"/>
			<stop  offset="1" style="stop-color:#7A4A9D"/>
		</linearGradient>
		<path id="XMLID_37_" class="st17" d="M311.5,309.6c-0.3-0.6-0.6-1.1-0.9-1.7c-0.3-0.5-0.6-1-1-1.5c-0.2,0.6-0.4,1.1-0.7,1.7
			c-0.2,0.5-0.5,1-0.8,1.4c0.3,0.5,0.6,1,0.8,1.4c0.3,0.6,0.5,1.1,0.7,1.7c0.4,1.2,0.6,2.4,0.6,3.6c0,13-21.8,23.5-48.5,23.5
			c-26.8,0-48.5-10.5-48.5-23.5c0-1.2,0.2-2.4,0.6-3.6c0.2-0.6,0.4-1.1,0.7-1.7c0.2-0.5,0.5-1,0.8-1.5c-0.3-0.5-0.6-1-0.8-1.5
			c-0.3-0.5-0.5-1.1-0.7-1.7c-0.4,0.5-0.7,1-1,1.5c-0.3,0.5-0.6,1.1-0.9,1.6c-1,2.1-1.6,4.4-1.6,6.7c0,14.9,22.6,26.5,51.5,26.5
			s51.5-11.6,51.5-26.5C313.1,314,312.6,311.7,311.5,309.6z"/>
	</g>
	<g id="XMLID_40_">
		<linearGradient id="XMLID_26_" gradientUnits="userSpaceOnUse" x1="370.8603" y1="455.7745" x2="68.4321" y2="107.7882">
			<stop  offset="0" style="stop-color:#F38546"/>
			<stop  offset="0.5" style="stop-color:#E664A5"/>
			<stop  offset="1" style="stop-color:#7A4A9D"/>
		</linearGradient>
		<path id="XMLID_41_" class="st18" d="M311.5,323.3c-0.3-0.6-0.6-1.1-0.9-1.7c-0.3-0.5-0.6-1-1-1.5c-0.2,0.6-0.4,1.1-0.7,1.7
			c-0.2,0.5-0.5,1-0.8,1.4c0.3,0.5,0.6,1,0.8,1.4c0.3,0.6,0.5,1.1,0.7,1.7c0.4,1.2,0.6,2.4,0.6,3.6c0,13-21.8,23.5-48.5,23.5
			c-26.8,0-48.5-10.5-48.5-23.5c0-1.2,0.2-2.4,0.6-3.6c0.2-0.6,0.4-1.1,0.7-1.7c0.2-0.5,0.5-1,0.8-1.5c-0.3-0.5-0.6-1-0.8-1.5
			c-0.3-0.5-0.5-1.1-0.7-1.7c-0.4,0.5-0.7,1-1,1.5c-0.3,0.5-0.6,1.1-0.9,1.6c-1,2.1-1.6,4.4-1.6,6.7c0,14.9,22.6,26.5,51.5,26.5
			s51.5-11.6,51.5-26.5C313.1,327.7,312.6,325.5,311.5,323.3z"/>
	</g>
	<g id="XMLID_38_">
		<linearGradient id="XMLID_27_" gradientUnits="userSpaceOnUse" x1="439.0694" y1="396.4952" x2="136.6413" y2="48.509">
			<stop  offset="0" style="stop-color:#F38546"/>
			<stop  offset="0.5" style="stop-color:#E664A5"/>
			<stop  offset="1" style="stop-color:#7A4A9D"/>
		</linearGradient>
		<path id="XMLID_59_" class="st19" d="M261.6,165.8c-28.9,0-51.5,11.6-51.5,26.5c0,2.3,0.6,4.6,1.6,6.7c0.3,0.5,0.6,1.1,0.9,1.6
			c0.3,0.5,0.7,1,1,1.5c7.4,9.8,25.9,16.6,47.9,16.6s40.5-6.8,47.9-16.6c0.4-0.5,0.7-1,1-1.5c0.4-0.5,0.7-1.1,0.9-1.6
			c1-2.1,1.6-4.4,1.6-6.7C313.1,177.5,290.5,165.8,261.6,165.8z M309.6,195.9c-0.2,0.6-0.4,1.1-0.7,1.7c-0.2,0.5-0.5,1-0.8,1.4
			c-6,9.7-24.5,16.8-46.5,16.8s-40.5-7.1-46.5-16.8c-0.3-0.5-0.6-1-0.8-1.5c-0.3-0.5-0.5-1.1-0.7-1.7c-0.4-1.2-0.6-2.4-0.6-3.6
			c0-13,21.8-23.5,48.5-23.5c26.7,0,48.5,10.5,48.5,23.5C310.1,193.6,309.9,194.8,309.6,195.9z"/>
	</g>
	<g id="XMLID_83_">
		<linearGradient id="XMLID_28_" gradientUnits="userSpaceOnUse" x1="455.0281" y1="382.6259" x2="152.5999" y2="34.6396">
			<stop  offset="0" style="stop-color:#F38546"/>
			<stop  offset="0.5" style="stop-color:#E664A5"/>
			<stop  offset="1" style="stop-color:#7A4A9D"/>
		</linearGradient>
		<path id="XMLID_84_" class="st20" d="M411.5,268.4c-0.3-0.6-0.6-1.1-0.9-1.7c-0.3-0.5-0.6-1-1-1.5c-0.2,0.6-0.4,1.1-0.7,1.7
			c-0.2,0.5-0.5,1-0.8,1.4c0.3,0.5,0.6,1,0.8,1.4c0.3,0.6,0.5,1.1,0.7,1.7c0.4,1.2,0.6,2.4,0.6,3.6c0,13-21.8,23.5-48.5,23.5
			c-26.8,0-48.5-10.5-48.5-23.5c0-1.2,0.2-2.4,0.6-3.6c0.2-0.6,0.4-1.1,0.7-1.7c0.2-0.5,0.5-1,0.8-1.5c-0.3-0.5-0.6-1-0.8-1.5
			c-0.3-0.5-0.5-1.1-0.7-1.7c-0.4,0.5-0.7,1-1,1.5c-0.3,0.5-0.6,1.1-0.9,1.6c-1,2.1-1.6,4.4-1.6,6.7c0,14.9,22.6,26.5,51.5,26.5
			s51.5-11.6,51.5-26.5C413.1,272.8,412.6,270.5,411.5,268.4z"/>
	</g>
	<g id="XMLID_80_">
		<linearGradient id="XMLID_29_" gradientUnits="userSpaceOnUse" x1="448.2275" y1="388.5361" x2="145.7994" y2="40.5499">
			<stop  offset="0" style="stop-color:#F38546"/>
			<stop  offset="0.5" style="stop-color:#E664A5"/>
			<stop  offset="1" style="stop-color:#7A4A9D"/>
		</linearGradient>
		<path id="XMLID_81_" class="st21" d="M411.5,282.1c-0.3-0.6-0.6-1.1-0.9-1.7c-0.3-0.5-0.6-1-1-1.5c-0.2,0.6-0.4,1.1-0.7,1.7
			c-0.2,0.5-0.5,1-0.8,1.4c0.3,0.5,0.6,1,0.8,1.4c0.3,0.6,0.5,1.1,0.7,1.7c0.4,1.2,0.6,2.4,0.6,3.6c0,13-21.8,23.5-48.5,23.5
			c-26.8,0-48.5-10.5-48.5-23.5c0-1.2,0.2-2.4,0.6-3.6c0.2-0.6,0.4-1.1,0.7-1.7c0.2-0.5,0.5-1,0.8-1.5c-0.3-0.5-0.6-1-0.8-1.5
			c-0.3-0.5-0.5-1.1-0.7-1.7c-0.4,0.5-0.7,1-1,1.5c-0.3,0.5-0.6,1.1-0.9,1.6c-1,2.1-1.6,4.4-1.6,6.7c0,14.9,22.6,26.5,51.5,26.5
			s51.5-11.6,51.5-26.5C413.1,286.5,412.6,284.3,411.5,282.1z"/>
	</g>
	<g id="XMLID_77_">
		<linearGradient id="XMLID_31_" gradientUnits="userSpaceOnUse" x1="441.427" y1="394.4464" x2="138.9988" y2="46.4601">
			<stop  offset="0" style="stop-color:#F38546"/>
			<stop  offset="0.5" style="stop-color:#E664A5"/>
			<stop  offset="1" style="stop-color:#7A4A9D"/>
		</linearGradient>
		<path id="XMLID_78_" class="st22" d="M411.5,295.9c-0.3-0.6-0.6-1.1-0.9-1.7c-0.3-0.5-0.6-1-1-1.5c-0.2,0.6-0.4,1.1-0.7,1.7
			c-0.2,0.5-0.5,1-0.8,1.4c0.3,0.5,0.6,1,0.8,1.4c0.3,0.6,0.5,1.1,0.7,1.7c0.4,1.2,0.6,2.4,0.6,3.6c0,13-21.8,23.5-48.5,23.5
			c-26.8,0-48.5-10.5-48.5-23.5c0-1.2,0.2-2.4,0.6-3.6c0.2-0.6,0.4-1.1,0.7-1.7c0.2-0.5,0.5-1,0.8-1.5c-0.3-0.5-0.6-1-0.8-1.5
			c-0.3-0.5-0.5-1.1-0.7-1.7c-0.4,0.5-0.7,1-1,1.5c-0.3,0.5-0.6,1.1-0.9,1.6c-1,2.1-1.6,4.4-1.6,6.7c0,14.9,22.6,26.5,51.5,26.5
			s51.5-11.6,51.5-26.5C413.1,300.3,412.6,298,411.5,295.9z"/>
	</g>
	<g id="XMLID_51_">
		<linearGradient id="XMLID_110_" gradientUnits="userSpaceOnUse" x1="434.6264" y1="400.3566" x2="132.1983" y2="52.3703">
			<stop  offset="0" style="stop-color:#F38546"/>
			<stop  offset="0.5" style="stop-color:#E664A5"/>
			<stop  offset="1" style="stop-color:#7A4A9D"/>
		</linearGradient>
		<path id="XMLID_52_" class="st23" d="M411.5,309.6c-0.3-0.6-0.6-1.1-0.9-1.7c-0.3-0.5-0.6-1-1-1.5c-0.2,0.6-0.4,1.1-0.7,1.7
			c-0.2,0.5-0.5,1-0.8,1.4c0.3,0.5,0.6,1,0.8,1.4c0.3,0.6,0.5,1.1,0.7,1.7c0.4,1.2,0.6,2.4,0.6,3.6c0,13-21.8,23.5-48.5,23.5
			c-26.8,0-48.5-10.5-48.5-23.5c0-1.2,0.2-2.4,0.6-3.6c0.2-0.6,0.4-1.1,0.7-1.7c0.2-0.5,0.5-1,0.8-1.5c-0.3-0.5-0.6-1-0.8-1.5
			c-0.3-0.5-0.5-1.1-0.7-1.7c-0.4,0.5-0.7,1-1,1.5c-0.3,0.5-0.6,1.1-0.9,1.6c-1,2.1-1.6,4.4-1.6,6.7c0,14.9,22.6,26.5,51.5,26.5
			s51.5-11.6,51.5-26.5C413.1,314,412.6,311.7,411.5,309.6z"/>
	</g>
	<g id="XMLID_48_">
		<linearGradient id="XMLID_111_" gradientUnits="userSpaceOnUse" x1="427.8259" y1="406.2668" x2="125.3977" y2="58.2806">
			<stop  offset="0" style="stop-color:#F38546"/>
			<stop  offset="0.5" style="stop-color:#E664A5"/>
			<stop  offset="1" style="stop-color:#7A4A9D"/>
		</linearGradient>
		<path id="XMLID_49_" class="st24" d="M411.5,323.3c-0.3-0.6-0.6-1.1-0.9-1.7c-0.3-0.5-0.6-1-1-1.5c-0.2,0.6-0.4,1.1-0.7,1.7
			c-0.2,0.5-0.5,1-0.8,1.4c0.3,0.5,0.6,1,0.8,1.4c0.3,0.6,0.5,1.1,0.7,1.7c0.4,1.2,0.6,2.4,0.6,3.6c0,13-21.8,23.5-48.5,23.5
			c-26.8,0-48.5-10.5-48.5-23.5c0-1.2,0.2-2.4,0.6-3.6c0.2-0.6,0.4-1.1,0.7-1.7c0.2-0.5,0.5-1,0.8-1.5c-0.3-0.5-0.6-1-0.8-1.5
			c-0.3-0.5-0.5-1.1-0.7-1.7c-0.4,0.5-0.7,1-1,1.5c-0.3,0.5-0.6,1.1-0.9,1.6c-1,2.1-1.6,4.4-1.6,6.7c0,14.9,22.6,26.5,51.5,26.5
			s51.5-11.6,51.5-26.5C413.1,327.7,412.6,325.5,411.5,323.3z"/>
	</g>
	<g id="XMLID_43_">
		<linearGradient id="XMLID_112_" gradientUnits="userSpaceOnUse" x1="461.9488" y1="376.6113" x2="159.5206" y2="28.625">
			<stop  offset="0" style="stop-color:#F38546"/>
			<stop  offset="0.5" style="stop-color:#E664A5"/>
			<stop  offset="1" style="stop-color:#7A4A9D"/>
		</linearGradient>
		<path id="XMLID_44_" class="st25" d="M361.6,234.7c-28.9,0-51.5,11.6-51.5,26.5c0,2.3,0.6,4.6,1.6,6.7c0.3,0.5,0.6,1.1,0.9,1.6
			c0.3,0.5,0.7,1,1,1.5c7.4,9.8,25.9,16.6,47.9,16.6s40.5-6.8,47.9-16.6c0.4-0.5,0.7-1,1-1.5c0.4-0.5,0.7-1.1,0.9-1.6
			c1-2.1,1.6-4.4,1.6-6.7C413.1,246.3,390.5,234.7,361.6,234.7z M409.6,264.8c-0.2,0.6-0.4,1.1-0.7,1.7c-0.2,0.5-0.5,1-0.8,1.4
			c-6,9.7-24.5,16.8-46.5,16.8s-40.5-7.1-46.5-16.8c-0.3-0.5-0.6-1-0.8-1.5c-0.3-0.5-0.5-1.1-0.7-1.7c-0.4-1.2-0.6-2.4-0.6-3.6
			c0-13,21.8-23.5,48.5-23.5c26.7,0,48.5,10.5,48.5,23.5C410.1,262.4,409.9,263.6,409.6,264.8z"/>
	</g>
	<g id="XMLID_107_">
		<linearGradient id="XMLID_113_" gradientUnits="userSpaceOnUse" x1="341.1046" y1="481.6346" x2="38.6765" y2="133.6483">
			<stop  offset="0" style="stop-color:#F38546"/>
			<stop  offset="0.5" style="stop-color:#E664A5"/>
			<stop  offset="1" style="stop-color:#7A4A9D"/>
		</linearGradient>
		<path id="XMLID_108_" class="st26" d="M211.6,268.4c-0.3-0.6-0.6-1.1-0.9-1.7c-0.3-0.5-0.6-1-1-1.5c-0.2,0.6-0.4,1.1-0.7,1.7
			c-0.2,0.5-0.5,1-0.8,1.4c0.3,0.5,0.6,1,0.8,1.4c0.3,0.6,0.5,1.1,0.7,1.7c0.4,1.2,0.6,2.4,0.6,3.6c0,13-21.8,23.5-48.5,23.5
			c-26.8,0-48.5-10.5-48.5-23.5c0-1.2,0.2-2.4,0.6-3.6c0.2-0.6,0.4-1.1,0.7-1.7c0.2-0.5,0.5-1,0.8-1.5c-0.3-0.5-0.6-1-0.8-1.5
			c-0.3-0.5-0.5-1.1-0.7-1.7c-0.4,0.5-0.7,1-1,1.5c-0.3,0.5-0.6,1.1-0.9,1.6c-1,2.1-1.6,4.4-1.6,6.7c0,14.9,22.6,26.5,51.5,26.5
			s51.5-11.6,51.5-26.5C213.2,272.8,212.6,270.5,211.6,268.4z"/>
	</g>
	<g id="XMLID_104_">
		<linearGradient id="XMLID_114_" gradientUnits="userSpaceOnUse" x1="334.3041" y1="487.5448" x2="31.8759" y2="139.5586">
			<stop  offset="0" style="stop-color:#F38546"/>
			<stop  offset="0.5" style="stop-color:#E664A5"/>
			<stop  offset="1" style="stop-color:#7A4A9D"/>
		</linearGradient>
		<path id="XMLID_105_" class="st27" d="M211.6,282.1c-0.3-0.6-0.6-1.1-0.9-1.7c-0.3-0.5-0.6-1-1-1.5c-0.2,0.6-0.4,1.1-0.7,1.7
			c-0.2,0.5-0.5,1-0.8,1.4c0.3,0.5,0.6,1,0.8,1.4c0.3,0.6,0.5,1.1,0.7,1.7c0.4,1.2,0.6,2.4,0.6,3.6c0,13-21.8,23.5-48.5,23.5
			c-26.8,0-48.5-10.5-48.5-23.5c0-1.2,0.2-2.4,0.6-3.6c0.2-0.6,0.4-1.1,0.7-1.7c0.2-0.5,0.5-1,0.8-1.5c-0.3-0.5-0.6-1-0.8-1.5
			c-0.3-0.5-0.5-1.1-0.7-1.7c-0.4,0.5-0.7,1-1,1.5c-0.3,0.5-0.6,1.1-0.9,1.6c-1,2.1-1.6,4.4-1.6,6.7c0,14.9,22.6,26.5,51.5,26.5
			s51.5-11.6,51.5-26.5C213.2,286.5,212.6,284.3,211.6,282.1z"/>
	</g>
	<g id="XMLID_101_">
		<linearGradient id="XMLID_115_" gradientUnits="userSpaceOnUse" x1="327.5035" y1="493.455" x2="25.0754" y2="145.4688">
			<stop  offset="0" style="stop-color:#F38546"/>
			<stop  offset="0.5" style="stop-color:#E664A5"/>
			<stop  offset="1" style="stop-color:#7A4A9D"/>
		</linearGradient>
		<path id="XMLID_102_" class="st28" d="M211.6,295.9c-0.3-0.6-0.6-1.1-0.9-1.7c-0.3-0.5-0.6-1-1-1.5c-0.2,0.6-0.4,1.1-0.7,1.7
			c-0.2,0.5-0.5,1-0.8,1.4c0.3,0.5,0.6,1,0.8,1.4c0.3,0.6,0.5,1.1,0.7,1.7c0.4,1.2,0.6,2.4,0.6,3.6c0,13-21.8,23.5-48.5,23.5
			c-26.8,0-48.5-10.5-48.5-23.5c0-1.2,0.2-2.4,0.6-3.6c0.2-0.6,0.4-1.1,0.7-1.7c0.2-0.5,0.5-1,0.8-1.5c-0.3-0.5-0.6-1-0.8-1.5
			c-0.3-0.5-0.5-1.1-0.7-1.7c-0.4,0.5-0.7,1-1,1.5c-0.3,0.5-0.6,1.1-0.9,1.6c-1,2.1-1.6,4.4-1.6,6.7c0,14.9,22.6,26.5,51.5,26.5
			s51.5-11.6,51.5-26.5C213.2,300.3,212.6,298,211.6,295.9z"/>
	</g>
	<g id="XMLID_98_">
		<linearGradient id="XMLID_116_" gradientUnits="userSpaceOnUse" x1="320.703" y1="499.3653" x2="18.2748" y2="151.379">
			<stop  offset="0" style="stop-color:#F38546"/>
			<stop  offset="0.5" style="stop-color:#E664A5"/>
			<stop  offset="1" style="stop-color:#7A4A9D"/>
		</linearGradient>
		<path id="XMLID_99_" class="st29" d="M211.6,309.6c-0.3-0.6-0.6-1.1-0.9-1.7c-0.3-0.5-0.6-1-1-1.5c-0.2,0.6-0.4,1.1-0.7,1.7
			c-0.2,0.5-0.5,1-0.8,1.4c0.3,0.5,0.6,1,0.8,1.4c0.3,0.6,0.5,1.1,0.7,1.7c0.4,1.2,0.6,2.4,0.6,3.6c0,13-21.8,23.5-48.5,23.5
			c-26.8,0-48.5-10.5-48.5-23.5c0-1.2,0.2-2.4,0.6-3.6c0.2-0.6,0.4-1.1,0.7-1.7c0.2-0.5,0.5-1,0.8-1.5c-0.3-0.5-0.6-1-0.8-1.5
			c-0.3-0.5-0.5-1.1-0.7-1.7c-0.4,0.5-0.7,1-1,1.5c-0.3,0.5-0.6,1.1-0.9,1.6c-1,2.1-1.6,4.4-1.6,6.7c0,14.9,22.6,26.5,51.5,26.5
			s51.5-11.6,51.5-26.5C213.2,314,212.6,311.7,211.6,309.6z"/>
	</g>
	<g id="XMLID_95_">
		<linearGradient id="XMLID_117_" gradientUnits="userSpaceOnUse" x1="313.9024" y1="505.2755" x2="11.4743" y2="157.2892">
			<stop  offset="0" style="stop-color:#F38546"/>
			<stop  offset="0.5" style="stop-color:#E664A5"/>
			<stop  offset="1" style="stop-color:#7A4A9D"/>
		</linearGradient>
		<path id="XMLID_96_" class="st30" d="M211.6,323.3c-0.3-0.6-0.6-1.1-0.9-1.7c-0.3-0.5-0.6-1-1-1.5c-0.2,0.6-0.4,1.1-0.7,1.7
			c-0.2,0.5-0.5,1-0.8,1.4c0.3,0.5,0.6,1,0.8,1.4c0.3,0.6,0.5,1.1,0.7,1.7c0.4,1.2,0.6,2.4,0.6,3.6c0,13-21.8,23.5-48.5,23.5
			c-26.8,0-48.5-10.5-48.5-23.5c0-1.2,0.2-2.4,0.6-3.6c0.2-0.6,0.4-1.1,0.7-1.7c0.2-0.5,0.5-1,0.8-1.5c-0.3-0.5-0.6-1-0.8-1.5
			c-0.3-0.5-0.5-1.1-0.7-1.7c-0.4,0.5-0.7,1-1,1.5c-0.3,0.5-0.6,1.1-0.9,1.6c-1,2.1-1.6,4.4-1.6,6.7c0,14.9,22.6,26.5,51.5,26.5
			s51.5-11.6,51.5-26.5C213.2,327.7,212.6,325.5,211.6,323.3z"/>
	</g>
	<g id="XMLID_87_">
		<linearGradient id="XMLID_118_" gradientUnits="userSpaceOnUse" x1="348.0253" y1="475.6199" x2="45.5971" y2="127.6337">
			<stop  offset="0" style="stop-color:#F38546"/>
			<stop  offset="0.5" style="stop-color:#E664A5"/>
			<stop  offset="1" style="stop-color:#7A4A9D"/>
		</linearGradient>
		<path id="XMLID_89_" class="st31" d="M161.7,234.7c-28.9,0-51.5,11.6-51.5,26.5c0,2.3,0.6,4.6,1.6,6.7c0.3,0.5,0.6,1.1,0.9,1.6
			c0.3,0.5,0.7,1,1,1.5c7.4,9.8,25.9,16.6,47.9,16.6s40.5-6.8,47.9-16.6c0.4-0.5,0.7-1,1-1.5c0.4-0.5,0.7-1.1,0.9-1.6
			c1-2.1,1.6-4.4,1.6-6.7C213.2,246.3,190.5,234.7,161.7,234.7z M209.6,264.8c-0.2,0.6-0.4,1.1-0.7,1.7c-0.2,0.5-0.5,1-0.8,1.4
			c-6,9.7-24.5,16.8-46.5,16.8s-40.5-7.1-46.5-16.8c-0.3-0.5-0.6-1-0.8-1.5c-0.3-0.5-0.5-1.1-0.7-1.7c-0.4-1.2-0.6-2.4-0.6-3.6
			c0-13,21.8-23.5,48.5-23.5c26.7,0,48.5,10.5,48.5,23.5C210.2,262.4,210,263.6,209.6,264.8z"/>
	</g>
</g>
</svg>
