<?xml version="1.0" encoding="utf-8"?>
<!-- Generator: Adobe Illustrator 19.0.0, SVG Export Plug-In . SVG Version: 6.00 Build 0)  -->
<svg version="1.1" id="Layer_1" xmlns="http://www.w3.org/2000/svg" xmlns:xlink="http://www.w3.org/1999/xlink" x="0px" y="0px"
	 viewBox="0 0 500 500" style="enable-background:new 0 0 500 500;" xml:space="preserve">
<style type="text/css">
	.st0{fill:url(#XMLID_2_);}
	.st1{fill:url(#XMLID_3_);}
	.st2{fill:url(#XMLID_4_);}
	.st3{fill:url(#XMLID_8_);}
	.st4{fill:url(#XMLID_9_);}
	.st5{fill:url(#XMLID_10_);}
	.st6{fill:url(#XMLID_14_);}
	.st7{fill:url(#XMLID_17_);}
	.st8{fill:url(#XMLID_18_);}
	.st9{fill:url(#XMLID_20_);}
	.st10{fill:url(#XMLID_22_);}
	.st11{fill:url(#XMLID_23_);}
	.st12{fill:url(#XMLID_24_);}
	.st13{fill:url(#XMLID_27_);}
	.st14{fill:url(#XMLID_30_);}
	.st15{fill:url(#XMLID_32_);}
	.st16{fill:url(#XMLID_33_);}
</style>
<linearGradient id="XMLID_2_" gradientUnits="userSpaceOnUse" x1="410.2997" y1="498.8554" x2="55.78" y2="169.7985">
	<stop  offset="0" style="stop-color:#F38546"/>
	<stop  offset="0.5" style="stop-color:#E664A5"/>
	<stop  offset="1" style="stop-color:#7A4A9D"/>
</linearGradient>
<path id="XMLID_145_" class="st0" d="M158,264.2l-2.1,2.1l-2.1-2.1L112.6,223c-0.6-0.6-0.6-1.5,0-2.1c0.6-0.6,1.5-0.6,2.1,0
	L158,264.2z"/>
<linearGradient id="XMLID_3_" gradientUnits="userSpaceOnUse" x1="408.5501" y1="500.7404" x2="54.0304" y2="171.6835">
	<stop  offset="0" style="stop-color:#F38546"/>
	<stop  offset="0.5" style="stop-color:#E664A5"/>
	<stop  offset="1" style="stop-color:#7A4A9D"/>
</linearGradient>
<path id="XMLID_139_" class="st1" d="M187.1,293.3c-1,0.4-1.9,0.9-2.8,1.5l-0.5-0.5l-0.6-0.6l-0.5-0.5l-0.6-0.6l-0.4-0.5l2.1-2.1
	L187.1,293.3z"/>
<linearGradient id="XMLID_4_" gradientUnits="userSpaceOnUse" x1="421.0235" y1="487.3017" x2="66.5039" y2="158.2448">
	<stop  offset="0" style="stop-color:#F38546"/>
	<stop  offset="0.5" style="stop-color:#E664A5"/>
	<stop  offset="1" style="stop-color:#7A4A9D"/>
</linearGradient>
<path id="XMLID_140_" class="st2" d="M290.3,346.6c0,6.2-2.5,11.8-6.6,15.9c-4.1,4.1-9.7,6.6-15.8,6.6c-6,0-11.6-2.3-15.9-6.6
	c-0.3-0.3-0.6-0.6-0.9-0.9l-41.5-41.5c0.6-0.9,1.1-1.8,1.5-2.8l2.3,2.3l39.9,39.9c0.3,0.3,0.6,0.6,0.9,0.9l0,0
	c3.7,3.6,8.5,5.6,13.7,5.6c10.7,0,19.4-8.7,19.4-19.4c0-5.3-2.2-10.2-5.7-13.7l0,0c-0.3-0.3-0.6-0.6-0.9-0.8l-41.8-41.8
	c-0.6-0.6-0.6-1.5,0-2.1c0.6-0.6,1.5-0.6,2.1,0l41.8,41.8C287.4,334.1,290.3,340,290.3,346.6z"/>
<linearGradient id="XMLID_8_" gradientUnits="userSpaceOnUse" x1="449.5163" y1="456.6042" x2="94.9967" y2="127.5473">
	<stop  offset="0" style="stop-color:#F38546"/>
	<stop  offset="0.5" style="stop-color:#E664A5"/>
	<stop  offset="1" style="stop-color:#7A4A9D"/>
</linearGradient>
<path id="XMLID_6_" class="st3" d="M313.4,332.8c-4.1,4.1-9.7,6.6-15.9,6.6c-6,0-11.6-2.3-15.9-6.6c-0.3-0.3-0.6-0.6-0.9-0.9
	l-41.7-41.7c-0.6-0.6-0.6-1.5,0-2.1s1.5-0.6,2.1,0l41.8,41.8c0.3,0.3,0.6,0.6,0.8,0.9l0,0c3.7,3.6,8.5,5.6,13.7,5.6
	c10.7,0,19.4-8.7,19.4-19.4c0-5.3-2.2-10.2-5.6-13.7l0,0c-0.3-0.3-0.6-0.6-0.9-0.8l-40.2-40.2c-0.6-0.6-0.6-1.5,0-2.1
	c0.6-0.6,1.5-0.6,2.1,0l40.2,40.2c4.6,4.1,7.5,10.1,7.5,16.7C320,323.2,317.5,328.8,313.4,332.8z"/>
<linearGradient id="XMLID_9_" gradientUnits="userSpaceOnUse" x1="495.9893" y1="406.535" x2="141.4697" y2="77.4781">
	<stop  offset="0" style="stop-color:#F38546"/>
	<stop  offset="0.5" style="stop-color:#E664A5"/>
	<stop  offset="1" style="stop-color:#7A4A9D"/>
</linearGradient>
<path id="XMLID_110_" class="st4" d="M227.6,156.3l-2.1,2.1l-1.1-1.1l-1.1-1.1l-22-22c-0.6-0.6-0.6-1.5,0-2.1c0.6-0.6,1.5-0.6,2.1,0
	l22,22L227.6,156.3z"/>
<linearGradient id="XMLID_10_" gradientUnits="userSpaceOnUse" x1="478.8098" y1="425.0439" x2="124.2902" y2="95.987">
	<stop  offset="0" style="stop-color:#F38546"/>
	<stop  offset="0.5" style="stop-color:#E664A5"/>
	<stop  offset="1" style="stop-color:#7A4A9D"/>
</linearGradient>
<path id="XMLID_28_" class="st5" d="M349.5,287.4c0,6.2-2.5,11.8-6.6,15.9c-4.1,4.1-9.7,6.6-15.8,6.6c-6,0-11.6-2.3-15.9-6.6
	c-0.3-0.3-0.6-0.6-0.9-0.9l-40.2-40.2c-0.6-0.6-0.6-1.5,0-2.1c0.6-0.6,1.5-0.6,2.1,0l40.2,40.2c0.3,0.3,0.5,0.6,0.8,0.9l0,0.1
	c3.7,3.6,8.5,5.6,13.7,5.6c10.7,0,19.4-8.7,19.4-19.4c0-5.3-2.2-10.2-5.6-13.7l-0.1,0c-0.3-0.3-0.6-0.6-0.9-0.8l-86.4-86.5l-2.1-2.1
	l2.1-2.1l88.5,88.5C346.7,274.8,349.5,280.8,349.5,287.4z"/>
<g id="XMLID_5_">
	<linearGradient id="XMLID_14_" gradientUnits="userSpaceOnUse" x1="385.9464" y1="525.0931" x2="31.4268" y2="196.0362">
		<stop  offset="0" style="stop-color:#F38546"/>
		<stop  offset="0.5" style="stop-color:#E664A5"/>
		<stop  offset="1" style="stop-color:#7A4A9D"/>
	</linearGradient>
	<path id="XMLID_120_" class="st6" d="M212.1,320.3l-30.5,30.5c-1.5,1.5-2.7,3.1-3.6,4.9c-3.9,7.5-2.7,16.9,3.6,23.1
		c7.7,7.7,20.3,7.7,28,0l30.5-30.4L212.1,320.3z M208.6,377.7c-7.1,7.1-18.8,7.1-25.9,0c-3.5-3.5-5.4-8.1-5.4-12.9
		c0-4.9,1.9-9.5,5.4-13l29.4-29.4l25.9,25.9L208.6,377.7z"/>
	<linearGradient id="XMLID_17_" gradientUnits="userSpaceOnUse" x1="385.9648" y1="525.0734" x2="31.4451" y2="196.0165">
		<stop  offset="0" style="stop-color:#F38546"/>
		<stop  offset="0.5" style="stop-color:#E664A5"/>
		<stop  offset="1" style="stop-color:#7A4A9D"/>
	</linearGradient>
	<path id="XMLID_25_" class="st7" d="M212.1,318.2l-31.5,31.5c-1.5,1.5-2.8,3.2-3.8,5.1c-0.6,1.1-1.1,2.3-1.5,3.5l0,0
		c-0.7,2.1-1,4.2-1,6.5c0,2.8,0.5,5.6,1.6,8.2s2.6,4.9,4.6,6.9c4.2,4.2,9.6,6.2,15.1,6.2c5.5,0,10.9-2.1,15.1-6.2l31.5-31.5
		L212.1,318.2z M182.7,377.7c-3.5-3.5-5.4-8.1-5.4-12.9c0-4.9,1.9-9.5,5.4-13l29.4-29.4l25.9,25.9l-29.4,29.4
		C201.4,384.9,189.8,384.9,182.7,377.7z"/>
</g>
<g id="XMLID_11_">
	<linearGradient id="XMLID_18_" gradientUnits="userSpaceOnUse" x1="388.442" y1="522.4044" x2="33.9224" y2="193.3475">
		<stop  offset="0" style="stop-color:#F38546"/>
		<stop  offset="0.5" style="stop-color:#E664A5"/>
		<stop  offset="1" style="stop-color:#7A4A9D"/>
	</linearGradient>
	<path id="XMLID_126_" class="st8" d="M208.3,296.2c-6-6-15-7.4-22.3-4c0,0,0,0,0,0c-0.9,0.4-1.8,0.9-2.7,1.5
		c-1.1,0.7-2.1,1.5-3,2.5l-33.2,33.2c-1.7,1.7-3,3.7-4,5.7c-3.4,7.3-2,16.3,4,22.3c7.7,7.7,20.3,7.7,28,0l33.2-33.2
		c0.9-0.9,1.8-2,2.5-3c0.4-0.6,0.8-1.2,1.1-1.8c0.2-0.3,0.3-0.6,0.5-0.9c1.2-2.6,1.8-5.4,1.8-8.3
		C214.1,305.1,212.1,300.1,208.3,296.2z M211.1,317.3c-0.4,1-0.9,1.9-1.5,2.8c-0.7,1.1-1.5,2.1-2.5,3L174,356.3
		c-3.5,3.5-8.1,5.4-13,5.4c-2.4,0-4.8-0.5-7-1.4c-2.2-0.9-4.2-2.3-5.9-4c-3.5-3.5-5.4-8.1-5.4-13s1.9-9.5,5.4-13l33.2-33.2
		c0.9-0.9,2-1.8,3-2.5c0.9-0.6,1.8-1.1,2.8-1.5c2.2-0.9,4.6-1.4,7.1-1.4c4.9,0,9.5,1.9,13,5.4c3.5,3.5,5.4,8.1,5.4,13
		C212.6,312.7,212.1,315.1,211.1,317.3z"/>
	<linearGradient id="XMLID_20_" gradientUnits="userSpaceOnUse" x1="388.4424" y1="522.4041" x2="33.9227" y2="193.3472">
		<stop  offset="0" style="stop-color:#F38546"/>
		<stop  offset="0.5" style="stop-color:#E664A5"/>
		<stop  offset="1" style="stop-color:#7A4A9D"/>
	</linearGradient>
	<path id="XMLID_19_" class="st9" d="M209.3,295.1c-4-4-9.4-6.2-15.1-6.2c-2,0-3.9,0.3-5.8,0.8c-1.2,0.3-2.3,0.7-3.4,1.3
		c-0.1,0-0.2,0.1-0.2,0.1c-0.9,0.5-1.8,1-2.7,1.6c-1.1,0.7-2.1,1.6-3,2.5L146,328.3c-1.8,1.8-3.2,3.8-4.2,5.9
		c-0.5,1.1-0.9,2.2-1.3,3.4c-0.5,1.9-0.8,3.8-0.8,5.8c0,2.8,0.6,5.6,1.6,8.2c1.1,2.6,2.6,4.9,4.6,6.9c4,4,9.4,6.3,15.1,6.3
		c5.2,0,10.1-1.8,14-5.2l0,0c0.4-0.3,0.8-0.7,1.1-1l33.2-33.2c0.9-0.9,1.8-1.9,2.5-3c0.1-0.1,0.2-0.3,0.3-0.4
		c0.3-0.4,0.6-0.9,0.8-1.3c0.2-0.3,0.3-0.6,0.5-0.9c1.4-2.9,2.2-6.1,2.2-9.4C215.6,304.5,213.4,299.2,209.3,295.1z M209.7,320.1
		c-0.7,1.1-1.5,2.1-2.5,3L174,356.3c-3.5,3.5-8.1,5.4-13,5.4c-2.4,0-4.8-0.5-7-1.4c-2.2-0.9-4.2-2.3-5.9-4c-3.5-3.5-5.4-8.1-5.4-13
		s1.9-9.5,5.4-13l33.2-33.2c0.9-0.9,2-1.8,3-2.5c0.9-0.6,1.8-1.1,2.8-1.5c2.2-0.9,4.6-1.4,7.1-1.4c4.9,0,9.5,1.9,13,5.4
		c3.5,3.5,5.4,8.1,5.4,13c0,2.5-0.5,4.9-1.4,7.1C210.7,318.3,210.2,319.2,209.7,320.1z"/>
</g>
<g id="XMLID_15_">
	<linearGradient id="XMLID_22_" gradientUnits="userSpaceOnUse" x1="499.484" y1="402.77" x2="144.9643" y2="73.7131">
		<stop  offset="0" style="stop-color:#F38546"/>
		<stop  offset="0.5" style="stop-color:#E664A5"/>
		<stop  offset="1" style="stop-color:#7A4A9D"/>
	</linearGradient>
	<path id="XMLID_31_" class="st10" d="M273.7,134.2c-7.9-6.9-19.9-6.2-27.4,1.3l-19.8,19.8L213.8,168c-7.3,7.3-8.2,19.1-1.5,27
		c7.6,9,21.1,9.5,29.2,1.3l13.1-13.1l-1.1-1.1l-12.8,12.8c-6.5,6.5-17.9,7.3-24.9,1.5c-8.4-7-8.8-19.5-1.3-27l11-10.9l2.1-2.1
		l19.8-19.8c2.9-2.9,6.6-5,10.7-5.5c6.8-0.9,13.3,1.9,17.4,7.4c1.7,2.4,2.9,5.2,3.3,8.1c0.7,5.3-0.8,10.5-4.2,14.5
		c-0.2,0.3-0.4,0.5-0.6,0.7l1.1,1c1.8-1.8,3.1-4,4-6.2l0,0c1-2.4,1.4-4.9,1.4-7.4C280.5,143.6,278.2,138.2,273.7,134.2z"/>
	<linearGradient id="XMLID_23_" gradientUnits="userSpaceOnUse" x1="499.484" y1="402.7699" x2="144.9644" y2="73.713">
		<stop  offset="0" style="stop-color:#F38546"/>
		<stop  offset="0.5" style="stop-color:#E664A5"/>
		<stop  offset="1" style="stop-color:#7A4A9D"/>
	</linearGradient>
	<path id="XMLID_16_" class="st11" d="M275.7,134.1c-4-4-9.4-6.2-15.1-6.2s-11,2.2-15.1,6.2l-20.1,20.1l-13.1,13.1
		c-8.3,8.3-8.3,21.8,0,30.1c4.2,4.2,9.6,6.2,15.1,6.2s10.9-2.1,15.1-6.2l13.1-13.1l-2.1-2.1l-12.8,12.8c-6.5,6.5-17.9,7.3-24.9,1.5
		c-8.4-7-8.8-19.5-1.3-27l11-10.9l2.1-2.1l19.8-19.8c2.9-2.9,6.6-5,10.7-5.5c6.8-0.9,13.3,1.9,17.4,7.4c1.7,2.4,2.9,5.2,3.3,8.1
		c0.7,5.3-0.8,10.5-4.2,14.5c-0.2,0.3-0.4,0.5-0.6,0.7l1.1,1l1,1l0.7-0.7c2.3-2.6,3.8-5.6,4.6-8.9c0.4-1.7,0.6-3.4,0.6-5.1
		C282,143.4,279.8,138.1,275.7,134.1z"/>
	<linearGradient id="XMLID_24_" gradientUnits="userSpaceOnUse" x1="515.6199" y1="385.3854" x2="171.7973" y2="66.2572">
		<stop  offset="0" style="stop-color:#F38546"/>
		<stop  offset="0.5" style="stop-color:#E664A5"/>
		<stop  offset="1" style="stop-color:#7A4A9D"/>
	</linearGradient>
	<path id="XMLID_21_" class="st12" d="M274.6,161c-0.2,0.3-0.4,0.5-0.6,0.7l0,0L274.6,161z"/>
</g>
<g id="XMLID_12_">
	<linearGradient id="XMLID_27_" gradientUnits="userSpaceOnUse" x1="390.3419" y1="520.3575" x2="35.8223" y2="191.3006">
		<stop  offset="0" style="stop-color:#F38546"/>
		<stop  offset="0.5" style="stop-color:#E664A5"/>
		<stop  offset="1" style="stop-color:#7A4A9D"/>
	</linearGradient>
	<path id="XMLID_124_" class="st13" d="M190.5,257.6c-7.7-7.7-20.3-7.7-28,0l-5.5,5.5l-2.1,2.1l-44.5,44.5c-7.7,7.7-7.7,20.3,0,28
		c7.7,7.7,20.3,7.7,28,0l52.1-52.1c3.9-3.9,5.8-8.9,5.8-14C196.3,266.5,194.3,261.4,190.5,257.6z M189.4,284.5l-52.1,52.1
		c-7.1,7.1-18.8,7.1-25.9,0c-3.5-3.5-5.4-8.1-5.4-12.9c0-4.9,1.9-9.5,5.4-13l44.5-44.5l2.1-2.1l5.5-5.5c3.5-3.5,8.1-5.4,13-5.4
		c4.9,0,9.5,1.9,13,5.4c3.5,3.5,5.4,8,5.4,12.9C194.8,276.5,192.9,281.1,189.4,284.5z"/>
	<linearGradient id="XMLID_30_" gradientUnits="userSpaceOnUse" x1="390.3422" y1="520.3572" x2="35.8225" y2="191.3003">
		<stop  offset="0" style="stop-color:#F38546"/>
		<stop  offset="0.5" style="stop-color:#E664A5"/>
		<stop  offset="1" style="stop-color:#7A4A9D"/>
	</linearGradient>
	<path id="XMLID_13_" class="st14" d="M191.5,256.5c-4-4-9.4-6.3-15.1-6.3c-5.7,0-11,2.2-15.1,6.3l-5.5,5.5l-2.1,2.1l-44.5,44.5
		c-4,4-6.2,9.4-6.2,15.1s2.2,11,6.2,15.1c4.2,4.2,9.6,6.2,15.1,6.2c5.5,0,10.9-2.1,15.1-6.2l52.1-52.1c4-4,6.3-9.4,6.3-15.1
		C197.8,265.9,195.5,260.5,191.5,256.5z M137.3,336.6c-7.1,7.1-18.8,7.1-25.9,0c-3.5-3.5-5.4-8.1-5.4-12.9c0-4.9,1.9-9.5,5.4-13
		l44.5-44.5l2.1-2.1l5.5-5.5c3.5-3.5,8.1-5.4,13-5.4c4.9,0,9.5,1.9,13,5.4c3.5,3.5,5.4,8,5.4,12.9c0,4.9-1.9,9.5-5.4,13L137.3,336.6
		z"/>
</g>
<linearGradient id="XMLID_32_" gradientUnits="userSpaceOnUse" x1="537.8065" y1="361.482" x2="183.2869" y2="32.4251">
	<stop  offset="0" style="stop-color:#F38546"/>
	<stop  offset="0.5" style="stop-color:#E664A5"/>
	<stop  offset="1" style="stop-color:#7A4A9D"/>
</linearGradient>
<polygon id="XMLID_7_" class="st15" points="325.9,256.7 323.7,254.6 419,159.3 421.2,161.4 "/>
<linearGradient id="XMLID_33_" gradientUnits="userSpaceOnUse" x1="549.2327" y1="349.1716" x2="194.7131" y2="20.1147">
	<stop  offset="0" style="stop-color:#F38546"/>
	<stop  offset="0.5" style="stop-color:#E664A5"/>
	<stop  offset="1" style="stop-color:#7A4A9D"/>
</linearGradient>
<path id="XMLID_26_" class="st16" d="M345.7,92c0.6,0.6,0.6,1.5,0,2.1l-69,69l-0.7,0.7l-1-1l-1.1-1l0,0l0.7-0.7l4.4-4.4l0,0l2.3-2.3
	L343.6,92C344.2,91.5,345.1,91.5,345.7,92L345.7,92z"/>
</svg>
