<?xml version="1.0" encoding="utf-8"?>
<!-- Generator: Adobe Illustrator 19.0.0, SVG Export Plug-In . SVG Version: 6.00 Build 0)  -->
<svg version="1.1" id="Capa_1" xmlns="http://www.w3.org/2000/svg" xmlns:xlink="http://www.w3.org/1999/xlink" x="0px" y="0px"
	 viewBox="-569 371 60 60" style="enable-background:new -569 371 60 60;" xml:space="preserve">
<style type="text/css">
	.st0{fill:#0600FF;}
</style>
<path class="st0" d="M-509,401c0-13.1-8.4-24.3-20.2-28.3l0,0l-0.5-0.2c0,0-0.1,0-0.1,0c-0.6-0.2-1.2-0.4-1.9-0.5c0,0,0,0-0.1,0
	c-0.6-0.2-1.3-0.3-1.9-0.4c-0.1,0-0.1,0-0.2,0c-1.3-0.2-2.7-0.4-4-0.4c-0.1,0-0.1,0-0.2,0c-0.3,0-0.6,0-0.9,0c-0.3,0-0.6,0-0.9,0
	c-0.1,0-0.1,0-0.2,0c-1.3,0-2.6,0.2-3.9,0.4c-0.1,0-0.2,0-0.4,0.1c-0.6,0.1-1.1,0.2-1.6,0.3c-0.1,0-0.1,0-0.2,0l-0.6,0.2l0,0
	c-12.7,3.5-22.1,15.1-22.1,28.9c0,13.6,9,25,21.4,28.7l0,0l0.7,0.2c0,0,0.1,0,0.1,0c1.2,0.3,2.4,0.6,3.7,0.7c0.1,0,0.3,0,0.4,0
	c0.5,0.1,1,0.1,1.5,0.1c0.2,0,0.3,0,0.5,0c0.6,0,1.2,0.1,1.8,0.1c0.6,0,1.2,0,1.9-0.1c0.2,0,0.3,0,0.5,0c0.5,0,1-0.1,1.5-0.2
	c0.1,0,0.2,0,0.3,0c1.3-0.2,2.6-0.4,3.8-0.8c0,0,0.1,0,0.1,0l0.7-0.2l0,0C-518,426-509,414.5-509,401z M-527.8,401.3
	c2.8,1.5,4.6,4.4,4.8,7.5c0.2,2.7-0.9,5.4-2.9,7.3c-3.5,3.3-5.8,7.6-6.3,12.1c-0.5,0.1-1.1,0.3-1.6,0.4c-0.1,0-0.1,0-0.2,0
	c-0.5,0.1-1,0.2-1.4,0.2c-0.1,0-0.2,0-0.3,0c-0.5,0.1-1,0.1-1.5,0.1c-0.1,0-0.1,0-0.2,0c-1.1,0.1-2.2,0.1-3.4,0c0,0,0,0,0,0
	c-0.5,0-1-0.1-1.6-0.1c-0.1,0-0.2,0-0.3,0c-0.5-0.1-0.9-0.1-1.3-0.2c-0.1,0-0.2,0-0.3-0.1c-0.5-0.1-0.9-0.2-1.4-0.3
	c-0.1,0-0.1,0-0.2,0c-0.5-4.5-2.7-8.8-6.3-12.2c-2-1.9-3-4.5-2.9-7.3c0.2-3.4,2.4-6.5,5.5-7.9c0,0,0.1,0,0.1,0.1
	c0.1,0.1,0.3,0.1,0.5,0.2c0.1,0.1,0.3,0.1,0.4,0.1c0.1,0,0.3,0.1,0.4,0.1c0.2,0,0.3,0.1,0.5,0.1c0.1,0,0.2,0.1,0.4,0.1
	c0.3,0.1,0.6,0.1,0.9,0.1c1.4,0.2,2.8,0.1,4.2-0.3c0.4-0.1,0.8-0.2,1.2-0.3c0.1,0,0.1,0,0.2,0c0.4-0.1,0.7-0.1,1.1-0.1
	c0,0,0,0,0.1,0c0.7,0,1.3,0,2-0.1c0,0,0,0,0,0c0.5,0,1.1,0.1,1.6,0.1c0.1,0,0.1,0,0.2,0c0.5,0.1,1,0.2,1.5,0.3
	c0.4,0.1,0.8,0.2,1.3,0.3c0.1,0,0.2,0,0.4,0c0.3,0,0.7,0.1,1,0.1c0.1,0,0.1,0,0.2,0c0,0,0.1,0,0.1,0c0.4,0,0.8,0,1.2-0.1
	c0.4,0,0.7-0.1,1.1-0.2c0.1,0,0.1,0,0.2,0C-528.4,401.5-528.1,401.4-527.8,401.3C-527.8,401.3-527.8,401.3-527.8,401.3z
	 M-527.8,399.2l-0.2,0.1c-0.3,0.1-0.7,0.2-1,0.3c-0.1,0-0.1,0-0.2,0c-0.3,0.1-0.7,0.1-1,0.2c-1.2,0.1-2.3,0-3.4-0.3
	c-0.6-0.2-1.2-0.3-1.8-0.4c-0.1,0-0.1,0-0.2,0c-0.6-0.1-1.2-0.1-1.8-0.2c0,0,0,0-0.1,0l-0.1,0l0,0c-0.2,0-0.3,0-0.5,0
	c-0.5,0-1,0-1.4,0.1l0,0l-0.1,0c0,0-0.1,0-0.1,0c-0.4,0-0.8,0.1-1.2,0.2c-0.1,0-0.2,0-0.2,0c-0.4,0.1-0.9,0.2-1.3,0.3
	c-1.1,0.3-2.3,0.4-3.4,0.3c-0.3,0-0.5-0.1-0.8-0.1c-0.2,0-0.3-0.1-0.5-0.1c-0.1,0-0.2,0-0.2-0.1c-0.2-0.1-0.5-0.2-0.7-0.2
	c0,0,0,0,0,0c-0.2-0.1-0.5-0.2-0.7-0.3l-0.2-0.1c-2.8-1.5-4.8-4.3-5-7.6c-0.2-2.7,0.9-5.4,2.9-7.3c3.1-2.9,5.1-6.4,6-10.3
	c0.1,0,0.1,0,0.2,0c0.5-0.1,1-0.2,1.5-0.3c0,0,0.1,0,0.1,0c0.6-0.1,1.2-0.2,1.7-0.2c0.1,0,0.1,0,0.2,0c0.5,0,1-0.1,1.5-0.1
	c0.1,0,0.2,0,0.3,0c0.5,0,1,0,1.5,0c0.1,0,0.2,0,0.2,0c1.2,0,2.3,0.2,3.5,0.3c0.1,0,0.1,0,0.2,0c0.5,0.1,1,0.2,1.5,0.3
	c0.1,0,0.2,0.1,0.3,0.1c0.5,0.1,1,0.2,1.4,0.4c0.1,0,0.1,0,0.2,0c0.9,3.7,2.9,7,5.9,9.8c2,1.9,3,4.5,2.9,7.3
	C-522.3,394.8-524.6,397.8-527.8,399.2z M-567,401c0-12.5,8.3-23.1,19.6-26.7c-0.9,3.1-2.6,5.9-5.1,8.2c-2.4,2.3-3.7,5.5-3.5,8.8
	c0.2,3.4,2,6.5,4.6,8.4c-3.2,1.9-5.3,5.2-5.5,8.9c-0.2,3.3,1.1,6.6,3.5,8.8c3,2.8,4.9,6.3,5.5,10.1C-559,423.9-567,413.4-567,401z
	 M-530,427.5c0.6-3.7,2.6-7.2,5.5-10c2.4-2.3,3.7-5.5,3.5-8.8c-0.2-3.4-1.9-6.4-4.7-8.4c3.1-1.9,5.3-5.2,5.5-8.9
	c0.2-3.3-1.1-6.6-3.5-8.8c-2.3-2.1-3.9-4.7-4.9-7.5c10.3,4.2,17.5,14.2,17.5,26C-511,413.3-519,423.8-530,427.5z"/>
</svg>
