<?xml version="1.0" encoding="utf-8"?>
<!-- Generator: Adobe Illustrator 19.0.0, SVG Export Plug-In . SVG Version: 6.00 Build 0)  -->
<svg version="1.1" id="Layer_1" xmlns="http://www.w3.org/2000/svg" xmlns:xlink="http://www.w3.org/1999/xlink" x="0px" y="0px"
	 viewBox="-49 141 512 512" style="enable-background:new -49 141 512 512;" xml:space="preserve">
<style type="text/css">
	.st0{fill:#3B2E8A;}
</style>
<g>
	<g>
		<path class="st0" d="M415.7,175.8H215.2v-4.9c0-16.5-13.4-29.9-29.9-29.9h-34.8c-16.5,0-29.9,13.4-29.9,29.9v4.9H72.2
			c-4.5,0-8.2,3.7-8.2,8.2v65.8H-1.7c-4.5,0-8.2,3.7-8.2,8.2v304.4c0,0.3,0,0.5,0,0.8c0,0.1,0,0.2,0,0.3c0,0.2,0,0.3,0.1,0.5
			c0,0.1,0.1,0.3,0.1,0.4c0,0.1,0.1,0.3,0.1,0.4c0,0.1,0.1,0.2,0.1,0.4c0,0.1,0.1,0.3,0.1,0.4c0,0.1,0.1,0.2,0.2,0.3
			c0.1,0.1,0.1,0.3,0.2,0.4c0.1,0.1,0.1,0.2,0.2,0.3c0.1,0.1,0.1,0.3,0.2,0.4c0.1,0.1,0.2,0.2,0.2,0.3c0.1,0.1,0.1,0.2,0.2,0.3
			c0.2,0.2,0.3,0.4,0.5,0.6c0,0,0,0,0,0l82.6,82.6c0,0,0,0,0,0c0.2,0.2,0.4,0.3,0.6,0.5c0.1,0.1,0.2,0.1,0.3,0.2
			c0.1,0.1,0.2,0.2,0.4,0.3c0.1,0.1,0.2,0.1,0.3,0.2c0.1,0.1,0.2,0.1,0.3,0.2c0.1,0.1,0.2,0.1,0.4,0.2c0.1,0.1,0.2,0.1,0.4,0.2
			c0.1,0,0.2,0.1,0.4,0.1c0.1,0,0.3,0.1,0.4,0.1c0.1,0,0.2,0.1,0.4,0.1c0.1,0,0.3,0.1,0.4,0.1c0.1,0,0.3,0,0.4,0.1
			c0.1,0,0.2,0,0.4,0.1c0.3,0,0.5,0,0.8,0h239.2c4.5,0,8.2-3.7,8.2-8.2v-35.3h87.5c4.5,0,8.2-3.6,8.2-8.2V183.9
			C423.9,179.4,420.2,175.8,415.7,175.8z M136.9,170.9c0-7.5,6.1-13.6,13.6-13.6h34.8c7.5,0,13.6,6.1,13.6,13.6v4.9h-62L136.9,170.9
			L136.9,170.9z M136.9,266h40.2v40.2h-40.2L136.9,266L136.9,266z M174.4,322.5c-2.5,3.3-6.4,5.4-10.8,5.4h-13
			c-4.4,0-8.4-2.1-10.8-5.4H174.4z M80.4,192.1h40.2v57.6H80.4V192.1z M72.8,601.4v23.8L18,570.4h54.2h0.5V601.4z M311.9,601.4v35.3
			H89.1v-35.3v-39.1c0-4.5-3.6-8.2-8.2-8.2h-8.7H6.4V266h65.8h48.4v40.2H72.2H54.8c-4.5,0-8.2,3.6-8.2,8.2c0,4.5,3.6,8.2,8.2,8.2
			h17.4h49.5c3.6,12.5,15.1,21.7,28.8,21.7h13c13.7,0,25.2-9.2,28.8-21.7h75.6c4.5,0,8.2-3.6,8.2-8.2c0-4.5-3.6-8.2-8.2-8.2h-74.5
			V266h118.5L311.9,601.4L311.9,601.4z M407.6,593.2h-79.4V257.9c0-4.5-3.6-8.2-8.2-8.2H193.4V210c0-4.5-3.6-8.2-8.2-8.2
			s-8.2,3.6-8.2,8.2v39.7h-40.2v-57.6h270.7L407.6,593.2L407.6,593.2z"/>
	</g>
</g>
<g>
	<g>
		<path class="st0" d="M267.9,375.8H72.2H54.8c-4.5,0-8.2,3.7-8.2,8.2s3.6,8.2,8.2,8.2h17.4h195.7c4.5,0,8.2-3.7,8.2-8.2
			S272.4,375.8,267.9,375.8z"/>
	</g>
</g>
<g>
	<g>
		<path class="st0" d="M267.9,445.4H72.2H54.8c-4.5,0-8.2,3.6-8.2,8.2s3.6,8.2,8.2,8.2h17.4h195.7c4.5,0,8.2-3.6,8.2-8.2
			S272.4,445.4,267.9,445.4z"/>
	</g>
</g>
<g>
	<g>
		<path class="st0" d="M267.9,514.9H72.2H54.8c-4.5,0-8.2,3.6-8.2,8.2c0,4.5,3.6,8.2,8.2,8.2h17.4h195.7c4.5,0,8.2-3.6,8.2-8.2
			S272.4,514.9,267.9,514.9z"/>
	</g>
</g>
</svg>
