<?xml version="1.0" encoding="utf-8"?>
<!-- Generator: Adobe Illustrator 19.0.0, SVG Export Plug-In . SVG Version: 6.00 Build 0)  -->
<svg version="1.1" id="Capa_1" xmlns="http://www.w3.org/2000/svg" xmlns:xlink="http://www.w3.org/1999/xlink" x="0px" y="0px"
	 viewBox="-569 371.5 59.5 59.5" style="enable-background:new -569 371.5 59.5 59.5;" xml:space="preserve">
<style type="text/css">
	.st0{fill:#FF0000;}
</style>
<g>
	<path class="st0" d="M-513.7,394.2c-0.8-1.2-1.2-3.8-1.1-5.4c0.2-3.7-1.7-7.4-4.8-8.9c-0.6-0.3-1.1-0.5-1.6-0.6
		c-0.8-0.2-1.1-0.3-1.4-1c-1.6-3.3-3.4-3.8-6.7-3.6c-0.3,0.1-0.7-0.5-1.2-0.9c-0.7-0.8-1.7-1.9-3.3-2l-0.5,0c-2.1,0-3.9,0.7-5,1.8
		c-0.5-0.6-1.2-1.1-1.9-1.4c-1.3-0.7-2.6-0.8-3.4-0.3c-1.6,0.3-2.6,1.3-3.3,2c-0.6,0.6-0.9,0.9-1.3,0.9c-3.4-0.2-5.1,0.2-6.7,3.6
		c-0.3,0.6-0.6,0.7-1.4,1c-0.5,0.1-1,0.3-1.6,0.6c-3,1.6-5,5.2-4.8,8.9c0.1,1.6-0.3,4.2-1.1,5.4c-1.9,3-1.9,7.1,0,10.1
		c0.3,0.5,0.7,1,1.2,1.6c0.9,1.1,2.4,2.9,2.3,3.8c-0.2,3.7,2.1,8,5.1,9.6c0.5,0.3,0.6,0.6,0.8,1.4c0.1,0.5,0.3,1.1,0.6,1.7
		c0.8,1.7,2.1,2.2,3.1,2.6c0.9,0.4,1.3,0.5,1.5,1.5c0.5,3.3,2.6,4.5,4.5,4.5c0.1,0,0.2,0,0.3,0c2.4-0.2,4.8-2,6.2-4.8
		c1.3,2.8,3.8,4.6,6.2,4.8c0.1,0,0.2,0,0.3,0c1.9,0,4-1.2,4.5-4.5c0.1-1,0.5-1.2,1.5-1.5c0.9-0.4,2.2-0.9,3.1-2.6
		c0.3-0.6,0.4-1.2,0.6-1.7c0.2-0.9,0.3-1.1,0.8-1.4c3-1.6,5.3-5.9,5.1-9.6c-0.1-0.8,1.4-2.7,2.3-3.8c0.5-0.6,0.9-1.2,1.2-1.6
		C-511.8,401.3-511.8,397.2-513.7,394.2z M-545.6,429c-1.5,0.1-2.4-0.9-2.7-2.8c-0.3-2.2-1.7-2.7-2.7-3.1c-0.8-0.3-1.5-0.6-2-1.6
		c-0.2-0.4-0.3-0.9-0.4-1.3c0,0,0,0,0,0c0.1-0.1,0.1-0.3,0.1-0.5c0-2.8,2.2-5,5-5c0.6,0,1-0.4,1-1c0-0.6-0.4-1-1-1
		c-3.1,0-5.8,2.1-6.7,4.9c-0.1-0.1-0.2-0.1-0.3-0.2c-2.3-1.2-4.2-4.8-4-7.7c0.1-1.6-1.4-3.5-2.8-5.2c-0.4-0.5-0.9-1.1-1.1-1.4
		c-1.5-2.3-1.5-5.6,0-7.9c1-1.6,1.5-4.6,1.4-6.6c-0.2-2.9,1.4-5.9,3.7-7.1c0.4-0.2,0.8-0.3,1.2-0.4c0.4-0.1,0.9-0.3,1.3-0.5
		c0.1,0,0.2,0,0.2,0c2.2,0,4,1.8,4,4c0,0.6,0.4,1,1,1s1-0.4,1-1c0-2.9-2-5.3-4.7-5.9c0.9-1.7,1.7-2.2,3.4-2.2c0.4,0,0.8,0,1.2,0
		c1.2,0.1,2.1-0.7,2.8-1.5c0.7-0.7,1.4-1.3,2.4-1.5l0.3-0.1l0.2-0.1c0.2-0.1,0.7-0.1,1.5,0.4c1.1,0.6,1.9,1.5,1.9,1.8v8.1
		c-3.9,0.5-7,3.9-7,7.9c0,3.3-2.7,6-6,6c-0.6,0-1,0.4-1,1c0,0.6,0.4,1,1,1c4.4,0,8-3.6,8-8c0-3,2.2-5.4,5-5.9v35.9
		C-540.3,426.2-543.4,428.8-545.6,429z M-515.4,403.2c-0.2,0.4-0.7,0.9-1.1,1.4c-0.4,0.5-0.8,1-1.2,1.5c-1.1-3.2-4.1-5.4-7.6-5.4
		c-3.3,0-6-2.7-6-6c0-0.6-0.4-1-1-1c-0.6,0-1,0.4-1,1c0,4.4,3.6,8,8,8c3.3,0,6,2.7,6,6c0,0.1,0,0.2,0.1,0.3c0,0.2-0.1,0.5-0.1,0.7
		c0.2,2.9-1.7,6.5-4,7.7c-0.1,0.1-0.2,0.1-0.3,0.2c-0.9-2.9-3.5-4.9-6.7-4.9c-0.6,0-1,0.4-1,1s0.4,1,1,1c2.8,0,5,2.2,5,5
		c0,0.2,0.1,0.3,0.1,0.5c0,0,0,0,0,0c-0.1,0.4-0.2,0.9-0.4,1.3c-0.5,1-1.1,1.2-2,1.6c-1,0.4-2.4,0.9-2.7,3.1
		c-0.3,1.9-1.2,2.9-2.7,2.8c-2.2-0.1-5.3-2.8-5.3-7.2v-46c0-0.8,1.5-1.8,3.5-2l0.5,0c0.9,0,1.5,0.5,2.3,1.4c0.7,0.8,1.5,1.6,2.8,1.5
		c2.7-0.2,3.6,0,4.7,2.2c-2.1,0.6-3.7,2.5-3.7,4.8c0,0.6,0.4,1,1,1c0.6,0,1-0.4,1-1c0-1.7,1.3-3,3-3c0.1,0,0.2,0,0.2,0
		c0.4,0.2,0.9,0.4,1.3,0.5c0.4,0.1,0.8,0.2,1.2,0.4c2.3,1.2,3.9,4.2,3.7,7.1c-0.1,2,0.4,5,1.4,6.6
		C-513.9,397.6-513.9,400.9-515.4,403.2z"/>
	<path class="st0" d="M-542.7,399.4c-0.4-0.4-1-0.4-1.4,0c-1.4,1.4-2.1,3.2-2.1,5.1c0,1.6,0.5,3.2,1.5,4.4c-1,1.3-1.5,2.8-1.5,4.4
		c0,1.9,0.8,3.8,2.1,5.1c0.2,0.2,0.5,0.3,0.7,0.3c0.3,0,0.5-0.1,0.7-0.3c0.4-0.4,0.4-1,0-1.4c-1-1-1.5-2.3-1.5-3.7
		c0-1.4,0.5-2.7,1.5-3.7c0.4-0.4,0.4-1,0-1.4c-1-1-1.5-2.3-1.5-3.7c0-1.4,0.5-2.7,1.5-3.7C-542.3,400.4-542.3,399.8-542.7,399.4z"/>
	<path class="st0" d="M-534.5,402.7c-0.4,0.4-0.4,1,0,1.4c1.9,1.9,1.9,4.9,0,6.7c-1.3,1.3-2,3-2,4.8s0.7,3.5,2,4.8
		c0.2,0.2,0.5,0.3,0.7,0.3c0.3,0,0.5-0.1,0.7-0.3c0.4-0.4,0.4-1,0-1.4c-0.9-0.9-1.4-2.1-1.4-3.4s0.5-2.5,1.4-3.4
		c2.6-2.6,2.6-6.9,0-9.6C-533.4,402.3-534.1,402.3-534.5,402.7z"/>
	<path class="st0" d="M-521.4,393.2c-2.6,0.5-5.1-1.3-5.5-3.9c-0.3-1.8-1.3-3.3-2.8-4.4c-1.5-1-3.3-1.4-5.1-1.1
		c-0.5,0.1-0.9,0.6-0.8,1.2c0.1,0.5,0.6,0.9,1.2,0.8c1.3-0.2,2.5,0.1,3.6,0.8c1,0.7,1.7,1.8,2,3.1c0.6,3.3,3.4,5.6,6.7,5.6
		c0.4,0,0.8,0,1.2-0.1c0.5-0.1,0.9-0.6,0.8-1.2S-520.9,393.1-521.4,393.2z"/>
	<path class="st0" d="M-555.4,394.3c1.6,0,3.2-1,3.8-2.6c0.2-0.5-0.1-1.1-0.6-1.3c-0.5-0.2-1.1,0.1-1.3,0.6
		c-0.4,1.1-1.6,1.6-2.6,1.2c-2.1-0.8-4.4,0.3-5.2,2.4c-0.2,0.5,0.1,1.1,0.6,1.3c0.1,0,0.2,0.1,0.3,0.1c0.4,0,0.8-0.3,0.9-0.7
		c0.4-1.1,1.6-1.6,2.6-1.2C-556.3,394.2-555.9,394.3-555.4,394.3z"/>
	<path class="st0" d="M-552.2,409.6c-1.1-0.4-1.6-1.6-1.2-2.6v0c0.8-2.1-0.3-4.4-2.4-5.2c-0.5-0.2-1.1,0.1-1.3,0.6
		c-0.2,0.5,0.1,1.1,0.6,1.3c1.1,0.4,1.6,1.6,1.2,2.6c0,0,0,0,0,0c-0.8,2.1,0.3,4.4,2.4,5.2c0.1,0,0.2,0.1,0.3,0.1
		c0.4,0,0.8-0.3,0.9-0.7C-551.4,410.4-551.7,409.8-552.2,409.6z"/>
</g>
</svg>
