<?xml version="1.0" encoding="iso-8859-1"?>
<!-- Generator: Adobe Illustrator 19.0.0, SVG Export Plug-In . SVG Version: 6.00 Build 0)  -->
<svg version="1.1" id="Capa_1" xmlns="http://www.w3.org/2000/svg" xmlns:xlink="http://www.w3.org/1999/xlink" x="0px" y="0px"
	 viewBox="0 0 512 512" style="enable-background:new 0 0 512 512;" xml:space="preserve">
<g>
	
		<linearGradient id="SVGID_1_" gradientUnits="userSpaceOnUse" x1="-43.0078" y1="606.7109" x2="16.6222" y2="606.7109" gradientTransform="matrix(8.5333 0 0 -8.5333 369.1334 5433.2671)">
		<stop  offset="0" style="stop-color:#FC4A1A"/>
		<stop  offset="1" style="stop-color:#F7B733"/>
	</linearGradient>
	<path style="fill:url(#SVGID_1_);" d="M366.933,0H145.067C64.947,0,0,64.947,0,145.067v8.533h18.005
		c-23.543,23.108-23.902,60.928-0.794,84.471c4.42,4.506,9.532,8.277,15.13,11.187c-32,19.942-41.771,62.046-21.837,94.046
		c3.507,5.623,7.817,10.709,12.791,15.095H0v8.533C0,447.053,64.947,512,145.067,512l0,0h221.867
		C447.053,512,512,447.053,512,366.933l0,0V358.4h-23.296c28.279-24.934,30.993-68.079,6.05-96.35
		c-4.386-4.975-9.472-9.284-15.095-12.791c29.286-15.189,40.713-51.243,25.523-80.529c-2.91-5.598-6.682-10.709-11.187-15.13H512
		v-8.533C512,64.947,447.053,0,366.933,0z M494.933,375.467c-4.497,67.337-60.51,119.62-128,119.467H145.067
		c-67.49,0.154-123.503-52.13-128-119.467H494.933z M494.933,307.2c0,28.279-22.921,51.2-51.2,51.2H68.267
		c-28.279,0-51.2-22.921-51.2-51.2c0-28.279,22.921-51.2,51.2-51.2h375.467C472.013,256,494.933,278.921,494.933,307.2z
		 M452.267,238.933H59.733c-23.561,0-42.667-19.106-42.667-42.667c0.034-2.577,0.29-5.146,0.768-7.68
		c9.984,2.167,19.149,7.108,26.453,14.251c25.941,25.387,67.413,25.387,93.355,0c19.285-19.772,50.944-20.164,70.716-0.879
		c0.299,0.29,0.589,0.58,0.879,0.879c25.941,25.387,67.413,25.387,93.355,0c19.328-19.797,51.038-20.173,70.835-0.845
		c0.282,0.282,0.572,0.563,0.845,0.845c25.941,25.387,67.413,25.387,93.355,0c7.339-7.142,16.529-12.083,26.539-14.251
		c0.478,2.534,0.734,5.103,0.768,7.68C494.933,219.827,475.827,238.933,452.267,238.933z M487.595,172.373
		c-11.511,3.072-22.093,8.934-30.805,17.067c-19.328,19.797-51.038,20.173-70.835,0.845c-0.282-0.282-0.572-0.563-0.845-0.845
		c-25.941-25.387-67.413-25.387-93.355,0c-19.285,19.772-50.944,20.164-70.716,0.879c-0.299-0.29-0.589-0.58-0.879-0.879
		c-25.941-25.387-67.413-25.387-93.355,0c-19.285,19.772-50.944,20.164-70.716,0.879c-0.299-0.29-0.589-0.58-0.879-0.879
		c-8.738-8.09-19.311-13.952-30.805-17.067c7.927-11.733,21.163-18.765,35.328-18.773h392.533
		C466.432,153.609,479.667,160.64,487.595,172.373z M17.067,136.533c4.497-67.337,60.51-119.62,128-119.467h221.867
		c67.49-0.154,123.503,52.13,128,119.467H17.067z"/>
	
		<linearGradient id="SVGID_2_" gradientUnits="userSpaceOnUse" x1="-43.0078" y1="631.7109" x2="16.6222" y2="631.7109" gradientTransform="matrix(8.5333 0 0 -8.5333 369.1334 5433.2671)">
		<stop  offset="0" style="stop-color:#FC4A1A"/>
		<stop  offset="1" style="stop-color:#F7B733"/>
	</linearGradient>
	<path style="fill:url(#SVGID_2_);" d="M273.067,34.133h-34.133c-4.71,0-8.533,3.823-8.533,8.533s3.823,8.533,8.533,8.533h34.133
		c4.71,0,8.533-3.823,8.533-8.533S277.777,34.133,273.067,34.133z"/>
	
		<linearGradient id="SVGID_3_" gradientUnits="userSpaceOnUse" x1="-43.0078" y1="631.7109" x2="16.6222" y2="631.7109" gradientTransform="matrix(8.5333 0 0 -8.5333 369.1334 5433.2671)">
		<stop  offset="0" style="stop-color:#FC4A1A"/>
		<stop  offset="1" style="stop-color:#F7B733"/>
	</linearGradient>
	<path style="fill:url(#SVGID_3_);" d="M136.533,34.133h-17.067c-4.71,0-8.533,3.823-8.533,8.533s3.823,8.533,8.533,8.533h17.067
		c4.71,0,8.533-3.823,8.533-8.533S141.244,34.133,136.533,34.133z"/>
	
		<linearGradient id="SVGID_4_" gradientUnits="userSpaceOnUse" x1="-43.0078" y1="631.7109" x2="16.6222" y2="631.7109" gradientTransform="matrix(8.5333 0 0 -8.5333 369.1334 5433.2671)">
		<stop  offset="0" style="stop-color:#FC4A1A"/>
		<stop  offset="1" style="stop-color:#F7B733"/>
	</linearGradient>
	<path style="fill:url(#SVGID_4_);" d="M392.533,34.133h-17.067c-4.71,0-8.533,3.823-8.533,8.533s3.823,8.533,8.533,8.533h17.067
		c4.71,0,8.533-3.823,8.533-8.533S397.244,34.133,392.533,34.133z"/>
	
		<linearGradient id="SVGID_5_" gradientUnits="userSpaceOnUse" x1="-43.0078" y1="628.7109" x2="16.6222" y2="628.7109" gradientTransform="matrix(8.5333 0 0 -8.5333 369.1334 5433.2671)">
		<stop  offset="0" style="stop-color:#FC4A1A"/>
		<stop  offset="1" style="stop-color:#F7B733"/>
	</linearGradient>
	<path style="fill:url(#SVGID_5_);" d="M204.8,59.733h-34.133c-4.71,0-8.533,3.823-8.533,8.533s3.823,8.533,8.533,8.533H204.8
		c4.71,0,8.533-3.823,8.533-8.533S209.51,59.733,204.8,59.733z"/>
	
		<linearGradient id="SVGID_6_" gradientUnits="userSpaceOnUse" x1="-43.0078" y1="628.7109" x2="16.6222" y2="628.7109" gradientTransform="matrix(8.5333 0 0 -8.5333 369.1334 5433.2671)">
		<stop  offset="0" style="stop-color:#FC4A1A"/>
		<stop  offset="1" style="stop-color:#F7B733"/>
	</linearGradient>
	<path style="fill:url(#SVGID_6_);" d="M341.333,59.733H307.2c-4.71,0-8.533,3.823-8.533,8.533S302.49,76.8,307.2,76.8h34.133
		c4.71,0,8.533-3.823,8.533-8.533S346.044,59.733,341.333,59.733z"/>
</g>
<linearGradient id="SVGID_7_" gradientUnits="userSpaceOnUse" x1="-43.0168" y1="602.7025" x2="16.6132" y2="602.7025" gradientTransform="matrix(8.5333 0 0 -8.5333 369.1334 5433.2671)">
	<stop  offset="0" style="stop-color:#FC4A1A"/>
	<stop  offset="1" style="stop-color:#F7B733"/>
</linearGradient>
<polygon style="fill:url(#SVGID_7_);" points="53.7,287.701 65.766,275.635 82.842,292.71 70.775,304.777 "/>
<linearGradient id="SVGID_8_" gradientUnits="userSpaceOnUse" x1="-43.0048" y1="598.7169" x2="16.6252" y2="598.7169" gradientTransform="matrix(8.5333 0 0 -8.5333 369.1334 5433.2671)">
	<stop  offset="0" style="stop-color:#FC4A1A"/>
	<stop  offset="1" style="stop-color:#F7B733"/>
</linearGradient>
<polygon style="fill:url(#SVGID_8_);" points="96.401,326.724 113.476,309.641 125.542,321.715 108.467,338.79 "/>
<linearGradient id="SVGID_9_" gradientUnits="userSpaceOnUse" x1="-43.0138" y1="602.7034" x2="16.6162" y2="602.7034" gradientTransform="matrix(8.5333 0 0 -8.5333 369.1334 5433.2671)">
	<stop  offset="0" style="stop-color:#FC4A1A"/>
	<stop  offset="1" style="stop-color:#F7B733"/>
</linearGradient>
<polygon style="fill:url(#SVGID_9_);" points="139.042,287.693 151.108,275.627 168.183,292.702 156.117,304.768 "/>
<linearGradient id="SVGID_10_" gradientUnits="userSpaceOnUse" x1="-43.0018" y1="598.718" x2="16.6282" y2="598.718" gradientTransform="matrix(8.5333 0 0 -8.5333 369.1334 5433.2671)">
	<stop  offset="0" style="stop-color:#FC4A1A"/>
	<stop  offset="1" style="stop-color:#F7B733"/>
</linearGradient>
<polygon style="fill:url(#SVGID_10_);" points="181.743,326.716 198.818,309.632 210.884,321.707 193.809,338.782 "/>
<linearGradient id="SVGID_11_" gradientUnits="userSpaceOnUse" x1="-43.0118" y1="602.7045" x2="16.6192" y2="602.7045" gradientTransform="matrix(8.5333 0 0 -8.5333 369.1334 5433.2671)">
	<stop  offset="0" style="stop-color:#FC4A1A"/>
	<stop  offset="1" style="stop-color:#F7B733"/>
</linearGradient>
<polygon style="fill:url(#SVGID_11_);" points="224.384,287.684 236.45,275.618 253.525,292.693 241.459,304.759 "/>
<linearGradient id="SVGID_12_" gradientUnits="userSpaceOnUse" x1="-42.9998" y1="598.7189" x2="16.6302" y2="598.7189" gradientTransform="matrix(8.5333 0 0 -8.5333 369.1334 5433.2671)">
	<stop  offset="0" style="stop-color:#FC4A1A"/>
	<stop  offset="1" style="stop-color:#F7B733"/>
</linearGradient>
<polygon style="fill:url(#SVGID_12_);" points="267.085,326.699 284.16,309.623 296.226,321.698 279.151,338.773 "/>
<linearGradient id="SVGID_13_" gradientUnits="userSpaceOnUse" x1="-43.0078" y1="602.7059" x2="16.6222" y2="602.7059" gradientTransform="matrix(8.5333 0 0 -8.5333 369.1334 5433.2671)">
	<stop  offset="0" style="stop-color:#FC4A1A"/>
	<stop  offset="1" style="stop-color:#F7B733"/>
</linearGradient>
<polygon style="fill:url(#SVGID_13_);" points="309.726,287.676 321.792,275.601 338.867,292.685 326.801,304.751 "/>
<linearGradient id="SVGID_14_" gradientUnits="userSpaceOnUse" x1="-43.0038" y1="598.71" x2="16.6262" y2="598.71" gradientTransform="matrix(8.5333 0 0 -8.5333 369.1334 5433.2671)">
	<stop  offset="0" style="stop-color:#FC4A1A"/>
	<stop  offset="1" style="stop-color:#F7B733"/>
</linearGradient>
<polygon style="fill:url(#SVGID_14_);" points="352.427,326.775 369.502,309.7 381.568,321.766 364.493,338.85 "/>
<linearGradient id="SVGID_15_" gradientUnits="userSpaceOnUse" x1="-43.0058" y1="602.7069" x2="16.6242" y2="602.7069" gradientTransform="matrix(8.5333 0 0 -8.5333 369.1334 5433.2671)">
	<stop  offset="0" style="stop-color:#FC4A1A"/>
	<stop  offset="1" style="stop-color:#F7B733"/>
</linearGradient>
<polygon style="fill:url(#SVGID_15_);" points="395.068,287.667 407.134,275.593 424.209,292.668 412.143,304.742 "/>
<linearGradient id="SVGID_16_" gradientUnits="userSpaceOnUse" x1="-43.0188" y1="598.7109" x2="16.6112" y2="598.7109" gradientTransform="matrix(8.5333 0 0 -8.5333 369.1334 5433.2671)">
	<stop  offset="0" style="stop-color:#FC4A1A"/>
	<stop  offset="1" style="stop-color:#F7B733"/>
</linearGradient>
<polygon style="fill:url(#SVGID_16_);" points="437.683,326.767 454.758,309.692 466.825,321.758 449.749,338.842 "/>
<g>
</g>
<g>
</g>
<g>
</g>
<g>
</g>
<g>
</g>
<g>
</g>
<g>
</g>
<g>
</g>
<g>
</g>
<g>
</g>
<g>
</g>
<g>
</g>
<g>
</g>
<g>
</g>
<g>
</g>
</svg>
