<?xml version="1.0" encoding="utf-8"?>
<!-- Generator: Adobe Illustrator 19.0.0, SVG Export Plug-In . SVG Version: 6.00 Build 0)  -->
<svg version="1.1" id="Layer_1" xmlns="http://www.w3.org/2000/svg" xmlns:xlink="http://www.w3.org/1999/xlink" x="0px" y="0px"
	 viewBox="-49 141 512 512" style="enable-background:new -49 141 512 512;" xml:space="preserve">
<style type="text/css">
	.st0{fill:#3B2E8A;}
</style>
<g>
	<g>
		<path class="st0" d="M370.8,288.7l26.5-26.5c3.1-3.1,3.1-8.1,0-11.2l-39-39c-1.5-1.5-3.5-2.3-5.6-2.3s-4.1,0.8-5.6,2.3l-33.6,33.6
			c-23.1-11.9-48.3-19.6-74.1-22.6v-32.2h17.5c4.4,0,8-3.6,8-7.9v-33.9c0-4.4-3.6-7.9-8-7.9H172c-4.4,0-7.9,3.6-7.9,7.9v33.9
			c0,4.4,3.6,7.9,7.9,7.9h17.5V223C82.2,235.4-1.3,326.8-1.3,437.3C-1.3,556.2,95.5,653,214.4,653s215.7-96.8,215.7-215.7
			C430.1,381.4,409.1,329,370.8,288.7z M352.7,228.9l27.7,27.7l-21,21c-9.8-8.9-20.4-16.9-31.6-23.8L352.7,228.9z M180,174.9v-18
			h68.9v18h-17.5h-33.9L180,174.9L180,174.9z M223.4,190.8v26.5h-18v-26.5H223.4z M214.4,637.1c-110.2,0-199.8-89.6-199.8-199.8
			s89.6-199.8,199.8-199.8c33.8,0,67.2,8.6,96.6,24.9c15.7,8.7,30.1,19.4,43,32c0,0,0,0,0,0c38.8,37.9,60.2,88.7,60.2,142.9
			C414.2,547.5,324.6,637.1,214.4,637.1z"/>
	</g>
</g>
<g>
	<g>
		<path class="st0" d="M214.4,382.7c-11.9,0-23.2,3.8-32.6,10.8l-30.9-30.9c17.7-15.1,39.9-23.3,63.5-23.3c4.4,0,8-3.6,8-7.9v-46.6
			c0-4.4-3.6-8-8-8c-9.5,0-19.1,0.8-28.4,2.5c0,0,0,0,0,0c-2.6,0.5-5.3,1-7.8,1.6c0,0,0,0,0,0c-9,2.1-17.8,4.9-26.2,8.5c0,0,0,0,0,0
			c-2.4,1-4.8,2.1-7.1,3.2c0,0,0,0,0,0c-2.3,1.1-4.6,2.3-6.9,3.5c0,0,0,0,0,0c-2.3,1.2-4.5,2.5-6.7,3.9c0,0,0,0,0,0
			c-1.1,0.7-2.2,1.4-3.3,2c0,0,0,0,0,0c-4.3,2.8-8.5,5.8-12.6,8.9c0,0,0,0,0,0c-3,2.4-6,4.9-8.8,7.5c-2.8,2.6-5.6,5.3-8.3,8.1
			c0,0,0,0,0,0c-1.8,1.9-3.5,3.8-5.2,5.7c-1.7,1.9-3.3,3.9-4.9,5.9c0,0,0,0,0,0c-1.6,2-3.1,4.1-4.6,6.2c0,0,0,0,0,0
			c-3,4.2-5.8,8.6-8.3,13c0,0,0,0,0,0c-2.6,4.5-5,9.1-7.1,13.9c0,0,0,0,0,0c-1.6,3.5-3.1,7.2-4.4,10.9c0,0,0,0,0,0
			c-0.4,1.2-0.9,2.5-1.3,3.7c0,0,0,0,0,0c-1.3,3.7-2.4,7.6-3.4,11.4c0,0,0,0,0,0c-0.3,1.3-0.6,2.6-0.9,3.9
			c-1.2,5.2-2.1,10.5-2.8,15.8c0,0,0,0,0,0c-0.5,4-0.9,8.1-1.1,12.2c-0.1,2.7-0.2,5.5-0.2,8.3c0,4.4,3.6,8,7.9,8h46.6
			c4.4,0,7.9-3.6,7.9-8c0-23.5,8.2-45.8,23.3-63.5l30.9,30.9c-7,9.4-10.8,20.7-10.8,32.6c0,30.1,24.5,54.6,54.6,54.6
			s54.6-24.5,54.6-54.6C269,407.2,244.5,382.7,214.4,382.7z M139.6,351.3l-12.9-12.9c-3.1-3.1-8.1-3.1-11.2,0
			c-3.1,3.1-3.1,8.1,0,11.2l12.9,12.9c-16.3,18.7-26,42-27.7,66.8H69.9c0.2-3.5,0.5-7,0.9-10.5c0,0,0,0,0,0
			c0.6-4.8,1.5-9.6,2.5-14.2c0.3-1.2,0.6-2.3,0.8-3.5c0,0,0,0,0,0c0.9-3.4,1.9-6.9,3-10.2c0,0,0,0,0,0c0.4-1.1,0.8-2.2,1.2-3.3
			c0,0,0,0,0,0c1.2-3.3,2.6-6.6,4-9.8c0,0,0,0,0,0c1.9-4.2,4.1-8.4,6.4-12.5v0c2.3-4,4.8-8,7.5-11.7c0,0,0,0,0,0
			c1.3-1.9,2.7-3.8,4.2-5.6c0,0,0,0,0,0c1.4-1.8,2.9-3.6,4.4-5.4c0.6-0.7,1.2-1.4,1.8-2.1c0.2-0.2,0.3-0.4,0.5-0.5
			c0.8-0.9,1.6-1.7,2.4-2.5c0,0,0,0,0,0c2.4-2.5,4.9-4.9,7.4-7.3c2.6-2.3,5.2-4.6,8-6.7c0,0,0,0,0,0c3.6-2.9,7.5-5.6,11.3-8.1
			c0,0,0,0,0,0c1-0.6,2-1.2,3-1.8l0,0c0,0,0,0,0,0c2-1.2,4-2.4,6.1-3.5c0,0,0,0,0,0c2-1.1,4.1-2.2,6.2-3.2c0,0,0,0,0,0
			c2.1-1,4.2-2,6.4-2.9c0,0,0,0,0,0c7.6-3.2,15.6-5.8,23.6-7.7c0,0,0,0,0,0c2.3-0.5,4.7-1,7.1-1.4c0,0,0,0,0,0
			c5.8-1,11.7-1.7,17.7-2v30.8C181.6,325.3,158.4,334.9,139.6,351.3z M214.4,476c-21.3,0-38.7-17.4-38.7-38.7
			c0-10.3,4-20.1,11.3-27.4c0,0,0,0,0,0c7.3-7.3,17-11.3,27.4-11.3c21.3,0,38.7,17.4,38.7,38.7S235.7,476,214.4,476z"/>
	</g>
</g>
<g>
	<g>
		<path class="st0" d="M137.1,199.1c-1.5-4.1-6-6.3-10.2-4.8c-35.8,12.9-67.8,33.2-95,60.5C12.8,273.8-3,295.5-15.2,319.2
			c-2,3.9-0.5,8.7,3.4,10.7c1.2,0.6,2.4,0.9,3.6,0.9c2.9,0,5.7-1.6,7.1-4.3c11.5-22.2,26.3-42.5,44.2-60.4
			c25.6-25.6,55.6-44.7,89.2-56.7C136.4,207.8,138.6,203.2,137.1,199.1z"/>
	</g>
</g>
<g>
	<g>
		<path class="st0" d="M85.7,180.7c-2.1-3.9-6.9-5.3-10.8-3.2c-33.7,18.4-63.2,42.7-87.8,72.3c-2.8,3.4-2.3,8.4,1,11.2
			c1.5,1.2,3.3,1.8,5.1,1.8c2.3,0,4.6-1,6.1-2.9c23.3-28.1,51.2-51.1,83.1-68.5C86.4,189.4,87.8,184.6,85.7,180.7z"/>
	</g>
</g>
</svg>
