<?xml version="1.0" encoding="utf-8"?>
<!-- Generator: Adobe Illustrator 19.0.0, SVG Export Plug-In . SVG Version: 6.00 Build 0)  -->
<svg version="1.1" id="Layer_1" xmlns="http://www.w3.org/2000/svg" xmlns:xlink="http://www.w3.org/1999/xlink" x="0px" y="0px"
	 viewBox="-49 141 512 512" style="enable-background:new -49 141 512 512;" xml:space="preserve">
<style type="text/css">
	.st0{fill:#3B2E8A;}
</style>
<g>
	<g>
		<path class="st0" d="M456.3,639.2L-30.9,152c-2.3-2.3-5.8-3-8.8-1.8c-3,1.3-5,4.2-5,7.5v487.2c0,4.5,3.6,8.1,8.1,8.1h64.7h64.7
			h64.7h64.7h64.7h64.7h99.2c3.3,0,6.2-2,7.5-5C459.3,645,458.6,641.5,456.3,639.2z M359.5,636.8L359.5,636.8v-26.4
			c0-4.5-3.6-8.1-8.1-8.1c-4.5,0-8.1,3.6-8.1,8.1v26.4h-48.5v-26.4c0-4.5-3.6-8.1-8.1-8.1c-4.5,0-8.1,3.6-8.1,8.1v26.4h-48.5v-26.4
			c0-4.5-3.6-8.1-8.1-8.1c-4.5,0-8.1,3.6-8.1,8.1v26.4h-48.5v-26.4c0-4.5-3.6-8.1-8.1-8.1s-8.1,3.6-8.1,8.1v26.4h-48.5v-26.4
			c0-4.5-3.6-8.1-8.1-8.1s-8.1,3.6-8.1,8.1v26.4H36.1v-26.4c0-4.5-3.6-8.1-8.1-8.1S20,606,20,610.4v26.4h-48.5V177.2l459.6,459.6
			L359.5,636.8L359.5,636.8z"/>
	</g>
</g>
<g>
	<g>
		<path class="st0" d="M301.1,574.5L33.8,308.1c-2.3-2.3-5.8-3-8.8-1.7s-5,4.2-5,7.5v266.4c0,4.5,3.6,8.1,8.1,8.1h267.3
			c3.3,0,6.2-2,7.5-5C304.1,580.3,303.4,576.8,301.1,574.5z M36.1,572.2V333.3l239.7,238.9H36.1z"/>
	</g>
</g>
<g>
	<g>
		<path class="st0" d="M132.9,358.9L12.2,238.2c-3.2-3.2-8.3-3.2-11.4,0c-3.2,3.2-3.2,8.3,0,11.4l120.7,120.7
			c1.6,1.6,3.6,2.4,5.7,2.4c2.1,0,4.1-0.8,5.7-2.4C136.1,367.2,136.1,362.1,132.9,358.9z"/>
	</g>
</g>
<g>
	<g>
		<path class="st0" d="M176.1,406.4l-21.6-21.6c-3.2-3.2-8.3-3.2-11.4,0c-3.2,3.2-3.2,8.3,0,11.4l21.6,21.6c1.6,1.6,3.6,2.4,5.7,2.4
			s4.1-0.8,5.7-2.4C179.2,414.6,179.2,409.5,176.1,406.4z"/>
	</g>
</g>
<g>
	<g>
		<path class="st0" d="M456.3,416.6l-61-61L208.8,169c0,0,0,0,0,0l0,0c0,0-0.1-0.1-0.1-0.1c-0.2-0.1-0.3-0.3-0.5-0.4
			c-0.1-0.1-0.1-0.1-0.2-0.2c-0.1-0.1-0.3-0.2-0.4-0.3c-0.1-0.1-0.2-0.1-0.3-0.2c-0.1-0.1-0.2-0.2-0.4-0.2c-0.1-0.1-0.3-0.1-0.4-0.2
			c-0.1-0.1-0.2-0.1-0.3-0.2c-0.2-0.1-0.3-0.1-0.5-0.2c-0.1,0-0.2-0.1-0.3-0.1c-0.2-0.1-0.4-0.1-0.6-0.2c-0.1,0-0.1,0-0.2,0l0,0
			c0,0,0,0,0,0L98,145.5c-0.3-0.1-0.6-0.1-0.9-0.1c0,0-0.1,0-0.1,0c-0.1,0-0.1,0-0.2,0c-0.1,0-0.3,0-0.4,0c-0.1,0-0.2,0-0.3,0
			c-0.1,0-0.2,0-0.2,0c0,0-0.1,0-0.1,0c0,0-0.1,0-0.1,0c-0.2,0-0.3,0-0.5,0.1c-0.1,0-0.1,0-0.2,0c-0.6,0.1-1.2,0.3-1.8,0.5
			c0,0-0.1,0-0.1,0.1c-0.2,0.1-0.3,0.1-0.5,0.2c-0.1,0-0.1,0.1-0.2,0.1c-0.1,0-0.1,0.1-0.2,0.1c-0.1,0.1-0.2,0.1-0.3,0.2
			c-0.1,0.1-0.2,0.1-0.3,0.2c0,0,0,0-0.1,0c-0.1,0-0.1,0.1-0.2,0.1c0,0-0.1,0.1-0.1,0.1c-0.1,0.1-0.1,0.1-0.2,0.2
			c-0.1,0.1-0.3,0.2-0.4,0.3c0,0-0.1,0.1-0.1,0.2c-0.1,0.1-0.3,0.3-0.4,0.4c0,0,0,0.1-0.1,0.1c0,0,0,0,0,0c0,0.1-0.1,0.1-0.1,0.2
			c-0.1,0.1-0.2,0.2-0.3,0.4c0,0,0,0,0,0c0,0.1-0.1,0.1-0.1,0.2c0,0.1-0.1,0.1-0.1,0.2c0,0.1-0.1,0.2-0.1,0.2c0,0,0,0,0,0.1
			c-0.1,0.1-0.1,0.2-0.2,0.4c0,0,0,0.1-0.1,0.1c0,0,0,0.1,0,0.1c-0.1,0.3-0.2,0.5-0.3,0.8c0,0,0,0,0,0c-0.1,0.3-0.1,0.6-0.2,0.8
			c0,0.1,0,0.2,0,0.2c0,0.2-0.1,0.3-0.1,0.5c0,0.1,0,0.2,0,0.2c0,0.1,0,0.2,0,0.3c0,0.1,0,0.2,0,0.3c0,0.1,0,0.3,0,0.4
			c0,0.1,0,0.2,0,0.2c0,0,0,0.1,0,0.1c0,0.3,0.1,0.6,0.1,0.9l21.3,106.6c0,0,0,0,0,0l0,0c0,0.2,0.1,0.3,0.1,0.5
			c0,0.2,0.1,0.3,0.1,0.5c0.1,0.2,0.1,0.3,0.2,0.5c0,0.1,0.1,0.2,0.1,0.3c0.1,0.1,0.1,0.3,0.2,0.4c0,0.1,0.1,0.2,0.1,0.3
			c0.1,0.1,0.2,0.3,0.2,0.4c0.1,0.1,0.1,0.2,0.2,0.2c0.1,0.1,0.2,0.3,0.3,0.4c0.1,0.1,0.1,0.1,0.2,0.2c0.1,0.1,0.2,0.3,0.4,0.4
			c0,0,0.1,0.1,0.1,0.1l186.6,186.6l61,61c1.6,1.6,3.6,2.4,5.7,2.4s4.1-0.8,5.7-2.4l85.4-85.4c1.5-1.5,2.4-3.6,2.4-5.7
			S457.8,418.1,456.3,416.6z M203,186.2l175.2,175.2l-16,16L187,202.2L203,186.2z M350.8,388.8l-19.1,19.1L156.5,232.6l9.5-9.5
			c0,0,0,0,0,0l9.5-9.5L350.8,388.8z M110.4,182.7l-3.8-19l5.3,1.1l13.7,2.7L110.4,182.7z M114.2,201.8l30.5-30.5l41.9,8.4l-32,32
			c0,0,0,0,0,0l-15.2,15.2c0,0,0,0,0,0l-16.8,16.8L114.2,201.8z M129.1,260.1l16-16l175.2,175.2l-16,16L129.1,260.1z M365.2,496.2
			l-49.5-49.5l21.7-21.7l52.2-52.2l49.5,49.5L365.2,496.2z"/>
	</g>
</g>
<g>
	<g>
		<path class="st0" d="M413.2,419.3l-21.6-21.6c-3.2-3.2-8.3-3.2-11.4,0c-3.2,3.2-3.2,8.3,0,11.4l21.6,21.6c1.6,1.6,3.6,2.4,5.7,2.4
			s4.1-0.8,5.7-2.4C416.4,427.6,416.4,422.5,413.2,419.3z"/>
	</g>
</g>
<g>
	<g>
		<path class="st0" d="M456.3,241.1l-61-61l-30.5-30.5c-11.6-11.6-30.4-11.6-41.9,0l-27.4,27.4c-11.6,11.6-11.6,30.4,0,41.9
			l30.5,30.5l61,61c1.5,1.5,3.6,2.4,5.7,2.4s4.2-0.9,5.7-2.4l57.9-57.9C459.5,249.4,459.5,244.3,456.3,241.1z M306.9,207.6
			c-5.3-5.3-5.3-13.8,0-19.1l27.4-27.4c5.3-5.3,13.8-5.3,19.1,0l24.8,24.8l-46.5,46.5L306.9,207.6z M392.7,293.3l-49.5-49.5
			l46.5-46.5l49.5,49.5L392.7,293.3z"/>
	</g>
</g>
<g>
	<g>
		<path class="st0" d="M419.7,241.1l-24.4-24.4c-3.2-3.2-8.3-3.2-11.4,0c-3.2,3.2-3.2,8.3,0,11.4l24.4,24.4c1.6,1.6,3.6,2.4,5.7,2.4
			s4.1-0.8,5.7-2.4C422.9,249.4,422.9,244.3,419.7,241.1z"/>
	</g>
</g>
</svg>
