<?xml version="1.0" encoding="iso-8859-1"?>
<!-- Generator: Adobe Illustrator 19.0.0, SVG Export Plug-In . SVG Version: 6.00 Build 0)  -->
<svg version="1.1" id="Capa_1" xmlns="http://www.w3.org/2000/svg" xmlns:xlink="http://www.w3.org/1999/xlink" x="0px" y="0px"
	 viewBox="0 0 367 367" style="enable-background:new 0 0 367 367;" xml:space="preserve">
<g>
	<g>
		<path d="M357.7,119.7c12.4-12.4,12.4-32.4,0-44.8l-7.2-7.2c10-14.4,8.4-34-4-46.8c-6.8-6.8-16-10.8-26-10.8
			c-7.6,0-14.8,2.4-20.8,6.4l-7.2-7.2c-6-6-14-9.2-22.4-9.2c-8.4,0-16.4,3.2-22.4,9.2c-5.6,5.6-8.4,12.8-9.2,20
			c-5.6-2.8-11.6-4.4-18-4.4c-10.8,0-20.4,4-28,11.6c-7.6,7.6-11.6,17.6-11.6,28c0,10.8,4,20.4,11.6,28l22,22l-99.6,99.2l-22-22
			c-7.6-7.6-17.6-11.6-28-11.6c-10.8,0-20.4,4-28,11.6c-12.4,12.4-14.8,31.2-7.2,46c-7.6,0.4-14.8,3.6-20.4,9.2
			c-12.4,12.4-12.4,32.8,0,45.2l7.6,7.2c-4.4,6-6.4,13.2-6.4,20.8c0,9.6,4,18.8,10.8,26c7.2,7.2,16.4,10.8,26,10.8
			c7.2,0,14.4-2.4,20.8-6.4l7.2,7.2c6,6,14,9.2,22.4,9.2c8.4,0,16.4-3.2,22.4-9.2c5.6-5.6,8.4-12.8,9.2-20c5.6,2.8,11.6,4.4,18,4.4
			c10.4,0,20.4-4,28-11.6c15.6-15.6,15.6-40.8,0-56l-22-22l99.2-99.2l22,22c7.6,7.6,17.6,11.6,28,11.6c10.8,0,20.4-4,28-11.6
			c13.2-13.2,14.8-33.2,6-48.4c0.8,0,1.6,0,2.4,0C346.9,126.9,353.3,124.5,357.7,119.7z M336.9,30.1c7.6,7.6,8.8,18.8,4,28
			l-31.6-31.6C318.1,21.3,329.7,22.5,336.9,30.1z M30.5,336.5c-7.6-7.6-8.8-18.8-4-28l31.6,31.6C49.3,345.3,37.7,344.1,30.5,336.5z
			 M110.5,348.1c-7.2,7.2-19.2,7.2-26.4,0l-65.2-65.2c-7.2-7.6-7.2-19.2,0-26.4c3.6-3.6,8.4-5.6,13.2-5.6c4.8,0,9.6,2,13.2,5.6
			l65.2,65.2C117.7,328.9,117.7,340.9,110.5,348.1z M165.7,283.3c10.4,10.4,10.4,27.2,0,37.6c-5.2,5.2-11.6,7.6-18.8,7.6
			s-13.6-2.8-18.8-7.6l-82-82c-10-10.4-10-27.6,0-37.6c5.2-5.2,11.6-7.6,18.8-7.6s13.6,2.8,18.8,7.6l55.6,55.6L165.7,283.3z
			 M144.1,242.5l-19.6-19.6l98.8-98.8l19.6,19.6L144.1,242.5z M320.5,164.9c-5.2,5.2-11.6,7.6-18.8,7.6s-13.6-2.8-18.8-7.6
			l-54.8-54.8l-26.4-26.8c-5.2-4.8-8-11.6-8-18.8c0-7.2,2.8-13.6,7.6-18.8c5.2-5.2,11.6-7.6,18.8-7.6s13.6,2.8,18.8,7.6l58,58
			l9.6,9.6l14,14C330.9,137.7,330.9,154.5,320.5,164.9z M316.5,104.5l-8.8-8.4l-50.8-51.2c-7.6-7.2-7.6-19.2,0-26.4
			c3.6-3.6,8.4-5.6,13.2-5.6c5.2,0,9.6,2,13.2,5.6l11.6,11.6l42.4,42.4l11.6,11.6c7.2,7.2,7.2,19.2,0,26.4c-2.8,2.8-6.8,3.2-9.6,3.2
			C331.3,113.7,322.1,110.1,316.5,104.5z"/>
	</g>
</g>
<g>
</g>
<g>
</g>
<g>
</g>
<g>
</g>
<g>
</g>
<g>
</g>
<g>
</g>
<g>
</g>
<g>
</g>
<g>
</g>
<g>
</g>
<g>
</g>
<g>
</g>
<g>
</g>
<g>
</g>
</svg>
