<?xml version="1.0" encoding="iso-8859-1"?>
<!-- Generator: Adobe Illustrator 19.0.0, SVG Export Plug-In . SVG Version: 6.00 Build 0)  -->
<svg version="1.1" id="Capa_1" xmlns="http://www.w3.org/2000/svg" xmlns:xlink="http://www.w3.org/1999/xlink" x="0px" y="0px"
	 viewBox="0 0 506.838 506.838" style="enable-background:new 0 0 506.838 506.838;" xml:space="preserve">
<g>
	<g>
		<path d="M500.8,118.019h-10v-32.8c0-13.2-10.8-24-24-24c-5.6,0-10.4,2-14.4,4.8c-4.4-8-13.2-13.6-23.2-13.6
			c-14.8,0-26.8,12-26.8,26.8v38.8H105.6v-38.8c0-14.8-12-26.8-26.8-26.8c-10,0-18.8,5.6-23.2,13.6c-4-3.2-8.8-4.8-14.4-4.8
			c-13.2,0-24,10.8-24,24v32.8H6.4c-3.6,0-6.4,2.8-6.4,6.4c0,3.6,2.8,6.4,6.4,6.4h10.4v32.8c0,13.2,10.8,24,24,24
			c5.6,0,10.4-2,14.4-4.8c4.4,8,13.2,14,23.2,14c14.8,0,26.8-12,26.8-26.8v-38.8h43.2v173.6h-22c-3.6,0-6.4,2.8-6.4,6.4
			c0,3.6,2.8,6.4,6.4,6.4h56l-10.8,45.6c-0.8,2.4-0.8,4.8-0.4,7.6c0,0.4,0,0.4,0,0.8v76.4c0,3.6,2.8,6.4,6.4,6.4
			c3.6,0,6.4-2.8,6.4-6.4v-58.8c2.8,1.2,5.6,1.6,9.2,1.6H314c3.2,0,6.4-0.8,9.2-2v59.2c0,3.6,2.8,6.4,6.4,6.4c3.6,0,6.4-2.8,6.4-6.4
			v-76c0-0.4,0-0.8,0-0.8c0-2.4,0-4.8-0.4-7.2l-10-41.2H384c3.6,0,6.4-2.8,6.4-6.4c0-3.6-2.8-6.4-6.4-6.4h-25.6v-178.8H402v38.8
			c0,14.8,12,26.8,26.8,26.8c10,0,18.8-5.6,23.2-14c4,3.2,8.8,4.8,14.4,4.8c13.2,0,24-10.8,24-24v-32.8h10c3.6,0,6.4-2.8,6.4-6.4
			C507.2,120.819,504.4,118.019,500.8,118.019z M52,163.619c0,6.4-4.8,11.2-10.8,11.2s-10.8-4.8-10.8-10.8v-78.8
			c0-6,4.8-10.8,10.8-10.8s10.8,4.8,10.8,10.8V163.619z M92.4,170.019c0,7.6-6,13.6-13.6,13.6s-13.6-6-13.6-13.6v-6v-78.8v-6
			c0-7.6,6-13.6,13.6-13.6s13.6,6,13.6,13.6V170.019z M321.6,374.419c-1.6,2.4-4,3.2-7.2,3.2H193.6c-3.2,0-6-1.2-7.2-3.2
			c-1.6-2-2-4.8-1.2-8l26.4-110.8c2-7.6,10-14,18-14h49.2c7.6,0,16,6.4,18,14l26.8,110.8C323.6,369.619,323.2,372.419,321.6,374.419
			z M345.6,309.219h-22.8l-13.6-56.8c-3.2-13.6-16.8-24-30.8-24h-49.2c-14,0-27.2,10.8-30.8,24l-12.4,52.4h-24.4v-173.6h184V309.219
			z M442.8,85.219v78.4v6.4c0,7.6-6,13.6-13.6,13.6c-7.6,0-13.6-6-13.6-13.6v-45.2v-45.6c0-7.6,6-13.6,13.6-13.6
			c7.6,0,13.6,6,13.6,13.6V85.219z M477.6,163.619c0,6-4.8,10.8-10.8,10.8s-10.8-4.8-10.8-10.8v-78.4c0-6,4.8-10.8,10.8-10.8
			s10.8,4.8,10.8,10.8V163.619z"/>
	</g>
</g>
<g>
</g>
<g>
</g>
<g>
</g>
<g>
</g>
<g>
</g>
<g>
</g>
<g>
</g>
<g>
</g>
<g>
</g>
<g>
</g>
<g>
</g>
<g>
</g>
<g>
</g>
<g>
</g>
<g>
</g>
</svg>
