<?xml version="1.0" encoding="utf-8"?>
<!-- Generator: Adobe Illustrator 19.0.0, SVG Export Plug-In . SVG Version: 6.00 Build 0)  -->
<svg version="1.1" id="Capa_1" xmlns="http://www.w3.org/2000/svg" xmlns:xlink="http://www.w3.org/1999/xlink" x="0px" y="0px"
	 viewBox="-569 371.4 59.6 59.6" style="enable-background:new -569 371.4 59.6 59.6;" xml:space="preserve">
<style type="text/css">
	.st0{fill:#45FF00;}
</style>
<g>
	<path class="st0" d="M-515.6,394.9c-2.3-2.4-4.6-4.3-7.1-5.8c-5.1-3-10.8-4.7-16.7-4.9c-0.2,0-0.4,0-0.6,0c0,0-0.1,0-0.1,0
		c-0.1,0-0.1,0-0.2,0c-8.3,0-16.4,3.1-22.7,8.7l-3.7,3.2c-1.4,1.3-2.3,3.1-2.3,5s0.8,3.8,2.3,5l3.7,3.3c6.4,5.6,14.5,8.7,22.8,8.7
		c0,0,0.1,0,0.1,0c0,0,0,0,0.1,0c0.1,0,0.2,0,0.3,0c5.5-0.1,10.9-1.5,15.7-4.1c3-1.6,5.9-3.9,8.6-6.7l5.9-6.1L-515.6,394.9z
		 M-525,401.2c0,8.2-6.6,14.8-14.7,15c-0.1,0-0.3,0-0.4,0c-8.2,0-14.9-6.8-14.9-15c0-8.2,6.7-14.9,14.9-15c0.2,0,0.5,0,0.7,0
		C-531.4,386.6-525,393.2-525,401.2z M-561.7,408l-3.7-3.3c-1-0.9-1.6-2.2-1.6-3.5c0-1.4,0.6-2.7,1.6-3.5l3.7-3.2
		c3.3-2.9,7.1-5.1,11.1-6.5c-3.9,3.1-6.4,7.9-6.4,13.3c0,5.3,2.5,10.1,6.4,13.2C-554.7,413.1-558.4,410.9-561.7,408z M-516.8,406
		c-2.6,2.7-5.3,4.8-8.1,6.3c-1.3,0.7-2.7,1.3-4.1,1.9c3.7-3.1,6-7.8,6-13c0-5.2-2.3-9.8-6-12.9c1.8,0.7,3.6,1.5,5.2,2.5
		c2.3,1.4,4.5,3.2,6.7,5.4l4.8,5L-516.8,406z"/>
	<path class="st0" d="M-562.2,397.1l-0.6-0.4l-1.9,1.7c-0.8,0.7-1.3,1.7-1.3,2.8s0.5,2.1,1.2,2.8l2,1.8l0.6-0.5
		c1.3-0.9,2.1-2.5,2.1-4.1C-560,399.6-560.8,398-562.2,397.1z M-562.7,403.1l-0.7-0.7c-0.4-0.3-0.6-0.8-0.6-1.3c0-0.5,0.2-1,0.6-1.3
		l0.7-0.6c0.5,0.5,0.7,1.2,0.7,2C-562,401.9-562.2,402.6-562.7,403.1z"/>
	<path class="st0" d="M-541,393.2v1.1c-0.2,0-0.4,0.1-0.6,0.1l-0.4-1c-0.2-0.5-0.8-0.8-1.3-0.6c-0.5,0.2-0.8,0.8-0.6,1.3l0.4,1
		c-0.3,0.1-0.5,0.3-0.8,0.5l-0.8-0.8c-0.4-0.4-1-0.4-1.4,0c-0.4,0.4-0.4,1,0,1.4l0.8,0.8c-0.1,0.2-0.2,0.3-0.3,0.5l-1-0.4
		c-0.5-0.2-1.1,0-1.3,0.5c-0.2,0.5,0,1.1,0.5,1.3l1,0.4c-0.1,0.3-0.1,0.6-0.2,0.9h-1.1c-0.6,0-1,0.4-1,1c0,0.6,0.4,1,1,1h1.1
		c0,0.2,0.1,0.4,0.1,0.6l-1,0.4c-0.5,0.2-0.8,0.8-0.6,1.3c0.2,0.4,0.5,0.6,0.9,0.6c0.1,0,0.2,0,0.4-0.1l1-0.4
		c0.1,0.3,0.3,0.5,0.5,0.8l-0.8,0.8c-0.4,0.4-0.4,1,0,1.4c0.2,0.2,0.5,0.3,0.7,0.3s0.5-0.1,0.7-0.3l0.8-0.8c0.2,0.1,0.3,0.2,0.5,0.3
		l-0.4,1c-0.2,0.5,0,1.1,0.5,1.3c0.1,0.1,0.3,0.1,0.4,0.1c0.4,0,0.8-0.2,0.9-0.6l0.4-1c0.3,0.1,0.6,0.1,0.9,0.2v1.1c0,0.6,0.4,1,1,1
		s1-0.4,1-1v-1.1c0.2,0,0.4-0.1,0.6-0.1l0.4,1c0.2,0.4,0.5,0.6,0.9,0.6c0.1,0,0.2,0,0.4-0.1c0.5-0.2,0.8-0.8,0.6-1.3l-0.4-1
		c0.3-0.1,0.5-0.3,0.8-0.5l0.8,0.8c0.2,0.2,0.5,0.3,0.7,0.3s0.5-0.1,0.7-0.3c0.4-0.4,0.4-1,0-1.4l-0.8-0.8c0.1-0.2,0.2-0.3,0.3-0.5
		l1,0.4c0.1,0.1,0.3,0.1,0.4,0.1c0.4,0,0.8-0.2,0.9-0.6c0.2-0.5,0-1.1-0.5-1.3l-1-0.4c0.1-0.3,0.1-0.6,0.2-0.9h1.1c0.6,0,1-0.4,1-1
		s-0.4-1-1-1h-1.1c0-0.2-0.1-0.4-0.1-0.6l1-0.4c0.5-0.2,0.8-0.8,0.6-1.3c-0.2-0.5-0.8-0.8-1.3-0.6l-1,0.4c-0.1-0.3-0.3-0.5-0.5-0.8
		l0.8-0.8c0.4-0.4,0.4-1,0-1.4c-0.4-0.4-1-0.4-1.4,0l-0.8,0.8c-0.2-0.1-0.3-0.2-0.5-0.3l0.4-1c0.2-0.5,0-1.1-0.5-1.3
		c-0.5-0.2-1.1,0-1.3,0.5l-0.4,1c-0.3-0.1-0.6-0.1-0.9-0.2v-1.1c0-0.6-0.4-1-1-1S-541,392.7-541,393.2z M-535,401.2c0,2.8-2.2,5-5,5
		s-5-2.2-5-5c0-2.8,2.2-5,5-5S-535,398.5-535,401.2z"/>
</g>
</svg>
