<?xml version="1.0" encoding="iso-8859-1"?>
<!-- Generator: Adobe Illustrator 19.0.0, SVG Export Plug-In . SVG Version: 6.00 Build 0)  -->
<svg version="1.1" id="Capa_1" xmlns="http://www.w3.org/2000/svg" xmlns:xlink="http://www.w3.org/1999/xlink" x="0px" y="0px"
	 viewBox="0 0 512 512" style="enable-background:new 0 0 512 512;" xml:space="preserve">
<g>
	
		<linearGradient id="SVGID_1_" gradientUnits="userSpaceOnUse" x1="-43.1278" y1="606.7109" x2="16.6422" y2="606.7109" gradientTransform="matrix(8.5333 0 0 -8.5333 369.1333 5433.2671)">
		<stop  offset="0" style="stop-color:#FC4A1A"/>
		<stop  offset="1" style="stop-color:#F7B733"/>
	</linearGradient>
	<path style="fill:url(#SVGID_1_);" d="M76.8,265.131l17.067,238.933c0.316,4.48,4.045,7.945,8.533,7.936h307.2
		c4.489,0.009,8.218-3.456,8.533-7.936L435.2,265.131V179.2c-0.205-28.988-16.7-55.381-42.667-68.267V0h-68.267v17.067h-34.133V0
		h-68.267v17.067h-34.133V0h-68.267v110.933C93.5,123.819,77.005,150.212,76.8,179.2V265.131z M401.664,494.933H110.336
		L94.891,278.869l123.136,61.525c1.186,0.606,2.5,0.93,3.84,0.939h68.267c1.34-0.009,2.654-0.333,3.84-0.939l123.136-61.525
		L401.664,494.933z M418.133,179.2v80.043l-25.6,12.8V130.304C408.533,141.449,418.091,159.701,418.133,179.2z M375.467,17.067
		v263.509l-34.133,17.067V17.067H375.467z M324.267,34.133v272.043l-34.133,17.067V34.133H324.267z M273.067,17.067v307.2h-34.133
		v-307.2H273.067z M221.867,34.133v289.109l-34.133-17.067V34.133H221.867z M170.667,17.067v280.576l-34.133-17.067V17.067H170.667z
		 M119.467,130.304v141.739l-25.6-12.8V179.2C93.909,159.701,103.467,141.449,119.467,130.304z"/>
	
		<linearGradient id="SVGID_2_" gradientUnits="userSpaceOnUse" x1="-43.1278" y1="587.7109" x2="16.6422" y2="587.7109" gradientTransform="matrix(8.5333 0 0 -8.5333 369.1333 5433.2671)">
		<stop  offset="0" style="stop-color:#FC4A1A"/>
		<stop  offset="1" style="stop-color:#F7B733"/>
	</linearGradient>
	<path style="fill:url(#SVGID_2_);" d="M128,460.8h256v-85.333H128V460.8z M145.067,392.533h221.867v51.2H145.067V392.533z"/>
	
		<linearGradient id="SVGID_3_" gradientUnits="userSpaceOnUse" x1="-43.1278" y1="587.7109" x2="16.6422" y2="587.7109" gradientTransform="matrix(8.5333 0 0 -8.5333 369.1333 5433.2671)">
		<stop  offset="0" style="stop-color:#FC4A1A"/>
		<stop  offset="1" style="stop-color:#F7B733"/>
	</linearGradient>
	<rect x="162.133" y="409.6" style="fill:url(#SVGID_3_);" width="17.067" height="17.067"/>
	
		<linearGradient id="SVGID_4_" gradientUnits="userSpaceOnUse" x1="-43.1278" y1="587.7109" x2="16.6422" y2="587.7109" gradientTransform="matrix(8.5333 0 0 -8.5333 369.1333 5433.2671)">
		<stop  offset="0" style="stop-color:#FC4A1A"/>
		<stop  offset="1" style="stop-color:#F7B733"/>
	</linearGradient>
	<rect x="196.267" y="409.6" style="fill:url(#SVGID_4_);" width="153.6" height="17.067"/>
</g>
<g>
</g>
<g>
</g>
<g>
</g>
<g>
</g>
<g>
</g>
<g>
</g>
<g>
</g>
<g>
</g>
<g>
</g>
<g>
</g>
<g>
</g>
<g>
</g>
<g>
</g>
<g>
</g>
<g>
</g>
</svg>
