<?xml version="1.0" encoding="iso-8859-1"?>
<!-- Generator: Adobe Illustrator 19.0.0, SVG Export Plug-In . SVG Version: 6.00 Build 0)  -->
<svg version="1.1" id="Capa_1" xmlns="http://www.w3.org/2000/svg" xmlns:xlink="http://www.w3.org/1999/xlink" x="0px" y="0px"
	 viewBox="0 0 512.002 512.002" style="enable-background:new 0 0 512.002 512.002;" xml:space="preserve">
<g>
	
		<linearGradient id="SVGID_1_" gradientUnits="userSpaceOnUse" x1="-42.8891" y1="618.9654" x2="16.7839" y2="618.9654" gradientTransform="matrix(8.5315 0 0 -8.5315 369.039 5432.019)">
		<stop  offset="0" style="stop-color:#FC4A1A"/>
		<stop  offset="1" style="stop-color:#F7B733"/>
	</linearGradient>
	<path style="fill:url(#SVGID_1_);" d="M145.778,260.129c0.58-11.372-3.669-22.463-11.688-30.543l0,0l46.753-46.838l32.932,32.932
		l99.648-63.389l1.365-1.024c15.186-14.469,23.735-34.561,23.632-55.54c-0.7-26.328-11.91-51.274-31.14-69.276
		c-36.395-35.269-94.222-35.269-130.617,0l-57.758,94.358l24.315,24.315l-46.838,46.838c-8.045-8.079-19.153-12.362-30.543-11.773
		c-11.338,0.392-22.088,5.127-30.031,13.224c-16.653,16.653-16.653,43.664,0,60.318c6.97,6.544,16.048,10.391,25.594,10.835
		c0.418,9.538,4.232,18.616,10.75,25.594c16.653,16.653,43.664,16.653,60.318,0C140.599,282.226,145.368,271.476,145.778,260.129z
		 M140.403,118.251l48.971-80.281c29.843-28.086,76.485-27.787,105.961,0.683c15.8,14.853,25.014,35.397,25.594,57.076
		c0.077,16.065-6.39,31.464-17.916,42.657l-86.851,55.625L140.403,118.251z M120.525,277.875c-9.99,9.982-26.183,9.982-36.173,0
		c-4.726-6.006-6.842-13.659-5.887-21.243l0.597-9.726l-9.726,0.597c-7.584,0.956-15.237-1.16-21.243-5.887
		c-9.982-9.99-9.982-26.183,0-36.173c4.88-5.068,11.492-8.113,18.513-8.531c6.603-0.401,13.07,2.056,17.745,6.74
		c1.476,1.578,2.773,3.327,3.839,5.204l5.545,9.47l61.512-61.171l13.565,13.565l-61.512,61.512l9.47,5.545
		c1.877,1.066,3.626,2.363,5.204,3.839c4.684,4.675,7.141,11.142,6.74,17.745C128.391,266.332,125.473,272.935,120.525,277.875z"/>
	
		<linearGradient id="SVGID_2_" gradientUnits="userSpaceOnUse" x1="-42.8891" y1="599.2274" x2="16.7839" y2="599.2274" gradientTransform="matrix(8.5315 0 0 -8.5315 369.039 5432.019)">
		<stop  offset="0" style="stop-color:#FC4A1A"/>
		<stop  offset="1" style="stop-color:#F7B733"/>
	</linearGradient>
	<path style="fill:url(#SVGID_2_);" d="M450.011,166.027c-0.418-9.538-4.223-18.616-10.75-25.594
		c-16.679-17.054-44.031-17.362-61.085-0.683s-17.362,44.031-0.683,61.085l-45.729,45.814c-29.007-7.849-64.669,2.218-91.202,28.751
		c-1.877,1.962-3.839,4.01-5.801,6.399c-29.877,5.494-57.323,20.092-78.575,41.804c-23.214,22.523-38.23,52.17-42.657,84.206
		c-4.488,28.606,4.633,57.664,24.656,78.575c17.285,16.909,40.661,26.14,64.839,25.594c4.65,0.009,9.291-0.282,13.906-0.853
		c32.036-4.428,61.683-19.443,84.206-42.657c21.73-21.269,36.327-48.749,41.804-78.66c2.389-1.962,4.436-3.924,6.399-5.801
		c30.457-30.457,39.245-72.944,24.144-103.658l41.804-41.804c17.054,16.679,44.406,16.372,61.085-0.683
		c16.679-17.054,16.372-44.406-0.683-61.085C468.695,170.233,459.583,166.419,450.011,166.027z M337.139,371.892
		c-2.431,2.414-4.999,4.692-7.678,6.825l-2.645,2.133v3.327c-4.419,27.471-17.583,52.784-37.539,72.176
		c-19.861,20.544-46.01,33.879-74.309,37.88c-23.521,3.924-47.52-3.404-64.839-19.793c-16.406-17.31-23.735-41.318-19.793-64.839
		c4.044-28.231,17.37-54.32,37.88-74.139c19.486-19.878,44.85-32.949,72.347-37.283h3.327l2.133-2.645
		c2.133-2.679,4.411-5.247,6.825-7.678c15.519-16.235,36.762-25.757,59.208-26.533c13.872-0.367,27.301,4.863,37.283,14.504
		C372.46,298.692,367.085,341.946,337.139,371.892z M463.405,224.98c-9.555,10.417-25.748,11.108-36.165,1.544l-0.009-0.009
		c-1.484-1.57-2.773-3.319-3.839-5.204l-5.631-9.555l-54.175,54.175c-0.768-0.853-1.45-1.792-2.303-2.645
		c-3.754-3.694-7.934-6.928-12.456-9.641l55.455-55.369l-9.555-5.631c-1.885-1.066-3.634-2.355-5.204-3.839
		c-9.257-11.117-7.747-27.633,3.37-36.89c10.024-8.352,24.673-8.045,34.339,0.717c4.667,6.04,6.774,13.667,5.887,21.243
		l-0.683,9.726l9.726-0.683c7.576-0.887,15.203,1.22,21.243,5.887c10.101,9.888,10.477,25.885,0.589,35.986
		C463.866,224.92,463.738,225.056,463.405,224.98z"/>
</g>
<linearGradient id="SVGID_3_" gradientUnits="userSpaceOnUse" x1="-42.8951" y1="630.6912" x2="16.7739" y2="630.6912" gradientTransform="matrix(8.5315 0 0 -8.5315 369.039 5432.019)">
	<stop  offset="0" style="stop-color:#FC4A1A"/>
	<stop  offset="1" style="stop-color:#F7B733"/>
</linearGradient>
<polygon style="fill:url(#SVGID_3_);" points="200.422,53.787 217.494,36.715 229.557,48.787 212.486,65.859 "/>
<linearGradient id="SVGID_4_" gradientUnits="userSpaceOnUse" x1="-42.8811" y1="630.6967" x2="16.7839" y2="630.6967" gradientTransform="matrix(8.5315 0 0 -8.5315 369.039 5432.019)">
	<stop  offset="0" style="stop-color:#FC4A1A"/>
	<stop  offset="1" style="stop-color:#F7B733"/>
</linearGradient>
<polygon style="fill:url(#SVGID_4_);" points="243.122,53.744 260.194,36.673 272.257,48.736 255.186,65.808 "/>
<linearGradient id="SVGID_5_" gradientUnits="userSpaceOnUse" x1="-42.8821" y1="625.6957" x2="16.7839" y2="625.6957" gradientTransform="matrix(8.5315 0 0 -8.5315 369.039 5432.019)">
	<stop  offset="0" style="stop-color:#FC4A1A"/>
	<stop  offset="1" style="stop-color:#F7B733"/>
</linearGradient>
<polygon style="fill:url(#SVGID_5_);" points="200.465,96.41 217.536,79.339 229.6,91.402 212.528,108.474 "/>
<g>
	
		<linearGradient id="SVGID_6_" gradientUnits="userSpaceOnUse" x1="-42.8891" y1="586.6969" x2="16.7839" y2="586.6969" gradientTransform="matrix(8.5315 0 0 -8.5315 369.039 5432.019)">
		<stop  offset="0" style="stop-color:#FC4A1A"/>
		<stop  offset="1" style="stop-color:#F7B733"/>
	</linearGradient>
	<path style="fill:url(#SVGID_6_);" d="M258.991,426.664l-102.378-17.063c-4.709-0.751-9.146,2.457-9.897,7.166
		c-0.751,4.709,2.457,9.146,7.166,9.897l102.378,17.063h1.365c4.709,0.375,8.839-3.14,9.214-7.849
		C267.215,431.16,263.7,427.039,258.991,426.664z"/>
	
		<linearGradient id="SVGID_7_" gradientUnits="userSpaceOnUse" x1="-42.8891" y1="591.6969" x2="16.7839" y2="591.6969" gradientTransform="matrix(8.5315 0 0 -8.5315 369.039 5432.019)">
		<stop  offset="0" style="stop-color:#FC4A1A"/>
		<stop  offset="1" style="stop-color:#F7B733"/>
	</linearGradient>
	<path style="fill:url(#SVGID_7_);" d="M284.585,384.006l-102.378-17.063c-4.709-0.751-9.146,2.457-9.897,7.166
		c-0.751,4.709,2.457,9.146,7.166,9.897l102.378,17.063h1.365c4.709,0.375,8.839-3.14,9.214-7.849
		C292.81,388.502,289.295,384.382,284.585,384.006z"/>
	
		<linearGradient id="SVGID_8_" gradientUnits="userSpaceOnUse" x1="-42.8891" y1="596.6969" x2="16.7839" y2="596.6969" gradientTransform="matrix(8.5315 0 0 -8.5315 369.039 5432.019)">
		<stop  offset="0" style="stop-color:#FC4A1A"/>
		<stop  offset="1" style="stop-color:#F7B733"/>
	</linearGradient>
	<path style="fill:url(#SVGID_8_);" d="M310.18,341.349l-102.378-17.063c-4.709-0.751-9.146,2.457-9.897,7.166
		c-0.751,4.709,2.457,9.146,7.166,9.897l102.378,17.063h1.365c4.709,0.375,8.839-3.14,9.214-7.849
		C318.404,345.845,314.889,341.724,310.18,341.349z"/>
</g>
<g>
</g>
<g>
</g>
<g>
</g>
<g>
</g>
<g>
</g>
<g>
</g>
<g>
</g>
<g>
</g>
<g>
</g>
<g>
</g>
<g>
</g>
<g>
</g>
<g>
</g>
<g>
</g>
<g>
</g>
</svg>
