<?xml version="1.0" encoding="iso-8859-1"?>
<!-- Generator: Adobe Illustrator 19.0.0, SVG Export Plug-In . SVG Version: 6.00 Build 0)  -->
<svg xmlns="http://www.w3.org/2000/svg" xmlns:xlink="http://www.w3.org/1999/xlink" version="1.1" id="Capa_1" x="0px" y="0px" viewBox="0 0 511.985 511.985" style="enable-background:new 0 0 511.985 511.985;" xml:space="preserve" width="512px" height="512px">
<g>
	<g>
		<path d="M507.296,49.802l-45.12-45.12c-4.864-4.864-12.32-6.048-18.464-3.008l-90.56,45.12c-4.576,2.304-7.808,6.656-8.64,11.712    c-0.832,5.056,0.768,10.208,4.384,13.856l11.264,11.424l-75.04,75.296c-44.352-23.84-91.232-21.728-119.36,6.432    c-15.232,14.944-23.104,35.872-22.912,59.552c-43.072-8.864-83.36,1.28-110.912,28.832C11.328,274.346,0,303.146,0,335.018    c0,43.232,19.904,87.84,54.592,122.304c34.528,34.752,79.104,54.656,122.304,54.656h0.032c31.872,0,60.672-11.36,81.088-31.904    c27.584-27.584,37.76-67.84,28.864-110.944c23.872,0.736,44.576-7.648,59.456-22.784c28.224-28.224,30.4-75.072,6.528-119.456    l75.328-75.072l11.424,11.264c3.648,3.616,8.8,5.152,13.856,4.384c5.056-0.832,9.408-4.064,11.712-8.64l45.12-90.56    C513.376,62.122,512.16,54.666,507.296,49.802z M446.4,124.778l-7.008-6.912c-6.24-6.176-16.288-6.112-22.528,0.064l-95.36,95.04    c-5.344,5.312-6.24,13.664-2.144,20c21.952,34.016,23.744,71.36,4.288,90.848c-12.128,12.352-32.128,16.352-55.04,11.008    c-5.728-1.312-11.712,0.576-15.616,4.96c-3.904,4.416-5.088,10.592-3.072,16.096c14.592,39.968,9.152,77.92-14.56,101.632    c-14.592,14.688-34.784,22.464-58.4,22.464h-0.032c-34.24,0-71.488-16.896-99.712-45.28C48.864,406.538,31.968,369.29,32,335.018    c0-23.616,7.776-43.808,22.528-58.432c14.912-14.912,35.456-22.592,58.624-22.592c13.632,0,28.16,2.656,42.976,8.064    c5.504,2.048,11.712,0.832,16.096-3.072c4.384-3.904,6.304-9.92,4.96-15.616c-5.344-22.816-1.344-42.88,11.104-55.136    c19.392-19.36,56.704-17.6,90.752,4.384c6.336,4.096,14.688,3.2,20-2.144l95.04-95.36c6.208-6.208,6.24-16.288,0.064-22.528    l-6.944-7.008l60.512-30.144l28.832,28.832L446.4,124.778z" fill="#4d1a50"/>
	</g>
</g>
<g>
	<g>
		<path d="M176,287.978c-26.464,0-48,21.536-48,48s21.536,48,48,48s48-21.536,48-48S202.464,287.978,176,287.978z M176,351.978    c-8.832,0-16-7.168-16-16c0-8.832,7.168-16,16-16c8.832,0,16,7.168,16,16C192,344.81,184.832,351.978,176,351.978z" fill="#4d1a50"/>
	</g>
</g>
<g>
	<g>
		<path d="M139.328,404.682l-32-32c-6.24-6.24-16.384-6.24-22.624,0c-6.24,6.24-6.24,16.384,0,22.624l31.968,32    c3.136,3.104,7.232,4.672,11.328,4.672s8.192-1.568,11.328-4.672C145.568,421.066,145.568,410.922,139.328,404.682z" fill="#4d1a50"/>
	</g>
</g>
<g>
</g>
<g>
</g>
<g>
</g>
<g>
</g>
<g>
</g>
<g>
</g>
<g>
</g>
<g>
</g>
<g>
</g>
<g>
</g>
<g>
</g>
<g>
</g>
<g>
</g>
<g>
</g>
<g>
</g>
</svg>
