<?xml version="1.0" encoding="utf-8"?>
<!-- Generator: Adobe Illustrator 19.0.0, SVG Export Plug-In . SVG Version: 6.00 Build 0)  -->
<svg version="1.1" id="Capa_1" xmlns="http://www.w3.org/2000/svg" xmlns:xlink="http://www.w3.org/1999/xlink" x="0px" y="0px"
	 viewBox="-569 371.1 59.9 59.9" style="enable-background:new -569 371.1 59.9 59.9;" xml:space="preserve">
<style type="text/css">
	.st0{fill:#781818;}
</style>
<g>
	<path class="st0" d="M-517,397.3l-0.4-0.1l0.2-0.3c0.9-1,0.9-2.5-0.1-3.5l-0.8-0.7c-0.5-0.4-1.1-0.7-1.8-0.7
		c-0.7,0-1.3,0.3-1.7,0.8l-2.4,2.6c-1.5-2.1-3.4-4-6.1-5.6c1-0.2,1.7-0.4,2.4-0.8h5.5c2.2,0,4-1.8,4-4s-1.8-4-4-4h-6
		c-0.7-0.3-1.6-0.5-2.8-0.5c-0.2,0-0.4-0.1-0.5-0.3c-0.2-0.5-0.3-0.9-0.6-1.4l0.9-0.9c1.6-1.6,1.6-4.1,0-5.7c-1.5-1.5-4.1-1.5-5.7,0
		l-1.1,1.1c-2-0.6-4.1-0.3-6,0.9c-0.2,0.1-0.4,0-0.5-0.1c-0.5-0.6-1.1-1.4-1.9-1.8c-1.2-0.6-2.9,0-3.8,0.6c-0.8,0.5-0.8,1.7-0.6,3.3
		c0.1,0.6,0.3,1.2,0.5,1.7c0.1,0.4,0.3,0.9,0.3,1.2l0,0.2c0,0.1,0,0.1,0,0.1c0,0-0.1,0.1-0.1,0.1c0,0-0.1,0.1-0.1,0.1
		c0,0-0.1,0.1-0.1,0.1c0,0-0.1,0.1-0.1,0.1c-0.1,0-0.1,0.1-0.2,0.1c-0.1,0-0.1,0.1-0.2,0.1c-0.1,0-0.1,0.1-0.2,0.1
		c-0.1,0-0.1,0-0.2,0.1c-0.1,0-0.2,0-0.3,0.1c-0.1,0-0.1,0-0.2,0c-0.1,0-0.2,0-0.3,0.1c0,0-0.1,0-0.1,0c-0.1,0-0.2,0-0.4,0
		c0,0-0.1,0-0.1,0c-0.2,0-0.3,0-0.4,0c-0.2,0-0.4,0-0.7,0l-4.7-4.7c-0.9-0.9-2.5-0.9-3.5,0l-0.8,0.8c-1,1-1,2.5,0,3.5l4.8,4.8
		c0,0.1,0,0.2,0,0.3c-0.1,3.1-0.1,6.4-1.2,9.1c-0.2,0.5-0.4,1-0.5,1.6c-0.1,0.4-0.3,0.9-0.4,1.3c0,0.1,0,0.1,0,0.1l-0.1,0.3
		c0,0.1-0.1,0.3-0.1,0.4l-0.3,0.9l0.1,0c-1.8,8.1,0.2,15.4,6.1,21.7c6.6,7.1,15.2,10.5,26.2,10.5c1.3,0,2.6,0,3.9-0.1
		c3.6-0.3,5.8-2.6,5.9-6.2c0-2.6-0.1-5.5-0.5-8.5v0c-0.2-1.2-0.3-2.4-0.4-3.6c-0.4-3.3-0.8-6.7-1.6-9.9l2.3,0.5
		c0.2,0,0.4,0.1,0.6,0.1c0.5,0,0.9-0.1,1.3-0.4c0.6-0.3,0.9-0.9,1.1-1.5l0.2-1.1C-514.8,398.9-515.6,397.6-517,397.3z M-529.1,383.1
		h3.6c-0.3,0.6-0.6,1.3-0.6,2s0.2,1.4,0.6,2h-3.6c-1.1,0-2-0.9-2-2S-530.2,383.1-529.1,383.1z M-520.1,385.1c0,1.1-0.9,2-2,2
		c-1.1,0-2-0.9-2-2s0.9-2,2-2C-521,383.1-520.1,384-520.1,385.1z M-560.9,378.5c-0.1-0.1-0.1-0.1-0.1-0.2c0,0,0-0.1,0-0.2v0
		c0-0.1,0-0.1,0-0.2c0-0.1,0-0.1,0.1-0.2l0.8-0.8c0.1-0.1,0.2-0.1,0.3-0.1c0.1,0,0.2,0,0.3,0.1l5.4,5.4l0.5,0c0.3,0,0.6,0,0.9,0
		c0.2,0,0.4,0,0.5,0c0.1,0,0.2,0,0.4,0c0.1,0,0.2,0,0.2,0c0.1,0,0.3,0,0.4-0.1c0.1,0,0.2,0,0.3,0c0.1,0,0.2-0.1,0.4-0.1
		c0.1,0,0.2-0.1,0.3-0.1c0.1,0,0.2-0.1,0.3-0.1c0.1,0,0.2-0.1,0.3-0.1c0.1,0,0.2-0.1,0.3-0.1c0.1-0.1,0.2-0.1,0.3-0.2
		c0.1-0.1,0.2-0.1,0.3-0.2c0.1-0.1,0.2-0.1,0.3-0.2c0.1-0.1,0.1-0.1,0.2-0.2c0,0,0.1-0.1,0.1-0.1c1.7,1.4,3.1,3.3,2.2,5.8
		c-1,2.8-6.2,7.3-11.2,9.2c0.1-0.4,0.2-0.7,0.4-1.1c1.2-3.1,1.2-6.6,1.3-9.8c0-0.2,0-0.4,0-0.6l0-0.5L-560.9,378.5z M-521,412.7
		c0.1,1.2,0.3,2.4,0.4,3.7c0.4,2.9,0.6,5.7,0.5,8.2c0,2.6-1.5,4.1-4,4.3c-12.3,0.8-21.6-2.3-28.5-9.7c-5.7-6.1-7.4-12.9-5.4-20.9
		c5.7-1.6,12.4-6.8,13.8-10.9c1.1-3.1-0.2-6.2-3.6-8.6c-0.1-0.5-0.2-1-0.4-1.5c-0.2-0.5-0.3-1-0.4-1.4c-0.1-0.9-0.1-1.3-0.1-1.5
		c0.6-0.3,1.4-0.4,1.6-0.3c0.4,0.2,0.8,0.7,1.2,1.2c0.8,1,2.2,1.3,3.2,0.6c1.6-1,3.3-1.2,4.9-0.5l0.6,0.2l2-2c0.8-0.8,2-0.8,2.8,0
		c0.8,0.8,0.8,2,0,2.8l-2,2l0.3,0.7c0.3,0.6,0.6,1.1,0.8,1.8c0.2,0.6,0.7,1.1,1.3,1.4c-0.1,0.1-0.2,0.2-0.2,0.3
		c-0.1,0.1-0.2,0.2-0.2,0.3c-0.1,0.1-0.1,0.3-0.2,0.4c-0.1,0.1-0.1,0.2-0.2,0.3c-0.1,0.2-0.1,0.3-0.1,0.5c0,0.1-0.1,0.2-0.1,0.3
		c-0.1,0.3-0.1,0.5-0.1,0.8c0,0.3,0,0.6,0.1,0.9c0,0.1,0.1,0.2,0.1,0.3c0.1,0.2,0.1,0.4,0.2,0.5c0,0.1,0.1,0.2,0.2,0.3
		c0.1,0.2,0.2,0.3,0.3,0.4c0.1,0.1,0.1,0.2,0.2,0.3c0.1,0.1,0.2,0.2,0.4,0.4c0,0,0.1,0.1,0.1,0.1c-0.4,0.3-0.7,0.7-0.8,1.2
		c-0.1,0.7,0.2,1.5,0.9,1.9c2.7,1.5,4.6,3.4,6.1,5.4l0.3,0.4c0,0,0.1,0.1,0.1,0.1c0.8,1.3,1.5,2.7,2.1,4.3l0.2,0.5l0,0
		C-521.8,405.4-521.4,409-521,412.7z M-517.1,399.8l-0.2,1.1c0,0.2-0.1,0.2-0.2,0.3c-0.1,0-0.2,0.1-0.3,0.1l-3.5-0.8c0,0,0,0,0,0
		c-0.4-1.1-0.9-2.1-1.4-3.2l2.8-3c0.1-0.1,0.2-0.1,0.3-0.1c0.1,0,0.2,0,0.3,0.1l0.8,0.7c0.2,0.2,0.2,0.5,0,0.6l-2.6,2.8l3.7,0.9
		C-517.2,399.3-517,399.5-517.1,399.8z"/>
	<path class="st0" d="M-525.6,415.2l-2.5,1.7c-1.7-0.9-3.2-1.8-4.6-2.8h3.6c0.6,0,1-0.4,1-1c0-0.6-0.4-1-1-1h-6c0,0,0,0-0.1,0
		c-2.6-2.4-4.3-5.1-5-8c-0.4-1.5-0.5-2.9-0.4-4.2c0,0,0,0,0,0c1.8-1.2,3.8-1.2,6.1,0c0.8,0.4,1.6,1,2.4,1.7
		c-0.1,0.1-0.1,0.3-0.1,0.5v4c0,0.6,0.4,1,1,1c0.6,0,1-0.4,1-1v-2.6c0.6,0.7,1.1,1.4,1.7,2.1c0.2,0.3,0.5,0.4,0.8,0.4
		c0.2,0,0.4-0.1,0.6-0.2c0.5-0.3,0.6-0.9,0.2-1.4c-0.7-1-1.4-1.9-2.2-2.8l2.5-1.9c0.4-0.3,0.5-1,0.2-1.4c-0.3-0.4-1-0.5-1.4-0.2
		l-2.7,2.1c-1-0.9-2-1.6-3-2.2c-2.4-1.3-4.7-1.5-6.7-0.7c0.7-2.9,1.9-4.8,1.9-4.8c0.3-0.5,0.2-1.1-0.3-1.4c-0.5-0.3-1.1-0.2-1.4,0.3
		c-0.2,0.2-3.8,5.7-2.3,12.6c-0.2,0-0.3,0.1-0.4,0.2c-4.4,4-4.6,11.1-0.4,16l0,2.8c0,0.6,0.4,1,1,1c0,0,0,0,0,0c0.5,0,1-0.4,1-1l0-2
		h2c0.6,0,1-0.4,1-1c0-0.6-0.4-1-1-1h-2.4c-3.4-4-3.4-9.6-0.1-12.9c1,2.8,2.9,5.4,5.5,7.8v5.1c0,0.6,0.4,1,1,1c0.6,0,1-0.4,1-1v-3.5
		c1.5,1.1,3.1,2.1,5,3.1v2.4c0,0.6,0.4,1,1,1c0.6,0,1-0.4,1-1v-2.5l2.6-1.7c0.5-0.3,0.6-0.9,0.3-1.4
		C-524.5,415.1-525.2,414.9-525.6,415.2z"/>
</g>
</svg>
