<?xml version="1.0" encoding="iso-8859-1"?>
<!-- Generator: Adobe Illustrator 19.0.0, SVG Export Plug-In . SVG Version: 6.00 Build 0)  -->
<svg version="1.1" id="Capa_1" xmlns="http://www.w3.org/2000/svg" xmlns:xlink="http://www.w3.org/1999/xlink" x="0px" y="0px"
	 viewBox="0 0 511.999 511.999" style="enable-background:new 0 0 511.999 511.999;" xml:space="preserve">
<g>
	
		<linearGradient id="SVGID_1_" gradientUnits="userSpaceOnUse" x1="-43.226" y1="606.8365" x2="16.544" y2="606.8365" gradientTransform="matrix(8.5567 0 0 -8.5567 370.283 5448.5303)">
		<stop  offset="0" style="stop-color:#FC4A1A"/>
		<stop  offset="1" style="stop-color:#F7B733"/>
	</linearGradient>
	<path style="fill:url(#SVGID_1_);" d="M315.897,511.999c23.625,0,42.784-19.158,42.784-42.784v-8.557H213.216v-34.227h85.567
		c28.357-0.051,51.298-23.086,51.246-51.434c-0.043-21.383-13.331-40.499-33.363-47.995c20.699-19.381,21.768-51.871,2.387-72.57
		c-0.77-0.821-1.566-1.617-2.387-2.387c26.552-9.96,40.003-39.549,30.043-66.101c-4.732-12.613-14.23-22.864-26.449-28.537
		c16.823-16.591,17.011-43.682,0.419-60.505c-8.035-8.155-19.004-12.741-30.453-12.741h-77.01V60.546l21.734-21.649
		c3.354-3.329,3.38-8.745,0.051-12.099c-0.017-0.017-0.034-0.034-0.051-0.051L210.734,2.532c-3.329-3.354-8.745-3.38-12.099-0.051
		c-0.017,0.017-0.034,0.034-0.051,0.051l-24.216,24.216c-3.354,3.329-3.38,8.745-0.051,12.099c0.017,0.017,0.034,0.034,0.051,0.051
		l21.734,21.649v23.617h-77.01c-23.625,0-42.784,19.159-42.775,42.792c0,11.449,4.595,22.419,12.741,30.453
		c-25.722,11.937-36.888,42.467-24.943,68.189c5.673,12.219,15.924,21.717,28.537,26.449c-20.699,19.381-21.768,51.871-2.387,72.57
		c0.77,0.821,1.566,1.617,2.387,2.387c-26.56,9.934-40.037,39.506-30.111,66.066c7.487,20.031,26.611,33.32,47.995,33.363h85.567
		v34.227H50.638v8.557c0,23.625,19.159,42.784,42.784,42.784L315.897,511.999L315.897,511.999z M204.659,20.758l12.065,12.065
		l-12.065,12.065l-12.065-12.065L204.659,20.758z M281.67,323.751H127.649c-18.902,0-34.227-15.325-34.227-34.227
		s15.325-34.227,34.227-34.227H281.67c18.902,0,34.227,15.325,34.227,34.227S300.571,323.751,281.67,323.751z M119.092,101.276
		h171.134c14.178,0,25.67,11.492,25.67,25.67s-11.492,25.67-25.67,25.67H119.092c-14.178,0-25.67-11.492-25.67-25.67
		S104.913,101.276,119.092,101.276z M110.535,238.184c-18.902,0-34.227-15.325-34.227-34.227s15.325-34.227,34.227-34.227h188.248
		c18.902,0,34.227,15.325,34.227,34.227s-15.325,34.227-34.227,34.227H110.535z M76.308,375.091
		c0-18.902,15.325-34.227,34.227-34.227h188.248c18.902,0,34.227,15.325,34.227,34.227s-15.325,34.227-34.227,34.227H110.535
		C91.633,409.318,76.308,393.993,76.308,375.091z M69.206,477.772h270.906c-3.628,10.26-13.331,17.122-24.216,17.113H93.422
		C82.538,494.886,72.834,488.032,69.206,477.772z"/>
	
		<linearGradient id="SVGID_2_" gradientUnits="userSpaceOnUse" x1="-43.226" y1="621.9185" x2="16.544" y2="621.9185" gradientTransform="matrix(8.5567 0 0 -8.5567 370.283 5448.5303)">
		<stop  offset="0" style="stop-color:#FC4A1A"/>
		<stop  offset="1" style="stop-color:#F7B733"/>
	</linearGradient>
	<path style="fill:url(#SVGID_2_);" d="M119.092,135.503h34.227c4.723,0,8.557-3.833,8.557-8.557s-3.833-8.557-8.557-8.557h-34.227
		c-4.723,0-8.557,3.833-8.557,8.557S114.369,135.503,119.092,135.503z"/>
	
		<linearGradient id="SVGID_3_" gradientUnits="userSpaceOnUse" x1="-43.226" y1="592.9185" x2="16.544" y2="592.9185" gradientTransform="matrix(8.5567 0 0 -8.5567 370.283 5448.5303)">
		<stop  offset="0" style="stop-color:#FC4A1A"/>
		<stop  offset="1" style="stop-color:#F7B733"/>
	</linearGradient>
	<path style="fill:url(#SVGID_3_);" d="M315.897,375.091c0-4.723-3.833-8.557-8.557-8.557h-34.227c-4.723,0-8.557,3.833-8.557,8.557
		s3.833,8.557,8.557,8.557h34.227C312.063,383.648,315.897,379.815,315.897,375.091z"/>
	
		<linearGradient id="SVGID_4_" gradientUnits="userSpaceOnUse" x1="-43.226" y1="612.9185" x2="16.544" y2="612.9185" gradientTransform="matrix(8.5567 0 0 -8.5567 370.283 5448.5303)">
		<stop  offset="0" style="stop-color:#FC4A1A"/>
		<stop  offset="1" style="stop-color:#F7B733"/>
	</linearGradient>
	<path style="fill:url(#SVGID_4_);" d="M315.897,203.957c0-4.723-3.833-8.557-8.557-8.557h-68.454c-4.723,0-8.557,3.833-8.557,8.557
		s3.833,8.557,8.557,8.557h68.454C312.063,212.514,315.897,208.68,315.897,203.957z"/>
	
		<linearGradient id="SVGID_5_" gradientUnits="userSpaceOnUse" x1="-43.226" y1="602.9185" x2="16.544" y2="602.9185" gradientTransform="matrix(8.5567 0 0 -8.5567 370.283 5448.5303)">
		<stop  offset="0" style="stop-color:#FC4A1A"/>
		<stop  offset="1" style="stop-color:#F7B733"/>
	</linearGradient>
	<path style="fill:url(#SVGID_5_);" d="M187.546,280.968h-68.454c-4.723,0-8.557,3.833-8.557,8.557s3.833,8.557,8.557,8.557h68.454
		c4.723,0,8.557-3.833,8.557-8.557S192.269,280.968,187.546,280.968z"/>
	
		<linearGradient id="SVGID_6_" gradientUnits="userSpaceOnUse" x1="-43.226" y1="601.9185" x2="16.544" y2="601.9185" gradientTransform="matrix(8.5567 0 0 -8.5567 370.283 5448.5303)">
		<stop  offset="0" style="stop-color:#FC4A1A"/>
		<stop  offset="1" style="stop-color:#F7B733"/>
	</linearGradient>
	<path style="fill:url(#SVGID_6_);" d="M375.794,161.173v213.918h34.227v136.908h51.34V84.163h-8.557
		C410.269,84.163,375.794,118.638,375.794,161.173z M444.247,494.886h-17.113V375.091h17.113V494.886z M392.907,357.978V161.173
		c-0.009-29.777,21.862-55.045,51.34-59.298v256.103H392.907z"/>
	
		<linearGradient id="SVGID_7_" gradientUnits="userSpaceOnUse" x1="-43.226" y1="597.9185" x2="16.544" y2="597.9185" gradientTransform="matrix(8.5567 0 0 -8.5567 370.283 5448.5303)">
		<stop  offset="0" style="stop-color:#FC4A1A"/>
		<stop  offset="1" style="stop-color:#F7B733"/>
	</linearGradient>
	<rect x="410.021" y="323.751" style="fill:url(#SVGID_7_);" width="17.113" height="17.113"/>
</g>
<g>
</g>
<g>
</g>
<g>
</g>
<g>
</g>
<g>
</g>
<g>
</g>
<g>
</g>
<g>
</g>
<g>
</g>
<g>
</g>
<g>
</g>
<g>
</g>
<g>
</g>
<g>
</g>
<g>
</g>
</svg>
