<?xml version="1.0" encoding="utf-8"?>
<!-- Generator: Adobe Illustrator 19.0.0, SVG Export Plug-In . SVG Version: 6.00 Build 0)  -->
<svg version="1.1" id="Capa_1" xmlns="http://www.w3.org/2000/svg" xmlns:xlink="http://www.w3.org/1999/xlink" x="0px" y="0px"
	 viewBox="-571 372.8 56.2 56.2" style="enable-background:new -571 372.8 56.2 56.2;" xml:space="preserve">
<style type="text/css">
	.st0{fill:#0080FF;}
</style>
<path class="st0" d="M-528,374.7c-4.5,0-9.5,3.7-9.7,9.7c-0.1,1.9,0.8,3.8,1.6,5.8c0.3,0.7,0.6,1.5,0.9,2.2
	c-2.6-1.1-4.6-5.5-4.6-8.4c0-0.6-0.4-1-1-1c-0.6,0-1,0.4-1,1c0,4.1,2.9,10,7,10.6c0.1,0.1,0.2,0.2,0.3,0.2c0,0.1,0,0.2,0.1,0.3
	c-3.7,0.6-6.8,3-8.3,6.3c-1.5-3.4-4.7-5.8-8.6-6.3c0-0.2,0.1-0.3,0.1-0.5c4.2-0.7,7.5-6.6,7.5-10.6c0-0.6-0.4-1-1-1
	c-0.6,0-1,0.4-1,1c0,3.1-2.2,7.1-4.7,8.3c0.3-0.7,0.6-1.4,0.9-2.1c0.9-2,1.7-4,1.7-5.8c-0.2-6-5.2-9.7-9.7-9.7
	c-7.3,0-13.3,9.9-13.3,22c0,12.1,5.9,22,13.3,22c2.7,0,7.7,0,9.7-5.7c0.8-2.2-0.2-4.9-1.4-8c-0.9-2.5-2-5.2-2.1-8
	c4.3,0.6,7.7,4.4,7.7,8.9v20c0,0.6,0.4,1,1,1s1-0.4,1-1v-20c0-4.4,3.2-8.1,7.5-8.9c-0.1,2.7-1.1,5.5-2.1,7.9c-1.2,3.1-2.2,5.7-1.4,8
	c2,5.7,7,5.7,9.7,5.7c7.3,0,13.3-9.9,13.3-22C-514.8,384.6-520.7,374.7-528,374.7z M-549.9,412.4c-1.4,4-4.6,4.3-7.8,4.3
	c-6.2,0-11.3-9-11.3-20c0-11,5-20,11.3-20c3.6,0,7.6,3.1,7.8,7.8c0.1,1.4-0.7,3.1-1.5,5c-0.1,0.2-0.2,0.4-0.2,0.6
	c-1.4-3.5-4.7-6-8.3-6c-0.6,0-1,0.4-1,1s0.4,1,1,1c3.6,0,6.9,3.5,7,7.5c-0.1,0.5-0.3,1-0.3,1.6h-5.6c-0.6,0-1,0.4-1,1s0.4,1,1,1h5.5
	c0,3.8-2.6,7.9-6.5,7.9c-0.6,0-1,0.4-1,1s0.4,1,1,1c3.3,0,5.9-2.2,7.4-5.1c0.4,1.4,0.9,2.7,1.3,3.9
	C-550.3,408.4-549.4,410.9-549.9,412.4z M-528,416.7c-3.2,0-6.4-0.3-7.8-4.3c-0.5-1.6,0.4-4,1.4-6.6c0.5-1.2,0.9-2.5,1.3-3.9
	c1.6,3,4.6,5.1,7.9,5.1c0.6,0,1-0.4,1-1s-0.4-1-1-1c-3.7,0-7-3.7-7-7.7c0,0,0-0.1,0-0.1c0-0.1,0-0.1,0-0.2h6c0.6,0,1-0.4,1-1
	s-0.4-1-1-1h-6.2c-0.1-0.7-0.3-1.4-0.5-2c0.5-3.4,3.3-7,6.9-7c0.6,0,1-0.4,1-1s-0.4-1-1-1c-3.7,0-6.7,2.7-8.1,5.9
	c-0.1-0.2-0.1-0.3-0.2-0.5c-0.8-1.8-1.5-3.6-1.5-5c0.2-4.7,4.1-7.8,7.8-7.8c6.2,0,11.3,9,11.3,20
	C-516.8,407.8-521.8,416.7-528,416.7z"/>
</svg>
