<?xml version="1.0" encoding="iso-8859-1"?>
<!-- Generator: Adobe Illustrator 19.0.0, SVG Export Plug-In . SVG Version: 6.00 Build 0)  -->
<svg xmlns="http://www.w3.org/2000/svg" xmlns:xlink="http://www.w3.org/1999/xlink" version="1.1" id="Capa_1" x="0px" y="0px" viewBox="0 0 512 512" style="enable-background:new 0 0 512 512;" xml:space="preserve" width="512px" height="512px">
<g>
	<g>
		<path d="M343.989,0c-70.592,0-128,57.408-128,128c0,1.6,0.416,3.072,0.48,4.672l-172.8,209.152    c-5.248,6.368-4.8,15.68,1.024,21.504l47.968,48c3.104,3.104,7.2,4.672,11.328,4.672c3.392,0,6.848-1.088,9.76-3.328    l102.24-78.432V480h-48c-8.832,0-16,7.168-16,16c0,8.832,7.168,16,16,16h128c8.832,0,16-7.168,16-16c0-8.832-7.168-16-16-16h-48    V309.696l72.992-56c7.488,1.344,15.136,2.304,23.008,2.304c70.592,0,128-57.408,128-128S414.581,0,343.989,0z M105.397,378.752    l-27.808-27.808l147.008-177.888c11.136,29.44,32.8,53.376,60.416,67.872L105.397,378.752z M343.989,224    c-52.928,0-96-43.072-96-96c0-20.704,6.752-39.776,17.92-55.456l133.536,133.568C383.733,217.28,364.693,224,343.989,224z     M422.069,183.456L288.533,49.92C304.245,38.72,323.285,32,343.989,32c52.928,0,96,43.072,96,96    C439.989,148.704,433.237,167.776,422.069,183.456z" fill="#4d1a50"/>
	</g>
</g>
<g>
</g>
<g>
</g>
<g>
</g>
<g>
</g>
<g>
</g>
<g>
</g>
<g>
</g>
<g>
</g>
<g>
</g>
<g>
</g>
<g>
</g>
<g>
</g>
<g>
</g>
<g>
</g>
<g>
</g>
</svg>
