<?xml version="1.0" encoding="utf-8"?>
<!-- Generator: Adobe Illustrator 19.0.0, SVG Export Plug-In . SVG Version: 6.00 Build 0)  -->
<svg version="1.1" id="Capa_1" xmlns="http://www.w3.org/2000/svg" xmlns:xlink="http://www.w3.org/1999/xlink" x="0px" y="0px"
	 viewBox="-569 371 60 60" style="enable-background:new -569 371 60 60;" xml:space="preserve">
<style type="text/css">
	.st0{fill:#FF4E00;}
</style>
<g>
	<path class="st0" d="M-514,376c-6.6-6.6-17.4-6.6-24,0l-26,26c-6.6,6.6-6.6,17.4,0,24c3.2,3.2,7.5,5,12,5s8.8-1.8,12-5l26-26
		c3.2-3.2,5-7.5,5-12C-509,383.4-510.8,379.2-514,376z M-541.4,424.6c-2.8,2.8-6.6,4.4-10.6,4.4s-7.8-1.6-10.6-4.4
		c-5.8-5.8-5.8-15.4,0-21.2l12.6-12.6l21.2,21.2L-541.4,424.6z M-515.4,398.6l-12,12l-21.2-21.2l12-12c1.6-1.6,3.6-2.8,5.6-3.5
		c0,0,0,0.1,0,0.1c0,0.6,0.4,1,1,1s1-0.4,1-1c0-0.2-0.1-0.5-0.2-0.6c1.1-0.2,2.2-0.4,3.3-0.4c0.5,0,1.1,0,1.6,0.1
		c-0.4,0.2-0.6,0.5-0.6,0.9c0,0.6,0.4,1,1,1s1-0.4,1-1c0-0.3-0.2-0.6-0.4-0.8c2.7,0.5,5.3,1.7,7.4,3.6c0,0.1,0,0.1,0,0.2
		c0,0.6,0.4,1,1,1c0.1,0,0.1,0,0.2,0c1.9,2.1,3.1,4.6,3.6,7.4c-0.2-0.2-0.5-0.4-0.8-0.4c-0.6,0-1,0.4-1,1s0.4,1,1,1
		c0.4,0,0.8-0.2,0.9-0.6c0.1,0.5,0.1,1,0.1,1.6c0,1.1-0.1,2.2-0.4,3.3c-0.2-0.1-0.4-0.2-0.6-0.2c-0.6,0-1,0.4-1,1s0.4,1,1,1
		c0,0,0.1,0,0.1,0C-512.6,395.1-513.8,397-515.4,398.6z"/>
	<circle class="st0" cx="-539" cy="383" r="1"/>
	<circle class="st0" cx="-533" cy="377" r="1"/>
	<circle class="st0" cx="-533" cy="383" r="1"/>
	<circle class="st0" cx="-527" cy="377" r="1"/>
	<circle class="st0" cx="-527" cy="383" r="1"/>
	<circle class="st0" cx="-536" cy="380" r="1"/>
	<circle class="st0" cx="-530" cy="380" r="1"/>
	<circle class="st0" cx="-521" cy="377" r="1"/>
	<circle class="st0" cx="-521" cy="383" r="1"/>
	<circle class="st0" cx="-515" cy="383" r="1"/>
	<circle class="st0" cx="-524" cy="380" r="1"/>
	<circle class="st0" cx="-518" cy="380" r="1"/>
	<circle class="st0" cx="-545" cy="389" r="1"/>
	<circle class="st0" cx="-539" cy="389" r="1"/>
	<circle class="st0" cx="-539" cy="395" r="1"/>
	<circle class="st0" cx="-542" cy="386" r="1"/>
	<circle class="st0" cx="-542" cy="392" r="1"/>
	<circle class="st0" cx="-536" cy="386" r="1"/>
	<circle class="st0" cx="-533" cy="389" r="1"/>
	<circle class="st0" cx="-533" cy="395" r="1"/>
	<circle class="st0" cx="-527" cy="389" r="1"/>
	<circle class="st0" cx="-527" cy="395" r="1"/>
	<circle class="st0" cx="-530" cy="386" r="1"/>
	<circle class="st0" cx="-536" cy="392" r="1"/>
	<circle class="st0" cx="-530" cy="392" r="1"/>
	<circle class="st0" cx="-524" cy="386" r="1"/>
	<circle class="st0" cx="-521" cy="389" r="1"/>
	<circle class="st0" cx="-521" cy="395" r="1"/>
	<circle class="st0" cx="-515" cy="389" r="1"/>
	<circle class="st0" cx="-515" cy="395" r="1"/>
	<circle class="st0" cx="-518" cy="386" r="1"/>
	<circle class="st0" cx="-524" cy="392" r="1"/>
	<circle class="st0" cx="-518" cy="392" r="1"/>
	<circle class="st0" cx="-536" cy="398" r="1"/>
	<circle class="st0" cx="-533" cy="401" r="1"/>
	<circle class="st0" cx="-527" cy="401" r="1"/>
	<circle class="st0" cx="-527" cy="407" r="1"/>
	<circle class="st0" cx="-530" cy="398" r="1"/>
	<circle class="st0" cx="-530" cy="404" r="1"/>
	<circle class="st0" cx="-524" cy="398" r="1"/>
	<circle class="st0" cx="-521" cy="401" r="1"/>
	<circle class="st0" cx="-518" cy="398" r="1"/>
	<circle class="st0" cx="-524" cy="404" r="1"/>
</g>
</svg>
