<?xml version="1.0" encoding="utf-8"?>
<!-- Generator: Adobe Illustrator 19.0.0, SVG Export Plug-In . SVG Version: 6.00 Build 0)  -->
<svg version="1.1" id="Capa_1" xmlns="http://www.w3.org/2000/svg" xmlns:xlink="http://www.w3.org/1999/xlink" x="0px" y="0px"
	 viewBox="-571 372.4 56.6 56.6" style="enable-background:new -571 372.4 56.6 56.6;" xml:space="preserve">
<style type="text/css">
	.st0{fill:#6C00C1;}
</style>
<path class="st0" d="M-517.9,383.1c-0.8-3.1-3.2-6.1-6.7-8.3c-4.3-2.8-10.5-3.1-16-0.8l-0.2,0.1c-0.1,0-0.2,0.1-0.3,0.1
	c-0.5,0.2-0.8,0.3-1.1,0.4c-0.9,0.4-0.9,0.4-2.4-0.1c-4.3-1.3-9.9-2.6-14.1-1.1c-5.7,2-10.8,8.8-9.2,19.2c0.2,1.2,0.4,2.5,0.6,3.7
	c1.3,9,2.7,18.3,6.2,26.8l0.1,0.3c0.9,2.1,2.3,5.6,4.8,5.6h0.2l0.2-0.1c2.3-1,3.2-3.2,3.8-4.8c0.4-1.1,0.8-2.2,1.2-3.3
	c0.9-2.7,1.8-5.3,3.4-7.6c1.2-1.8,4.4-5.6,8.6-3.1c2.8,1.6,3.6,5,4.5,8.2c0.2,0.9,0.5,1.9,0.8,2.7c1.2,3.7,2.8,7.6,5.3,7.8
	c1.3,0.1,2.5-0.8,3.6-2.6c2-3.4,2.8-7.3,3.6-11l0.3-1.3c0.3-1.4,0.7-2.9,1-4.4C-518,401-515.7,391.4-517.9,383.1z M-522,409.1
	c-0.4,1.5-0.7,3-1,4.4l-0.3,1.3c-0.8,3.6-1.6,7.2-3.4,10.4c-0.6,1.1-1.2,1.7-1.6,1.6c-0.5,0-1.7-0.8-3.6-6.5
	c-0.3-0.8-0.5-1.7-0.7-2.6c-0.9-3.4-1.9-7.3-5.4-9.4c-3.8-2.3-8.1-0.9-11.2,3.7c-1.7,2.5-2.7,5.4-3.6,8.1c-0.4,1.1-0.7,2.2-1.1,3.2
	c-0.6,1.6-1.2,3-2.5,3.6c-1.1-0.3-2.3-3.2-2.8-4.4l-0.1-0.3c-3.4-8.2-4.7-17.4-6-26.3c-0.2-1.3-0.4-2.5-0.6-3.7
	c-1-6.7,1.1-14.6,7.9-17c1.1-0.4,2.4-0.6,3.7-0.6c3.1,0,6.4,0.8,9,1.6c6.4,3.6,6.4,5.2,6.4,11.8l0,1.3c0,0.6,0.4,1,1,1
	c0.6,0,1-0.4,1-1l0-1.3c0-5.7,0-8.4-4.6-11.7h0c0.3-0.1,0.6-0.2,1-0.4c0.1-0.1,0.3-0.1,0.4-0.2l0.1-0.1c5-2,10.4-1.8,14.2,0.6
	c3.1,2,5.2,4.5,5.9,7.1C-517.8,391.4-520,400.8-522,409.1z"/>
</svg>
