<?xml version="1.0" encoding="iso-8859-1"?>
<!-- Generator: Adobe Illustrator 19.0.0, SVG Export Plug-In . SVG Version: 6.00 Build 0)  -->
<svg version="1.1" id="Capa_1" xmlns="http://www.w3.org/2000/svg" xmlns:xlink="http://www.w3.org/1999/xlink" x="0px" y="0px"
	 viewBox="0 0 512 512" style="enable-background:new 0 0 512 512;" xml:space="preserve">
<g>
	<g>
		<path d="M485.986,326.249C503.004,299.695,512,268.951,512,237.344c0-91.08-74.099-165.178-165.178-165.178
			c-32.546,0-63.83,9.422-90.822,27.288c-26.991-17.866-58.276-27.288-90.822-27.288c-37.998,0-75.126,13.279-104.547,37.392
			c-3.204,2.625-3.672,7.351-1.046,10.555c2.626,3.204,7.352,3.672,10.555,1.047c26.747-21.921,60.499-33.993,95.039-33.993
			c31.18,0,61.087,9.506,86.496,27.494c13.069,9.23,24.542,20.434,34.103,33.301c19.346,26.036,29.571,56.944,29.571,89.383v1.991
			c-0.37,34.256-10.537,64.808-30.219,90.81c-3.532,4.671-7.441,9.28-11.618,13.695c-6.557,6.927-13.976,13.559-22.052,19.712
			c-0.001,0.001-0.003,0.002-0.004,0.003c-18.31,13.95-40.547,25.904-66.094,35.53c-61.005,22.994-121.83,25.636-124.373,25.736
			c-0.22,0.006-0.434,0.013-0.654,0.013c-9.134,0-16.556-7.16-16.896-16.304c-0.17-4.516,1.429-8.828,4.503-12.143
			c3.075-3.315,7.259-5.235,11.827-5.408c0.646-0.028,16.072-0.738,38.115-4.189c0.008-0.001,0.016-0.004,0.024-0.005
			c0.003,0,0.006,0,0.01-0.001c28.815-4.647,53.839-11.109,76.497-19.754c11.158-4.248,21.706-9.049,31.352-14.27
			c0.001-0.001,0.002-0.002,0.003-0.002c0.003-0.001,0.006-0.002,0.009-0.004c6.997-3.804,13.516-7.819,19.379-11.932
			c0.001-0.001,0.002-0.001,0.003-0.002c0.003-0.002,0.005-0.004,0.008-0.006c0.004-0.003,0.008-0.005,0.012-0.008
			c0.001-0.001,0.003-0.002,0.004-0.003c9.099-6.345,17.206-13.278,24.096-20.604c4.827-5.127,9.185-10.588,12.955-16.233
			c0.024-0.036,0.047-0.072,0.07-0.108c12.569-18.884,18.84-39.989,19.167-64.514c0.019-0.655,0.02-1.337,0.02-2
			c0-22.835-6.646-44.957-19.216-63.972c-0.019-0.029-0.039-0.058-0.058-0.087c-9.754-14.743-22.95-27.269-38.166-36.229
			c-0.012-0.007-0.024-0.015-0.037-0.022c-0.005-0.003-0.009-0.006-0.014-0.008c-17.781-10.469-38.122-16.003-58.822-16.003
			c-64.14,0-116.321,52.182-116.321,116.322s52.182,116.321,116.321,116.321h2.171c-20.626,7.721-43.394,13.596-69.465,17.925
			c-24.148-12.155-44.598-30.59-59.24-53.436C23.176,294.021,15,266.076,15,237.344c0-35.018,12.373-69.132,34.839-96.06
			c2.654-3.18,2.227-7.91-0.954-10.563c-3.18-2.653-7.91-2.226-10.564,0.954C13.61,161.292,0,198.821,0,237.344
			c0,31.608,8.996,62.351,26.015,88.905c12.434,19.399,28.678,35.905,47.666,48.572c-8.813,0.909-14.189,1.157-14.527,1.172
			c-8.523,0.321-16.412,3.942-22.211,10.194c-5.8,6.253-8.817,14.389-8.495,22.905c0.642,17.239,14.648,30.743,31.886,30.743
			c0.362,0,0.714-0.009,1.075-0.019c0.029-0.001,0.127-0.004,0.156-0.005c5.759-0.228,51.527-2.493,103.982-18.228
			c8.664,1.723,44.783,8.311,90.454,8.311c45.755,0,81.923-6.613,90.5-8.32c53.885,16.077,101.633,18.147,103.936,18.237
			c0.026,0.001,0.075,0.002,0.101,0.003c0.37,0.011,0.75,0.021,1.119,0.021c17.244,0,31.253-13.504,31.896-30.744
			c0.651-17.587-13.127-32.435-30.667-33.096c-0.366-0.016-5.75-0.264-14.566-1.173
			C457.308,362.154,473.553,345.648,485.986,326.249z M255.998,192.508c6.883,13.88,10.493,29.161,10.493,44.835
			c-0.001,0.536,0,1.088-0.015,1.616c-0.001,0.042-0.002,0.085-0.003,0.128c-0.219,17.016-3.671,32.095-10.475,45.765
			c-6.808-13.669-10.26-28.748-10.48-45.765c0-0.045-0.001-0.09-0.003-0.135c-0.017-0.526-0.015-1.076-0.015-1.609
			C245.5,221.666,249.111,206.385,255.998,192.508z M247.01,177.701c-10.809,18.007-16.51,38.514-16.51,59.642
			c0,0.663,0.001,1.345,0.02,2c0.302,22.692,5.705,42.45,16.468,60.23c-2.625,3.563-5.512,7.031-8.633,10.346
			c-4.655,4.95-9.954,9.716-15.809,14.225c-16.842-24.657-25.551-53.15-25.893-84.831c-0.009-0.651-0.009-1.311-0.009-1.97
			c0-30.108,8.815-58.896,25.549-83.694C231.735,160.18,240.179,168.36,247.01,177.701z M165.178,338.664L165.178,338.664
			c-55.869,0.001-101.321-45.452-101.321-101.32c0-55.869,45.453-101.322,101.321-101.322c15.289,0,30.344,3.477,44.01,10.09
			c-18.044,27.09-27.544,58.448-27.544,91.231c0,0.728,0,1.455,0.01,2.153c0.376,34.757,9.995,66.082,28.597,93.244
			c-3.168,2.014-6.509,3.993-9.987,5.924H165.178z M256,414.893c-23.365,0.001-44.388-1.83-60.154-3.779
			c22.724-8.986,42.909-19.818,60.153-32.267c17.24,12.45,37.429,23.284,60.163,32.271C300.41,413.065,279.397,414.893,256,414.893z
			 M452.271,390.981c9.329,0.353,16.637,8.227,16.292,17.553c-0.34,9.14-7.766,16.3-16.906,16.3c-0.227,0-0.46-0.008-0.629-0.012
			c-2.559-0.101-63.357-2.733-124.39-25.738c-22.024-8.296-41.575-18.325-58.274-29.866c5.734-4.819,11.112-9.86,16.043-15.069
			c2.894-3.06,5.656-6.213,8.287-9.411c4.296,2.767,8.813,5.456,13.532,8.018c0.003,0.001,0.005,0.002,0.008,0.004
			c9.636,5.216,20.181,10.017,31.341,14.269c22.712,8.653,47.739,15.115,76.509,19.755c0.003,0,0.007,0,0.01,0.001
			c0.008,0.001,0.016,0.004,0.024,0.005C436.168,390.242,451.578,390.951,452.271,390.981z M414.116,371.591
			c-26.03-4.323-48.801-10.198-69.471-17.925h2.177c26.385,0,52.248-9.122,72.824-25.685c3.227-2.597,3.736-7.319,1.139-10.545
			c-2.598-3.226-7.318-3.737-10.545-1.139c-18.18,14.634-40.109,22.37-63.417,22.37H311.76c-3.467-1.923-6.81-3.909-10.014-5.945
			c18.605-27.161,28.225-58.485,28.601-93.305v-2.072c0-32.782-9.5-64.141-27.545-91.231c13.666-6.613,28.724-10.09,44.019-10.09
			c55.869,0,101.322,45.453,101.322,101.322c0,21.138-6.473,41.405-18.72,58.61c-2.402,3.375-1.613,8.057,1.761,10.459
			c1.319,0.939,2.838,1.39,4.343,1.39c2.344,0,4.653-1.096,6.117-3.151c14.064-19.759,21.499-43.034,21.499-67.308
			c0-64.14-52.182-116.322-116.322-116.322c-18.484,0-36.673,4.421-53.014,12.815c-7.382-9.163-15.707-17.466-24.829-24.848
			c23.432-14.297,50.131-21.823,77.843-21.823C429.63,87.166,497,154.535,497,237.344c0,28.733-8.176,56.677-23.644,80.811
			C458.713,341,438.264,359.435,414.116,371.591z"/>
	</g>
</g>
<g>
</g>
<g>
</g>
<g>
</g>
<g>
</g>
<g>
</g>
<g>
</g>
<g>
</g>
<g>
</g>
<g>
</g>
<g>
</g>
<g>
</g>
<g>
</g>
<g>
</g>
<g>
</g>
<g>
</g>
</svg>
