<?xml version="1.0" encoding="iso-8859-1"?>
<!-- Generator: Adobe Illustrator 19.0.0, SVG Export Plug-In . SVG Version: 6.00 Build 0)  -->
<svg version="1.1" id="Capa_1" xmlns="http://www.w3.org/2000/svg" xmlns:xlink="http://www.w3.org/1999/xlink" x="0px" y="0px"
	 viewBox="0 0 402.8 402.8" style="enable-background:new 0 0 402.8 402.8;" xml:space="preserve">
<g>
	<g>
		<path d="M298.6,54.4V37.2c0-20.4-19.2-37.2-42.8-37.2h-104C128.2,0,109,16.8,109,37.2V54c-22.8,0.8-41.2,19.6-41.2,42.8V360
			c0,23.6,19.2,42.8,42.8,42.8h181.6c23.6,0,42.8-19.2,42.8-42.8V96.8C335,75.2,319.4,57.6,298.6,54.4z M151.8,13.2h104
			c13.6,0,24.8,7.6,28.4,17.6H123.4C127,20.8,138.2,13.2,151.8,13.2z M121.8,44h163.6v10H121.8V44z M81,96.8
			c0-16.4,13.2-29.6,29.6-29.6h181.6c16.4,0,29.6,13.2,29.6,29.6v39.6H81V96.8z M322.2,360.4c-0.4,16.4-13.6,29.6-30,29.6H110.6
			C94.2,390,81,376.8,81,360.4v-39.6h241.2V360.4z M322.2,307.2h-0.4H81V149.6h241.2V307.2z"/>
	</g>
</g>
<g>
</g>
<g>
</g>
<g>
</g>
<g>
</g>
<g>
</g>
<g>
</g>
<g>
</g>
<g>
</g>
<g>
</g>
<g>
</g>
<g>
</g>
<g>
</g>
<g>
</g>
<g>
</g>
<g>
</g>
</svg>
