<?xml version="1.0" encoding="iso-8859-1"?>
<!-- Generator: Adobe Illustrator 19.0.0, SVG Export Plug-In . SVG Version: 6.00 Build 0)  -->
<svg version="1.1" id="Capa_1" xmlns="http://www.w3.org/2000/svg" xmlns:xlink="http://www.w3.org/1999/xlink" x="0px" y="0px"
	 viewBox="0 0 512 512" style="enable-background:new 0 0 512 512;" xml:space="preserve">
<g>
	
		<linearGradient id="SVGID_1_" gradientUnits="userSpaceOnUse" x1="-43.0078" y1="606.7109" x2="16.6222" y2="606.7109" gradientTransform="matrix(8.5333 0 0 -8.5333 369.1334 5433.2671)">
		<stop  offset="0" style="stop-color:#FC4A1A"/>
		<stop  offset="1" style="stop-color:#F7B733"/>
	</linearGradient>
	<path style="fill:url(#SVGID_1_);" d="M494.933,247.467c0-28.279-22.921-51.2-51.2-51.2h-2.304
		c7.057-9.984,10.837-21.905,10.837-34.133c0-32.99-26.743-59.733-59.733-59.733c-9.481-0.026-18.825,2.261-27.221,6.656
		c5.205-4.011,13.397-11.264,8.021-20.907s-17.749-7.765-24.064-6.144c-2.739,0.939-5.641,1.314-8.533,1.109
		c-0.256-1.894-0.256-3.823,0-5.717c1.809-7.671-0.717-15.718-6.571-20.992c-6.571-4.318-14.959-4.745-21.931-1.109
		c-1.801,0.819-3.738,1.289-5.717,1.365c-0.009-1.843,0.222-3.678,0.683-5.461c1.809-7.646-0.708-15.667-6.571-20.907
		c-6.511-4.386-14.899-4.847-21.845-1.195c-1.775,0.819-3.678,1.314-5.632,1.451c-1.101-2.978-1.681-6.127-1.707-9.301
		C270.848,14.165,269.653,0,256,0l0,0c-13.653,0-14.848,14.251-15.445,21.077c0.111,3.183-0.435,6.349-1.621,9.301
		c-1.886-0.213-3.721-0.7-5.461-1.451c-6.972-3.635-15.36-3.209-21.931,1.109c-5.999,5.257-8.593,13.406-6.741,21.163
		c0.401,1.946,0.401,3.942,0,5.888c-1.886-0.188-3.729-0.683-5.461-1.451c-6.972-3.635-15.36-3.209-21.931,1.109
		c-5.811,5.163-8.388,13.056-6.741,20.651c0.35,1.92,0.35,3.883,0,5.803c-2.697,0.06-5.376-0.341-7.936-1.195
		c-6.315-1.536-18.176-4.523-24.064,6.144c-2.313,3.857-2.313,8.687,0,12.544c-11.571-4.48-23.859-6.793-36.267-6.827H0v102.4
		c0.026,34.347,17.263,66.389,45.909,85.333H0v8.533c0.017,93.773,69.231,173.15,162.133,185.941V512h187.733v-35.925
		C442.769,463.283,511.983,383.906,512,290.133V281.6h-30.208C490.223,272.23,494.908,260.07,494.933,247.467z M477.867,247.467
		c0,18.85-15.283,34.133-34.133,34.133S409.6,266.317,409.6,247.467s15.283-34.133,34.133-34.133S477.867,228.617,477.867,247.467z
		 M204.8,242.005L204.8,242.005c0.23,1.809,0.23,3.652,0,5.461c0,0,0,0.683,0,0.939V242.005z M204.8,256.512
		c0.41,4.796,2.825,9.199,6.656,12.117c6.511,4.386,14.899,4.847,21.845,1.195c1.775-0.819,3.678-1.314,5.632-1.451
		c1.101,2.978,1.681,6.127,1.707,9.301c0,1.109,0,2.475,0.427,3.925H204.8V256.512z M300.629,268.629l1.877-1.792
		c2.219,5.427,5.367,10.419,9.301,14.763h-40.789c0-1.451,0-2.816,0.427-4.011c-0.111-3.183,0.435-6.349,1.621-9.301
		c1.886,0.179,3.738,0.666,5.461,1.451C285.542,273.442,294.016,273.015,300.629,268.629z M315.733,247.467
		c0-18.85,15.283-34.133,34.133-34.133c18.85,0,34.133,15.283,34.133,34.133S368.717,281.6,349.867,281.6
		C331.017,281.6,315.733,266.317,315.733,247.467z M396.8,227.072c-0.794-1.826-1.707-3.593-2.731-5.291c1.963,0,3.84,0,5.717,0
		C398.686,223.488,397.696,225.254,396.8,227.072z M396.8,267.861c2.108,5.001,4.992,9.634,8.533,13.739h-17.408
		C391.586,277.521,394.581,272.879,396.8,267.861z M435.2,162.133c0,23.561-19.106,42.667-42.667,42.667
		s-42.667-19.106-42.667-42.667s19.106-42.667,42.667-42.667S435.2,138.573,435.2,162.133z M162.133,99.413
		c6.366,2.065,13.338,1.058,18.859-2.731c5.922-5.197,8.508-13.227,6.741-20.907c-0.401-1.946-0.401-3.942,0-5.888
		c1.894,0.222,3.738,0.734,5.461,1.536c6.972,3.635,15.36,3.209,21.931-1.109c5.888-5.257,8.465-13.286,6.741-20.992
		c-0.444-1.937-0.444-3.951,0-5.888c1.911,0.256,3.772,0.777,5.547,1.536c6.946,3.652,15.334,3.191,21.845-1.195
		c3.337-2.628,5.709-6.289,6.741-10.411c0.99,4.096,3.302,7.748,6.571,10.411c6.571,4.318,14.959,4.745,21.931,1.109
		c1.758-0.836,3.686-1.271,5.632-1.28c0.256,1.894,0.256,3.823,0,5.717c-1.792,7.646,0.725,15.659,6.571,20.907
		c6.537,4.326,14.908,4.745,21.845,1.109c1.818-0.836,3.797-1.271,5.803-1.28c0.299,1.894,0.299,3.823,0,5.717
		c-1.758,7.646,0.759,15.642,6.571,20.907c5.555,3.772,12.544,4.779,18.944,2.731c-4.949,3.285-8.098,8.67-8.533,14.592
		c-0.034,4.087,1.673,7.996,4.693,10.752c-16.623,20.676-17.493,49.877-2.133,71.509c-17.408,2.082-32.546,12.937-40.107,28.757
		c-2.526,0.452-4.915,1.476-6.997,2.987c-5.982,5.342-8.533,13.542-6.656,21.333c0.444,1.937,0.444,3.951,0,5.888
		c-1.911-0.256-3.78-0.777-5.547-1.536c-6.946-3.652-15.334-3.191-21.845,1.195c-3.337,2.628-5.709,6.289-6.741,10.411
		c-0.99-4.096-3.302-7.748-6.571-10.411c-6.571-4.318-14.959-4.745-21.931-1.109c-1.783,0.845-3.738,1.289-5.717,1.28
		c-0.256-1.894-0.256-3.823,0-5.717c1.792-7.646-0.725-15.659-6.571-20.907c-2.995-2.287-6.647-3.541-10.411-3.584v-28.587
		c0.009-8.644-1.109-17.246-3.328-25.6l45.995,46.165V230.4c0,4.71,3.823,8.533,8.533,8.533c4.71,0,8.533-3.823,8.533-8.533v-13.568
		l48.725-48.64c3.345-3.345,3.345-8.772,0-12.117c-3.345-3.345-8.772-3.345-12.117,0l0,0l-36.608,36.693v-27.136l40.192-40.107
		c3.345-3.345,3.345-8.772,0-12.117s-8.772-3.345-12.117,0l0,0l-28.075,28.16v-27.136l23.125-23.04
		c3.345-3.345,3.345-8.772,0-12.117c-3.345-3.345-8.772-3.345-12.117,0l0,0l-11.008,11.093V68.267c0-4.71-3.823-8.533-8.533-8.533
		c-4.71,0-8.533,3.823-8.533,8.533v22.101l-11.008-11.093c-3.345-3.345-8.772-3.345-12.117,0c-3.345,3.345-3.345,8.772,0,12.117
		l23.125,23.04v27.136l-28.075-28.16c-3.345-3.345-8.772-3.345-12.117,0c-3.345,3.345-3.345,8.772,0,12.117l0,0l40.192,40.107
		v27.136l-36.608-36.693c-3.319-3.345-8.721-3.371-12.066-0.051c-0.017,0.017-0.034,0.034-0.051,0.051
		c-0.538,0.657-0.99,1.374-1.365,2.133c-6.042-14.933-15.548-28.211-27.733-38.741c0.666-1.655,1.007-3.422,1.024-5.205
		C170.257,108.262,167.108,102.784,162.133,99.413z M17.067,196.267v-85.333H102.4c47.13,0,85.333,38.204,85.333,85.333V281.6H102.4
		C55.27,281.6,17.067,243.396,17.067,196.267z M332.8,477.867v17.067H179.2v-17.067H332.8z M324.267,460.8H187.733
		c-91.025,0.111-166.118-71.228-170.667-162.133h477.867C490.385,389.572,415.292,460.911,324.267,460.8z"/>
	
		<linearGradient id="SVGID_2_" gradientUnits="userSpaceOnUse" x1="-43.0078" y1="613.7506" x2="16.6222" y2="613.7506" gradientTransform="matrix(8.5333 0 0 -8.5333 369.1334 5433.2671)">
		<stop  offset="0" style="stop-color:#FC4A1A"/>
		<stop  offset="1" style="stop-color:#F7B733"/>
	</linearGradient>
	<path style="fill:url(#SVGID_2_);" d="M48.896,130.731c-2.97-3.661-8.346-4.224-12.006-1.254c-3.661,2.97-4.224,8.346-1.254,12.006
		c0.247,0.307,0.512,0.589,0.794,0.853l110.933,119.467c3.328,3.311,8.704,3.311,12.032,0c3.43-3.209,3.618-8.585,0.427-12.032
		L48.896,130.731z"/>
	
		<linearGradient id="SVGID_3_" gradientUnits="userSpaceOnUse" x1="-43.0078" y1="613.7109" x2="16.6222" y2="613.7109" gradientTransform="matrix(8.5333 0 0 -8.5333 369.1334 5433.2671)">
		<stop  offset="0" style="stop-color:#FC4A1A"/>
		<stop  offset="1" style="stop-color:#F7B733"/>
	</linearGradient>
	<path style="fill:url(#SVGID_3_);" d="M51.2,187.733H34.133c-4.71,0-8.533,3.823-8.533,8.533s3.823,8.533,8.533,8.533H51.2
		c4.71,0,8.533-3.823,8.533-8.533S55.91,187.733,51.2,187.733z"/>
	
		<linearGradient id="SVGID_4_" gradientUnits="userSpaceOnUse" x1="-43.0078" y1="620.7109" x2="16.6222" y2="620.7109" gradientTransform="matrix(8.5333 0 0 -8.5333 369.1334 5433.2671)">
		<stop  offset="0" style="stop-color:#FC4A1A"/>
		<stop  offset="1" style="stop-color:#F7B733"/>
	</linearGradient>
	<path style="fill:url(#SVGID_4_);" d="M102.4,153.6c4.71,0,8.533-3.823,8.533-8.533V128c0-4.71-3.823-8.533-8.533-8.533
		c-4.71,0-8.533,3.823-8.533,8.533v17.067C93.867,149.777,97.69,153.6,102.4,153.6z"/>
	
		<linearGradient id="SVGID_5_" gradientUnits="userSpaceOnUse" x1="-43.0078" y1="615.7109" x2="16.6222" y2="615.7109" gradientTransform="matrix(8.5333 0 0 -8.5333 369.1334 5433.2671)">
		<stop  offset="0" style="stop-color:#FC4A1A"/>
		<stop  offset="1" style="stop-color:#F7B733"/>
	</linearGradient>
	<path style="fill:url(#SVGID_5_);" d="M136.533,196.267c4.71,0,8.533-3.823,8.533-8.533v-17.067c0-4.71-3.823-8.533-8.533-8.533
		S128,165.956,128,170.667v17.067C128,192.444,131.823,196.267,136.533,196.267z"/>
	
		<linearGradient id="SVGID_6_" gradientUnits="userSpaceOnUse" x1="-43.0078" y1="608.7109" x2="16.6222" y2="608.7109" gradientTransform="matrix(8.5333 0 0 -8.5333 369.1334 5433.2671)">
		<stop  offset="0" style="stop-color:#FC4A1A"/>
		<stop  offset="1" style="stop-color:#F7B733"/>
	</linearGradient>
	<path style="fill:url(#SVGID_6_);" d="M85.333,230.4H68.267c-4.71,0-8.533,3.823-8.533,8.533s3.823,8.533,8.533,8.533h17.067
		c4.71,0,8.533-3.823,8.533-8.533S90.044,230.4,85.333,230.4z"/>
</g>
<g>
</g>
<g>
</g>
<g>
</g>
<g>
</g>
<g>
</g>
<g>
</g>
<g>
</g>
<g>
</g>
<g>
</g>
<g>
</g>
<g>
</g>
<g>
</g>
<g>
</g>
<g>
</g>
<g>
</g>
</svg>
