<?xml version="1.0" encoding="iso-8859-1"?>
<!-- Generator: Adobe Illustrator 19.0.0, SVG Export Plug-In . SVG Version: 6.00 Build 0)  -->
<svg version="1.1" id="Capa_1" xmlns="http://www.w3.org/2000/svg" xmlns:xlink="http://www.w3.org/1999/xlink" x="0px" y="0px"
	 viewBox="0 0 512 512" style="enable-background:new 0 0 512 512;" xml:space="preserve">
<g>
	
		<linearGradient id="SVGID_1_" gradientUnits="userSpaceOnUse" x1="-43.5478" y1="581.7131" x2="16.5422" y2="581.7131" gradientTransform="matrix(8.5333 0 0 -8.5333 369.1334 5433.2686)">
		<stop  offset="0" style="stop-color:#FC4A1A"/>
		<stop  offset="1" style="stop-color:#F7B733"/>
	</linearGradient>
	<path style="fill:url(#SVGID_1_);" d="M503.467,426.65H8.533c-4.71,0-8.533,3.823-8.533,8.533v68.267
		c0,4.71,3.823,8.533,8.533,8.533h494.933c4.71,0,8.533-3.823,8.533-8.533v-68.267C512,430.473,508.177,426.65,503.467,426.65z
		 M409.6,443.716v17.067c0,9.429-7.637,17.067-17.067,17.067s-17.067-7.637-17.067-17.067v-17.067H409.6z M358.4,443.716v8.533
		c0,4.71-3.823,8.533-8.533,8.533c-4.71,0-8.533-3.823-8.533-8.533v-8.533H358.4z M494.933,494.916H17.067v-51.2h307.2v8.533
		c0,14.14,11.46,25.6,25.6,25.6l0,0c4.087-0.009,8.107-1.033,11.691-2.987c7.919,17.109,28.203,24.559,45.312,16.64
		c11.989-5.547,19.695-17.51,19.797-30.72v-17.067h68.267V494.916z"/>
	
		<linearGradient id="SVGID_2_" gradientUnits="userSpaceOnUse" x1="-43.5478" y1="618.7111" x2="16.5422" y2="618.7111" gradientTransform="matrix(8.5333 0 0 -8.5333 369.1334 5433.2686)">
		<stop  offset="0" style="stop-color:#FC4A1A"/>
		<stop  offset="1" style="stop-color:#F7B733"/>
	</linearGradient>
	<path style="fill:url(#SVGID_2_);" d="M511.403,261.7c0.034-0.256,0.034-0.512,0-0.768c-0.35-0.862-0.87-1.647-1.536-2.304l0,0l0,0
		L262.4,2.628c-3.268-3.396-8.67-3.49-12.066-0.222c-0.077,0.077-0.154,0.145-0.222,0.222l-247.467,256l0,0l0,0
		c-0.666,0.657-1.186,1.442-1.536,2.304c-0.034,0.256-0.034,0.512,0,0.768c-0.247,0.751-0.427,1.519-0.512,2.304L0,264.516v34.133
		c0,4.71,3.823,8.533,8.533,8.533h494.933c4.71,0,8.533-3.823,8.533-8.533v-34.133c0,0,0,0,0-0.512
		C511.881,263.219,511.684,262.443,511.403,261.7z M256,20.804l227.328,235.179H28.672L256,20.804z M494.933,290.116H17.067V273.05
		h477.867V290.116z"/>
	
		<linearGradient id="SVGID_3_" gradientUnits="userSpaceOnUse" x1="-43.5478" y1="593.7131" x2="16.5422" y2="593.7131" gradientTransform="matrix(8.5333 0 0 -8.5333 369.1334 5433.2686)">
		<stop  offset="0" style="stop-color:#FC4A1A"/>
		<stop  offset="1" style="stop-color:#F7B733"/>
	</linearGradient>
	<path style="fill:url(#SVGID_3_);" d="M471.552,324.25H40.448C18.125,324.301,0.051,342.375,0,364.698v4.437
		c0.051,22.323,18.125,40.397,40.448,40.448h431.104c22.323-0.051,40.405-18.125,40.448-40.448v-4.437
		C511.949,342.375,493.875,324.301,471.552,324.25z M494.933,369.135c0,12.911-10.47,23.381-23.381,23.381l0,0H40.448
		c-12.911,0-23.381-10.47-23.381-23.381l0,0v-4.437c0-12.911,10.47-23.381,23.381-23.381h32.853l-19.627,19.541
		c-3.345,3.319-3.371,8.721-0.051,12.066c0.017,0.017,0.034,0.034,0.051,0.051c3.319,3.345,8.721,3.371,12.066,0.051
		c0.017-0.017,0.034-0.034,0.051-0.051l31.573-31.659h27.136l-19.627,19.541c-3.345,3.319-3.371,8.721-0.051,12.066
		c0.017,0.017,0.034,0.034,0.051,0.051c3.319,3.345,8.721,3.371,12.066,0.051c0.017-0.017,0.034-0.034,0.051-0.051l31.573-31.659
		h27.136l-19.627,19.541c-3.345,3.319-3.371,8.721-0.051,12.066c0.017,0.017,0.034,0.034,0.051,0.051
		c3.319,3.345,8.721,3.371,12.066,0.051c0.017-0.017,0.034-0.034,0.051-0.051l31.573-31.659h27.136l-19.627,19.541
		c-3.345,3.319-3.371,8.721-0.051,12.066c0.017,0.017,0.034,0.034,0.051,0.051c3.319,3.345,8.721,3.371,12.066,0.051
		c0.017-0.017,0.034-0.034,0.051-0.051l31.573-31.659h27.136l-19.627,19.541c-3.345,3.319-3.371,8.721-0.051,12.066
		c0.017,0.017,0.034,0.034,0.051,0.051c3.319,3.345,8.721,3.371,12.066,0.051c0.017-0.017,0.034-0.034,0.051-0.051l31.573-31.659
		h27.136l-19.627,19.541c-3.345,3.319-3.371,8.721-0.051,12.066c0.017,0.017,0.034,0.034,0.051,0.051
		c3.319,3.345,8.721,3.371,12.066,0.051c0.017-0.017,0.034-0.034,0.051-0.051l31.573-31.659h27.136l-19.627,19.541
		c-3.345,3.319-3.371,8.721-0.051,12.066c0.017,0.017,0.034,0.034,0.051,0.051c3.319,3.345,8.721,3.371,12.066,0.051
		c0.017-0.017,0.034-0.034,0.051-0.051l31.573-31.659h27.136l-19.627,19.541c-3.345,3.319-3.371,8.721-0.051,12.066
		c0.017,0.017,0.034,0.034,0.051,0.051c3.319,3.345,8.721,3.371,12.066,0.051c0.017-0.017,0.034-0.034,0.051-0.051l31.573-31.659
		h15.787c12.911,0,23.381,10.47,23.381,23.381l0,0L494.933,369.135L494.933,369.135z"/>
</g>
<g>
</g>
<g>
</g>
<g>
</g>
<g>
</g>
<g>
</g>
<g>
</g>
<g>
</g>
<g>
</g>
<g>
</g>
<g>
</g>
<g>
</g>
<g>
</g>
<g>
</g>
<g>
</g>
<g>
</g>
</svg>
