<?xml version="1.0" encoding="iso-8859-1"?>
<!-- Generator: Adobe Illustrator 19.0.0, SVG Export Plug-In . SVG Version: 6.00 Build 0)  -->
<svg version="1.1" id="Capa_1" xmlns="http://www.w3.org/2000/svg" xmlns:xlink="http://www.w3.org/1999/xlink" x="0px" y="0px"
	 viewBox="0 0 512 512" style="enable-background:new 0 0 512 512;" xml:space="preserve">
<g>
	<g>
		<path d="M504.5,394.413h-13.885c3.675-5.431,5.823-11.976,5.823-19.012c0-9.531-3.946-18.154-10.284-24.335
			c6.244-4.76,10.284-12.272,10.284-20.712c0-7.247-2.979-13.81-7.774-18.534c4.795-4.725,7.774-11.287,7.774-18.534
			c0-3.943-0.886-7.682-2.461-11.035H504.5c4.142,0,7.5-3.358,7.5-7.5c0-29.564-11.515-57.361-32.424-78.271
			c-20.909-20.909-48.706-32.424-78.271-32.424h-67.823l11.87-18.628c-0.554,1.904,18.466,0.175,19.295-0.08
			c8.799-2.708,16.539-8.741,21.794-16.988s7.453-17.812,6.19-26.93c-0.95-6.859-3.759-12.875-8.076-17.527l12.292-19.291
			c2.226-3.494,1.198-8.129-2.295-10.355c-3.492-2.225-8.129-1.199-10.355,2.295l-12.292,19.291
			c-6.041-1.948-12.681-1.952-19.299,0.085c-8.799,2.708-16.539,8.741-21.793,16.988c-9.522,14.944-8.324,33.345,1.896,44.442
			l-17.012,26.699h-205c-22.359,0-43.91,6.641-62.321,19.205c-3.421,2.335-4.302,7.001-1.968,10.423
			c2.335,3.421,7.001,4.302,10.423,1.967c15.909-10.857,34.536-16.595,53.866-16.595h5.789v48.616
			c0,14.038,11.42,25.458,25.458,25.458c14.038,0,25.458-11.42,25.458-25.458v-48.616h63.142v48.616
			c0,14.038,11.42,25.458,25.458,25.458s25.458-11.42,25.458-25.458v-48.616h63.14v48.616c0,14.038,11.42,25.458,25.458,25.458
			c14.038,0,25.458-11.42,25.458-25.458v-48.616h5.789c25.558,0,49.588,9.955,67.665,28.031
			c16.296,16.297,25.992,37.433,27.743,60.165H15.297c1.522-19.212,8.853-37.693,21.024-52.708
			c2.608-3.218,2.115-7.941-1.103-10.549c-3.219-2.609-7.941-2.115-10.549,1.103C8.761,224.72,0,249.458,0,274.751
			c0,4.142,3.358,7.5,7.5,7.5h10.523c-1.576,3.353-2.461,7.091-2.461,11.035c0,7.248,2.979,13.81,7.774,18.534
			c-4.795,4.725-7.774,11.287-7.774,18.535c0,8.44,4.04,15.951,10.284,20.711c-6.338,6.181-10.284,14.804-10.284,24.335
			c0,7.037,2.148,13.582,5.823,19.012H7.5c-4.142,0-7.5,3.358-7.5,7.5c0,31.434,25.573,57.006,57.006,57.006h397.988
			c31.433,0,57.006-25.572,57.006-57.006C512,397.771,508.642,394.413,504.5,394.413z M343.462,100.974
			c5.307-8.329,17.506-15.465,27.227-9.272c9.65,6.147,8.516,20.101,3.102,28.597c-5.448,8.552-17.54,15.445-27.229,9.271
			C338.201,124.242,336.81,111.414,343.462,100.974z M152.4,227.672c0,5.767-4.691,10.458-10.458,10.458
			c-5.767,0-10.458-4.691-10.458-10.458v-48.616H152.4V227.672z M266.458,227.672c0,5.767-4.691,10.458-10.458,10.458
			c-5.767,0-10.458-4.691-10.458-10.458v-48.616h20.916V227.672z M380.516,227.672c0,5.767-4.691,10.458-10.458,10.458
			c-5.767,0-10.458-4.691-10.458-10.458v-48.616h20.916V227.672z M470.404,282.25c6.085,0.001,11.034,4.951,11.034,11.035
			c0,6.084-4.95,11.034-11.034,11.034h-32.22l24.795-22.069H470.404z M481.439,375.4c0,10.483-8.529,19.012-19.014,19.012H49.574
			c-10.483,0-19.012-8.529-19.012-19.012c0-10.482,8.528-19.011,19.01-19.012h412.856C472.91,356.389,481.439,364.918,481.439,375.4
			z M440.418,282.251l-42.095,37.466l-42.094-37.466H440.418z M333.667,282.251l24.795,22.069H295.86l24.795-22.069H333.667z
			 M298.094,282.251L298.094,282.251L256,319.717l-42.094-37.466H298.094z M191.344,282.251l24.795,22.069h-62.602l24.795-22.069
			H191.344z M155.771,282.251l-42.094,37.466l-42.094-37.466H155.771z M41.598,282.251h7.423l24.795,22.069h-32.22
			c-6.084,0-11.035-4.95-11.035-11.034S35.512,282.251,41.598,282.251z M41.596,319.319h49.072c0,0,17.994,16.016,18.022,16.041
			c2.743,2.441,7.224,2.439,9.973,0l18.022-16.041h96.307c0,0,18.008,16.028,18.022,16.041c2.76,2.457,7.206,2.455,9.973,0
			l18.022-16.041h96.307c0,0,18.009,16.029,18.022,16.041c2.758,2.454,7.209,2.452,9.973,0l18.022-16.041h49.073
			c6.083,0,11.032,4.951,11.032,11.035c0,6.084-4.95,11.034-11.034,11.034H41.596c-6.084,0-11.035-4.95-11.035-11.035
			C30.561,324.268,35.511,319.319,41.596,319.319z M454.994,443.919H57.006c-20.603,0-37.79-14.909-41.335-34.506H496.33
			C492.784,429.01,475.598,443.919,454.994,443.919z"/>
	</g>
</g>
<g>
</g>
<g>
</g>
<g>
</g>
<g>
</g>
<g>
</g>
<g>
</g>
<g>
</g>
<g>
</g>
<g>
</g>
<g>
</g>
<g>
</g>
<g>
</g>
<g>
</g>
<g>
</g>
<g>
</g>
</svg>
