<?xml version="1.0" encoding="iso-8859-1"?>
<!-- Generator: Adobe Illustrator 19.0.0, SVG Export Plug-In . SVG Version: 6.00 Build 0)  -->
<svg xmlns="http://www.w3.org/2000/svg" xmlns:xlink="http://www.w3.org/1999/xlink" version="1.1" id="Capa_1" x="0px" y="0px" viewBox="0 0 512 512" style="enable-background:new 0 0 512 512;" xml:space="preserve" width="512px" height="512px">
<g>
	<g>
		<path d="M465.556,301.28l-158.368-158.4c-18.72-18.752-49.216-18.752-67.904-0.032c-15.584,15.584-17.408,38.912-7.072,57.216    c-10.848,22.72-18.56,54.208-22.592,95.104L160.084,52.8v-0.032C158.356,23.424,134.164,0,104.404,0c-30.88,0-56,25.12-56,56v8    c-8.832,0-16,7.168-16,16c0,8.832,7.168,16,16,16h32c8.832,0,16-7.168,16-16c0-8.832-7.168-16-16-16v-8c0-13.248,10.784-24,24-24    s24,10.752,24,24v104h-32c-8.832,0-16,7.168-16,16c0,8.832,7.168,16,16,16h32v32h-32c0-8.832-7.168-16-16-16    c-8.832,0-16,7.168-16,16v32c0,8.832,7.168,16,16,16c8.832,0,16-7.168,16-16h32v150.08c0,27.584,11.232,54.88,31.04,75.104    C179.412,500.768,206.676,512,234.324,512c37.408,0,72.256-19.968,90.912-52.032c24.48-41.568,49.824-71.744,73.984-89.536    c8.864,8.16,20.256,12.768,32.384,12.768c12.8,0,24.864-4.992,33.952-14.048C484.276,350.432,484.276,320,465.556,301.28z     M297.588,443.808C284.628,466.112,260.372,480,234.324,480c-19.328,0-38.4-7.904-52.224-21.44    c-13.792-14.048-21.696-33.184-21.696-52.48V214.176l22.4,109.568c2.72,13.6,14.336,23.008,28.064,23.008    c0.672,0,1.344-0.032,2.016-0.064c14.624-0.96,25.952-12.288,26.88-26.944c2.464-38.752,7.84-70.272,15.648-92.896l120.8,120.8    C349.652,368.416,323.284,400.16,297.588,443.808z M442.9,346.496c-6.048,6.016-16.576,6.016-22.624,0l-158.368-158.4    c-6.24-6.24-6.24-16.384,0-22.624c3.136-3.104,7.2-4.672,11.296-4.672c4.096,0,8.192,1.536,11.328,4.672l158.368,158.4    C449.14,330.112,449.14,340.256,442.9,346.496z" fill="#4d1a50"/>
	</g>
</g>
<g>
</g>
<g>
</g>
<g>
</g>
<g>
</g>
<g>
</g>
<g>
</g>
<g>
</g>
<g>
</g>
<g>
</g>
<g>
</g>
<g>
</g>
<g>
</g>
<g>
</g>
<g>
</g>
<g>
</g>
</svg>
