<?xml version="1.0" encoding="utf-8"?>
<!-- Generator: Adobe Illustrator 19.0.0, SVG Export Plug-In . SVG Version: 6.00 Build 0)  -->
<svg version="1.1" id="Capa_1" xmlns="http://www.w3.org/2000/svg" xmlns:xlink="http://www.w3.org/1999/xlink" x="0px" y="0px"
	 viewBox="-569 371 60 60" style="enable-background:new -569 371 60 60;" xml:space="preserve">
<style type="text/css">
	.st0{fill:#0000FF;}
</style>
<g>
	<path class="st0" d="M-522.5,402c-4.1,0-7.4,3.1-7.9,7h-11.1v-6.1c1-0.3,1.9-0.9,2.5-1.9l12.9-21.9c0.8-1.3,0.8-2.8,0-4.1
		s-2.1-2.1-3.5-2.1h-2.3c-0.6-1.2-1.8-2-3.1-2c-1.6,0-5.5,1.2-5.5,3.5s3.9,3.5,5.5,3.5c1.8,0,3.2-1.3,3.4-3h2c0.8,0,1.4,0.4,1.8,1
		c0.4,0.7,0.4,1.4,0,2.1l-12.9,21.9c-0.4,0.6-1,1-1.8,1s-1.4-0.4-1.8-1l-13.3-21.8c-0.4-0.6-0.4-1.4,0-2.1c0.4-0.7,1-1,1.8-1h2.3
		c0.2,1.7,1.7,3,3.5,3c1.6,0,5.5-1.2,5.5-3.5s-3.9-3.5-5.5-3.5c-1.4,0-2.6,0.8-3.1,2h-2.6c-1.5,0-2.8,0.8-3.5,2.1
		c-0.7,1.3-0.7,2.8,0,4.1L-546,401c0.6,1,1.5,1.6,2.5,1.9v6.1h-9c-6.1,0-11,4.9-11,11s4.9,11,11,11s11-4.9,11-11v-9h11.1
		c0.5,3.9,3.9,7,7.9,7c4.4,0,8-3.6,8-8S-518.1,402-522.5,402z M-535,376c-1.2,0-3.4-1-3.5-1.5c0.1-0.5,2.3-1.5,3.5-1.5
		c0.8,0,1.5,0.7,1.5,1.5S-534.2,376-535,376z M-550,373c1.2,0,3.4,1,3.5,1.5c-0.1,0.5-2.3,1.5-3.5,1.5c-0.8,0-1.5-0.7-1.5-1.5
		S-550.8,373-550,373z M-543.5,420c0,5-4,9-9,9s-9-4-9-9s4-9,9-9h9V420z M-522.5,416c-3.3,0-6-2.7-6-6s2.7-6,6-6s6,2.7,6,6
		S-519.2,416-522.5,416z"/>
	<path class="st0" d="M-522.5,406c-2.2,0-4,1.8-4,4s1.8,4,4,4s4-1.8,4-4S-520.3,406-522.5,406z M-522.5,412c-1.1,0-2-0.9-2-2
		s0.9-2,2-2s2,0.9,2,2S-521.4,412-522.5,412z"/>
</g>
</svg>
