<?xml version="1.0" encoding="utf-8"?>
<!-- Generator: Adobe Illustrator 19.0.0, SVG Export Plug-In . SVG Version: 6.00 Build 0)  -->
<svg version="1.1" id="Capa_1" xmlns="http://www.w3.org/2000/svg" xmlns:xlink="http://www.w3.org/1999/xlink" x="0px" y="0px"
	 viewBox="-570 371.5 58.5 58.5" style="enable-background:new -570 371.5 58.5 58.5;" xml:space="preserve">
<style type="text/css">
	.st0{fill:#FFBC00;}
</style>
<g>
	<path class="st0" d="M-511.8,428.3l-5.6-5.6c0.3-0.3,0.4-0.8,0.2-1.2l-2.5-5.1c1.5-1.9,1.3-4.7-0.4-6.5l-4.7-4.7l0,0l-25-25
		l2.1-2.1c0.4-0.4,0.4-1,0-1.4c-0.4-0.4-1-0.4-1.4,0l-2.1,2.1l-2.8,2.8l-6.3-6.3l2.1-2.1c0.4-0.4,0.4-1,0-1.4s-1-0.4-1.4,0l-9.9,9.9
		c-0.4,0.4-0.4,1,0,1.4c0.2,0.2,0.5,0.3,0.7,0.3s0.5-0.1,0.7-0.3l2.1-2.1l6.3,6.3l-2.8,2.8l-2.1,2.1c-0.4,0.4-0.4,1,0,1.4
		c0.2,0.2,0.5,0.3,0.7,0.3c0.3,0,0.5-0.1,0.7-0.3l2.1-2.1l29.7,29.7c1,1,2.2,1.4,3.5,1.4c1,0,2.1-0.3,3-1l5.1,2.5
		c0.1,0.1,0.3,0.1,0.4,0.1c0.3,0,0.5-0.1,0.7-0.3l5.6,5.6c0.2,0.2,0.5,0.3,0.7,0.3c0.3,0,0.5-0.1,0.7-0.3
		C-511.5,429.3-511.5,428.7-511.8,428.3z M-545.7,404.4l2.8-2.8c0.4-0.4,0.4-1,0-1.4c-0.4-0.4-1-0.4-1.4,0l-2.8,2.8l-1.4-1.4
		l2.8-2.8c0.4-0.4,0.4-1,0-1.4c-0.4-0.4-1-0.4-1.4,0l-2.8,2.8l-1.8-1.8l1.4-1.4l0,0l5.7-5.7l0,0l1.4-1.4l15.2,15.2h-17L-545.7,404.4
		z M-550.3,394.1l-6.7-6.7l2.8-2.8l6.7,6.7L-550.3,394.1z M-551.4,381.7l6.7,6.7l-1.4,1.4l-6.7-6.7L-551.4,381.7z M-564.7,379.6
		l2.8-2.8l6.3,6.3l-2.8,2.8L-564.7,379.6z M-558.5,388.7l6.7,6.7l-1.4,1.4l-6.7-6.7L-558.5,388.7z M-530.1,419.9L-543,407h17
		l4.4,4.4c1.1,1.1,1.1,3,0,4.2l0,0h0l-4.2,4.2c0,0,0,0,0,0l0,0C-527.1,421-529,421-530.1,419.9z M-523.5,420.3l2.3-2.3l1.9,3.8
		l-0.4,0.4L-523.5,420.3z"/>
	<circle class="st0" cx="-533.5" cy="411" r="1"/>
	<circle class="st0" cx="-528.5" cy="417" r="1"/>
	<circle class="st0" cx="-526.5" cy="412" r="1"/>
</g>
</svg>
