<?xml version="1.0" encoding="utf-8"?>
<!-- Generator: Adobe Illustrator 19.0.0, SVG Export Plug-In . SVG Version: 6.00 Build 0)  -->
<svg version="1.1" id="Layer_1" xmlns="http://www.w3.org/2000/svg" xmlns:xlink="http://www.w3.org/1999/xlink" x="0px" y="0px"
	 viewBox="-49 141 512 512" style="enable-background:new -49 141 512 512;" xml:space="preserve">
<style type="text/css">
	.st0{fill:#FE688B;}
</style>
<g>
	<g>
		<path class="st0" d="M463,175.9c0-9.3-3.6-18.1-10.2-24.7S437.5,141,428.1,141c-9.3,0-18.1,3.7-24.7,10.3
			c-2.8,2.8-7.9,8.8-10.7,12.2c-2.9,3.5-2.4,8.8,1.1,11.7c3.5,2.9,8.8,2.4,11.7-1.1c4.4-5.3,8-9.4,9.6-11.1c3.5-3.5,8.1-5.4,13-5.5
			c0,0,0.1,0,0.1,0c4.9,0,9.4,1.9,12.8,5.3c3.4,3.4,5.3,8,5.3,12.9c0,4.9-2,9.6-5.5,13.1c-3.1,3.1-13.9,11.7-29.3,22.4
			c-9.1-15.6-26-26.1-45.4-26.1H244.8c-16.4,0-31.8,6.4-43.4,18L-41.4,446c-4.9,4.9-7.6,11.4-7.6,18.4s2.7,13.5,7.6,18.4
			l162.7,162.7c5.1,5.1,11.7,7.6,18.4,7.6s13.3-2.5,18.4-7.6l242.8-242.8c11.6-11.6,18-27,18-43.4V237.7c0-3.6-0.4-7.1-1.1-10.5
			c17.6-12.1,30.4-22.2,34.9-26.7C459.3,194,463,185.2,463,175.9z M402.2,359.2c0,12-4.7,23.2-13.1,31.7L146.3,633.7
			c-3.7,3.7-9.6,3.7-13.3,0L-29.7,471c-1.8-1.8-2.8-4.1-2.8-6.6s1-4.9,2.8-6.6l242.8-242.8c8.5-8.5,19.7-13.1,31.7-13.1h121.5
			c13.6,0,25.5,7.6,31.6,18.9c-9.8,6.5-20.8,13.4-32.4,20.2c-0.4-0.4-0.7-0.8-1.1-1.2c-13.6-13.6-35.7-13.6-49.3,0
			c-13.6,13.6-13.6,35.7,0,49.3c6.8,6.8,15.7,10.2,24.6,10.2c8.9,0,17.8-3.4,24.6-10.2c9.1-9.1,12.1-21.9,9-33.5
			c10.1-5.9,19.8-11.9,28.8-17.7c0,0,0,0.1,0,0.1L402.2,359.2L402.2,359.2z M332.3,268c1.5,2.9,4.4,4.6,7.4,4.6
			c1.3,0,2.5-0.3,3.7-0.9c4.9-2.4,9.7-5,14.5-7.6c0,4.7-1.7,9.5-5.3,13.1c-7.1,7.1-18.7,7.1-25.8,0c-7.1-7.1-7.1-18.7,0-25.8
			c3.6-3.6,8.2-5.3,12.9-5.3c3.7,0,7.4,1.1,10.5,3.4c-4.7,2.6-9.5,5.1-14.3,7.5C331.9,258.9,330.3,263.9,332.3,268z"/>
	</g>
</g>
<g>
	<g>
		<path class="st0" d="M198.2,310c-4.6,0-8.3,3.7-8.3,8.3v175.2c0,4.6,3.7,8.3,8.3,8.3s8.3-3.7,8.3-8.3V318.3
			C206.5,313.7,202.7,310,198.2,310z"/>
	</g>
</g>
<g>
	<g>
		<path class="st0" d="M160.2,381.2c-13.6-13.6-35.7-13.6-49.3,0c-13.6,13.6-13.6,35.7,0,49.3c6.8,6.8,15.7,10.2,24.6,10.2
			c8.9,0,17.8-3.4,24.6-10.2c6.6-6.6,10.2-15.3,10.2-24.6S166.8,387.8,160.2,381.2z M148.5,418.8c-7.1,7.1-18.7,7.1-25.8,0
			c-7.1-7.1-7.1-18.7,0-25.8c3.6-3.6,8.2-5.3,12.9-5.3s9.3,1.8,12.9,5.3c3.4,3.4,5.3,8,5.3,12.9
			C153.8,410.7,151.9,415.3,148.5,418.8z"/>
	</g>
</g>
<g>
	<g>
		<path class="st0" d="M285.4,381.2c-13.6-13.6-35.7-13.6-49.3,0c-13.6,13.6-13.6,35.7,0,49.3c6.8,6.8,15.7,10.2,24.6,10.2
			c8.9,0,17.8-3.4,24.6-10.2C298.9,416.9,298.9,394.8,285.4,381.2z M273.6,418.8c-7.1,7.1-18.7,7.1-25.8,0c-7.1-7.1-7.1-18.7,0-25.8
			c3.6-3.6,8.2-5.3,12.9-5.3s9.3,1.8,12.9,5.3C280.7,400.1,280.7,411.6,273.6,418.8z"/>
	</g>
</g>
</svg>
