<?xml version="1.0" encoding="iso-8859-1"?>
<!-- Generator: Adobe Illustrator 19.0.0, SVG Export Plug-In . SVG Version: 6.00 Build 0)  -->
<svg version="1.1" id="Capa_1" xmlns="http://www.w3.org/2000/svg" xmlns:xlink="http://www.w3.org/1999/xlink" x="0px" y="0px"
	 viewBox="0 0 512 512" style="enable-background:new 0 0 512 512;" xml:space="preserve">
<g>
	<g>
		<path d="M216.913,242.655c-4.142,0-7.5,3.357-7.5,7.5v7.074c0,4.142,3.358,7.5,7.5,7.5c4.142,0,7.5-3.358,7.5-7.5v-7.074
			C224.413,246.012,221.055,242.655,216.913,242.655z"/>
	</g>
</g>
<g>
	<g>
		<path d="M295.087,242.655c-4.142,0-7.5,3.357-7.5,7.5v7.074c0,4.142,3.358,7.5,7.5,7.5c4.142,0,7.5-3.358,7.5-7.5v-7.074
			C302.587,246.012,299.229,242.655,295.087,242.655z"/>
	</g>
</g>
<g>
	<g>
		<path d="M272.789,251.565c-3.119-2.726-7.857-2.408-10.583,0.711c-1.489,1.703-3.75,2.68-6.206,2.68s-4.717-0.977-6.206-2.68
			c-2.726-3.12-7.465-3.438-10.583-0.711c-3.119,2.726-3.438,7.464-0.711,10.583c4.337,4.962,10.716,7.809,17.5,7.809
			s13.163-2.846,17.5-7.809C276.226,259.03,275.907,254.291,272.789,251.565z"/>
	</g>
</g>
<g>
	<g>
		<path d="M487.998,280.778c1.333-6.098,2.019-12.317,2.019-18.589c0-16.902-4.948-33.487-14.313-47.973
			c-7.72-11.958-18.157-22.026-30.341-29.719c-0.006-16.889-4.952-33.461-14.311-47.937c-7.977-12.356-19.144-23.079-32.292-31.007
			c-3.548-2.139-8.157-0.997-10.295,2.55c-2.139,3.547-0.997,8.157,2.55,10.295c9.181,5.535,17.208,12.641,23.52,20.775
			c-0.009,0.006-0.017,0.013-0.025,0.019c-2.556,1.754-6.042,1.933-8.764,0.459c-0.73-0.395-1.405-0.901-2.004-1.511
			c-2.224-2.258-4.818-4.009-7.647-5.196c-5.72-2.399-12.392-2.396-18.108,0c-2.829,1.186-5.424,2.937-7.647,5.196
			c-3.183,3.232-8.837,3.241-12.026,0c-9.072-9.219-24.347-9.198-33.402,0c-3.235,3.286-8.803,3.276-12.027,0
			c-9.04-9.183-24.367-9.177-33.403,0c-2.801,2.847-7.476,3.357-10.773,1.049c-0.01-0.007-0.019-0.015-0.029-0.021
			c16.502-21.281,43.821-34.257,72.932-34.257c8.093,0,16.111,0.978,23.833,2.905c4.018,1.002,8.09-1.441,9.093-5.46
			c1.003-4.019-1.441-8.09-5.46-9.093c-8.909-2.224-18.15-3.352-27.466-3.352c-34.202,0-66.377,15.619-85.61,41.154
			c-19.233-25.536-51.408-41.154-85.61-41.154c-36.593,0-70.862,17.871-89.444,46.652c-9.355,14.468-14.303,31.042-14.31,47.933
			c-12.181,7.691-22.617,17.757-30.343,29.725c-9.362,14.477-14.31,31.063-14.31,47.967c0,6.271,0.687,12.491,2.019,18.589
			C10.356,283.354,0,295.359,0,309.742c0,14.482,10.498,26.549,24.282,29.014c0,0,10.729,25.834,10.729,25.833
			c14.507,34.931,48.32,57.501,86.144,57.501h269.69c37.823,0,71.637-22.57,86.144-57.5l10.729-25.834
			C501.502,336.292,512,324.224,512,309.742C512,295.359,501.644,283.354,487.998,280.778z M467.007,229.642
			c0.066-0.042,0.135-0.079,0.201-0.122c5.128,10.214,7.81,21.363,7.81,32.667c0,6.114-0.772,12.171-2.299,18.07
			c0,0-114.852,0-114.856,0c0.07-0.023,0.136-0.686,0.152-0.768c1.154-5.689,1.741-11.497,1.741-17.302
			c0-10.44-1.925-20.899-5.59-30.673c-0.021-0.056-0.038-0.113-0.06-0.169c0.061,0.029,0.574,0.242,0.769,0.319
			c2.747,1.091,5.721,1.653,8.672,1.653c6.183,0,12.36-2.588,16.701-6.994c3.28-3.329,8.75-3.327,12.027-0.001
			c3.543,3.596,8.194,5.991,13.19,6.735c2.324,0.346,4.698,0.345,7.022,0c4.605-0.686,8.871-2.721,12.338-5.911
			c4.57-4.205,9.199-4.177,13.729-0.003c3.467,3.191,7.735,5.227,12.341,5.914C456.403,233.877,462.311,232.65,467.007,229.642z
			 M459.189,216.828c-0.008,0.005-0.016,0.012-0.024,0.018c-3.261,2.302-7.973,1.796-10.772-1.049c-9.056-9.203-24.345-9.2-33.403,0
			c-1.525,1.549-3.755,2.519-6.013,2.519c-2.176,0-4.422-0.902-6.013-2.519c-9.071-9.218-24.344-9.201-33.402,0
			c-2.812,2.855-7.414,3.329-10.733,1.079c-1.265-0.857-2.267-2.077-3.468-3.022c-3.858-3.035-8.677-4.845-13.586-5.037
			c-0.033-0.001-0.065-0.007-0.097-0.008c-2.699-3.592-5.655-6.995-8.823-10.18c0.824-0.559,1.655-1.106,2.497-1.637
			c15.321-9.652,33.536-14.56,51.612-14.421C414.32,182.783,442.132,194.819,459.189,216.828z M344.756,262.188
			c0,5.969-0.75,11.95-2.218,17.734c-0.029,0.112-0.062,0.224-0.091,0.336H169.554v0.001c-0.029-0.112-0.063-0.224-0.091-0.336
			c-1.471-5.784-2.218-11.767-2.218-17.734c0-11.304,2.681-22.453,7.81-32.667c0.066,0.043,0.135,0.079,0.201,0.122
			c3.734,2.397,8.166,3.673,12.601,3.673c6.164,0,12.308-2.532,16.702-6.994c3.238-3.293,8.784-3.292,12.026,0
			c9.051,9.19,24.343,9.195,33.402,0c3.271-3.32,8.76-3.319,12.027-0.001c9.047,9.19,24.353,9.191,33.403,0
			c3.267-3.317,8.759-3.323,12.026,0c4.384,4.452,10.453,6.994,16.702,6.994c4.493,0,9.044-1.327,12.805-3.797
			C342.076,239.736,344.756,250.887,344.756,262.188z M276.978,155.401c4.971-0.74,9.665-3.157,13.19-6.735
			c3.249-3.298,8.79-3.286,12.027,0c9.034,9.171,24.39,9.147,33.403,0c3.278-3.327,8.754-3.323,12.026,0
			c5.198,5.28,12.89,7.839,20.212,6.735c4.966-0.739,9.668-3.16,13.191-6.735c3.274-3.323,8.755-3.322,12.026,0
			c3.543,3.596,8.194,5.991,13.191,6.735c5.523,0.823,11.41-0.385,16.112-3.415c0.066-0.042,0.135-0.079,0.201-0.122
			c3.881,7.729,6.36,15.993,7.337,24.455c-11.463-4.847-23.823-7.732-36.507-8.521c-0.182-0.012-0.364-0.023-0.545-0.034
			c-23.172-1.369-46.806,4.517-66.354,17.107c-1.815,1.169-3.613,2.381-5.352,3.662c-14.063-10.379-30.6-17.12-48.419-19.738
			c-0.025-0.138-0.497-2.531-0.737-3.582c-0.768-3.359-1.788-6.62-2.845-9.896C271.793,155.57,274.315,155.798,276.978,155.401z
			 M320.442,207.481c2.056,1.94,4.106,4.096,5.977,6.282c-0.109-0.112-4.467,4.31-5.297,3.991c-1.938-0.744-3.177-2.26-4.727-3.553
			c-4.201-3.502-9.434-5.406-14.967-5.406c-6.323,0-12.254,2.487-16.701,7.004c-3.992,4.055-9.166,2.55-13.003-0.932
			c-3.74-3.395-8.386-5.461-13.375-5.956c-6.86-0.68-14.061,1.82-19.052,6.888c-3.258,3.308-8.765,3.312-12.026,0
			c-4.447-4.517-10.378-7.004-16.701-7.004c-5.533,0-10.766,1.904-14.967,5.406c-1.551,1.293-2.786,2.809-4.727,3.553
			c-1.051,0.4-5.161-4.143-5.293-3.988c0.466-0.544,0.941-1.083,1.422-1.616c3.223-3.573,6.769-6.8,10.523-9.803
			c16.495-12.989,37.542-19.777,58.471-19.777C279.566,182.57,303.225,191.226,320.442,207.481z M170.39,104.913
			c29.111,0,56.429,12.976,72.931,34.257c-0.009,0.006-0.018,0.014-0.027,0.02c-1.363,0.933-3.074,1.469-4.761,1.471
			c-3.352,0.004-5.333-2.102-7.747-4.116c-7.892-6.582-19.568-7.169-28.071-1.403c-3.204,2.173-5.349,5.519-9.61,5.519
			c-4.615,0-6.903-3.87-10.458-6.063c-0.104-0.064-0.234-0.141-0.348-0.208c-9.164-5.437-21.153-3.819-28.61,3.753
			c-3.27,3.32-8.758,3.319-12.026,0c-8.426-8.557-22.436-9.293-31.668-1.598c-2.434,2.029-4.318,4.116-7.753,4.116
			c-1.698-0.002-3.335-0.551-4.754-1.469c-0.008-0.005-0.016-0.012-0.024-0.018C113.956,117.89,141.274,104.913,170.39,104.913z
			 M89.445,151.867c0.066,0.043,0.897,0.555,1.253,0.757c9.096,5.169,20.93,3.478,28.251-3.957c3.239-3.294,8.781-3.295,12.026,0
			c8.528,8.66,22.772,9.276,31.985,1.319c3.977-3.435,9.068-5.762,13.444-1.319c4.39,4.459,10.442,6.994,16.701,6.994
			c6.257,0,12.311-2.538,16.702-6.994c3.268-3.323,8.761-3.316,12.026,0c4.388,4.456,10.449,6.994,16.702,6.994
			c4.51,0,9.022-1.326,12.801-3.795c2.517,5,4.47,10.267,5.786,15.709c-2.752-0.027-10.609,0.393-11.784,0.507
			c-19.952,1.861-38.823,8.932-54.469,20.458c-19.768-14.562-44.626-21.742-69.09-20.894c-13.606,0.472-27.128,3.371-39.671,8.675
			C83.085,167.859,85.564,159.595,89.445,151.867z M60.549,208.196c14.395-13.942,34.195-22.919,54.221-25.03
			c22.398-2.362,45.655,2.779,64.376,15.467c-0.179,0.181-0.35,0.368-0.528,0.549c-2.93,2.995-5.748,6.246-8.287,9.626
			c-0.034,0.001-0.067,0.007-0.101,0.008c-5.909,0.232-11.615,2.768-15.764,6.981c-3.27,3.32-8.763,3.314-12.027,0
			c-9.059-9.197-24.368-9.175-33.403-0.001c-3.228,3.278-8.812,3.266-12.026,0.001c-9.062-9.205-24.348-9.196-33.403,0
			c-2.795,2.839-7.44,3.333-10.77,1.051c-0.009-0.006-0.018-0.014-0.027-0.02C52.69,216.752,59.853,208.87,60.549,208.196z
			 M463.136,358.836c-12.174,29.313-40.55,48.254-72.291,48.254h-269.69c-31.741,0-60.117-18.941-72.291-48.254l-8.145-19.611
			h430.563L463.136,358.836z M482.517,324.224H29.483c-7.986,0-14.483-6.497-14.483-14.483c0-7.986,6.497-14.483,14.483-14.483
			h40.249c4.142,0,7.5-3.358,7.5-7.5c0-4.142-3.358-7.5-7.5-7.5h-30.45c-1.527-5.9-2.299-11.957-2.299-18.07
			c0-11.304,2.681-22.453,7.81-32.667c0.064,0.042,0.131,0.077,0.195,0.118c4.726,3.03,10.571,4.243,16.117,3.417
			c4.987-0.742,9.656-3.147,13.191-6.735c3.247-3.295,8.794-3.282,12.027,0c4.379,4.448,10.458,6.994,16.701,6.994
			c4.219,0,8.526-1.18,12.134-3.374c2.808-1.707,4.911-4.798,8.102-5.779c3.751-1.153,6.669,0.518,9.341,2.98
			c6.741,6.212,16.909,7.907,25.297,4.2c-0.019,0.051-0.035,0.103-0.054,0.154c-0.829,2.209-1.565,4.463-2.215,6.731
			c-3.823,13.364-4.409,27.639-1.643,41.261c0.052,0.256,0.098,0.513,0.152,0.768H99.731c-4.142,0-7.5,3.358-7.5,7.5
			c0,4.142,3.358,7.5,7.5,7.5h382.786c7.986,0.003,14.483,6.5,14.483,14.485C497,317.727,490.503,324.224,482.517,324.224z"/>
	</g>
</g>
<g>
</g>
<g>
</g>
<g>
</g>
<g>
</g>
<g>
</g>
<g>
</g>
<g>
</g>
<g>
</g>
<g>
</g>
<g>
</g>
<g>
</g>
<g>
</g>
<g>
</g>
<g>
</g>
<g>
</g>
</svg>
