<?xml version="1.0" encoding="utf-8"?>
<!-- Generator: Adobe Illustrator 19.0.0, SVG Export Plug-In . SVG Version: 6.00 Build 0)  -->
<svg version="1.1" id="Capa_1" xmlns="http://www.w3.org/2000/svg" xmlns:xlink="http://www.w3.org/1999/xlink" x="0px" y="0px"
	 viewBox="-101 193.7 407.3 407.3" style="enable-background:new -101 193.7 407.3 407.3;" xml:space="preserve">
<style type="text/css">
	.st0{fill:#28D5A7;}
</style>
<g>
	<g>
		<path class="st0" d="M299.4,503.6L147.1,239.8c-14.2-24.6-45.7-33-70.2-18.8c-7.8,4.5-14.3,11-18.8,18.8L-94.1,503.6
			c-14.2,24.5-5.8,55.8,18.7,70c7.8,4.5,16.7,6.9,25.8,6.9h304.5c28.3,0.1,51.3-22.8,51.4-51.1C306.3,520.3,304,511.4,299.4,503.6z
			 M282,544.8c-5.6,9.7-16,15.7-27.2,15.6H-49.6c-17.2,0.1-31.3-13.8-31.4-31.1c0-5.5,1.4-11,4.2-15.8L75.4,249.8
			c8.7-15,27.9-20.1,42.9-11.4c4.8,2.8,8.7,6.7,11.4,11.5l152.2,263.7C287.7,523.2,287.7,535.2,282,544.8z"/>
	</g>
</g>
<g>
	<g>
		<path class="st0" d="M122.6,467.4h-40c-5.5,0-10,4.5-10,10v50c0,5.5,4.5,10,10,10h40c5.5,0,10-4.5,10-10v-50
			C132.6,471.9,128.1,467.4,122.6,467.4z M112.6,517.4h-20v-30h20V517.4z"/>
	</g>
</g>
<g>
	<g>
		<path class="st0" d="M122.6,314.4h-40c-5.5,0-10,4.5-10,10v117c0,5.5,4.5,10,10,10h40c5.5,0,10-4.5,10-10v-117
			C132.6,318.9,128.1,314.4,122.6,314.4z M112.6,431.4h-20v-97h20V431.4z"/>
	</g>
</g>
</svg>
