<?xml version="1.0" encoding="iso-8859-1"?>
<!-- Generator: Adobe Illustrator 19.0.0, SVG Export Plug-In . SVG Version: 6.00 Build 0)  -->
<svg version="1.1" id="Capa_1" xmlns="http://www.w3.org/2000/svg" xmlns:xlink="http://www.w3.org/1999/xlink" x="0px" y="0px"
	 viewBox="0 0 468.293 468.293" style="enable-background:new 0 0 468.293 468.293;" xml:space="preserve">
<g>
	<path style="fill:#27A2DB;" d="M325.948,402.362c-13.975,9.476-23.168,36.346-25.571,56.329c-0.662,5.506-5.351,9.601-10.897,9.601
		H166.323c-5.545,0-10.235-4.096-10.897-9.601c-2.403-19.983-11.596-46.853-25.571-56.329l-28.846-19.56h253.784L325.948,402.362z"
		/>
	<path style="fill:#27A2DB;" d="M325.948,65.93c-13.975-9.476-23.168-36.346-25.571-56.329C299.715,4.096,295.026,0,289.48,0
		H166.323c-5.545,0-10.235,4.096-10.897,9.601c-2.403,19.983-11.596,46.853-25.571,56.329l-28.846,19.56h253.784L325.948,65.93z"/>
</g>
<path style="fill:#E1E6E9;" d="M346.78,388.269H109.025c-10.345,0-18.732-8.386-18.732-18.732V98.755
	c0-10.345,8.386-18.732,18.732-18.732H346.78c10.345,0,18.732,8.386,18.732,18.732v270.782
	C365.512,379.882,357.125,388.269,346.78,388.269z"/>
<g>
	<path style="fill:#64798A;" d="M106.805,353.024V115.269c0-10.345,8.386-18.732,18.732-18.732h204.729
		c10.345,0,18.732,8.386,18.732,18.732v237.755c0,10.345-8.386,18.732-18.732,18.732H125.537
		C115.192,371.756,106.805,363.369,106.805,353.024z"/>
	<path style="fill:#64798A;" d="M371.756,211.566h-6.244v-49.951h6.244c3.448,0,6.244,2.796,6.244,6.244v37.463
		C378,208.77,375.204,211.566,371.756,211.566z"/>
	<path style="fill:#64798A;" d="M371.756,306.678h-6.244v-49.951h6.244c3.448,0,6.244,2.796,6.244,6.244v37.463
		C378,303.882,375.204,306.678,371.756,306.678z"/>
</g>
<g>
	<polygon style="fill:#EBF0F3;" points="227.902,127.596 218.537,234.146 237.268,234.145 	"/>
	<polygon style="fill:#EBF0F3;" points="155.302,310.515 237.268,241.792 224.022,228.547 	"/>
</g>
<circle style="fill:#D5D6DB;" cx="227.902" cy="234.146" r="21.854"/>
<circle style="fill:#EBF0F3;" cx="227.902" cy="234.146" r="9.366"/>
<g>
</g>
<g>
</g>
<g>
</g>
<g>
</g>
<g>
</g>
<g>
</g>
<g>
</g>
<g>
</g>
<g>
</g>
<g>
</g>
<g>
</g>
<g>
</g>
<g>
</g>
<g>
</g>
<g>
</g>
</svg>
