<?xml version="1.0" encoding="iso-8859-1"?>
<!-- Generator: Adobe Illustrator 19.0.0, SVG Export Plug-In . SVG Version: 6.00 Build 0)  -->
<svg version="1.1" id="Capa_1" xmlns="http://www.w3.org/2000/svg" xmlns:xlink="http://www.w3.org/1999/xlink" x="0px" y="0px"
	 viewBox="0 0 468.293 468.293" style="enable-background:new 0 0 468.293 468.293;" xml:space="preserve">
<path style="fill:#44C4A1;" d="M354.054,84.948H101.816l28.668-19.421c1.613-1.117,3.165-2.421,4.654-3.972
	c11.293-11.603,18.677-34.438,20.787-51.998C156.545,4.095,161.261,0,166.721,0h122.427c5.523,0,10.177,4.095,10.797,9.556
	c2.11,17.56,9.494,40.395,20.787,51.998c1.489,1.551,3.04,2.855,4.654,3.972L354.054,84.948z"/>
<path style="fill:#3EA69B;" d="M354.054,84.948v4.964H101.816v-4.964l28.668-19.421c1.613-1.117,3.165-2.421,4.654-3.972h185.596
	c1.489,1.551,3.04,2.855,4.654,3.972L354.054,84.948z"/>
<path style="fill:#44C4A1;" d="M354.054,383.345H101.816l28.668,19.421c1.613,1.117,3.165,2.421,4.654,3.972
	c11.293,11.603,18.677,34.438,20.787,51.998c0.62,5.461,5.336,9.556,10.797,9.556h122.427c5.523,0,10.177-4.095,10.797-9.556
	c2.11-17.56,9.494-40.395,20.787-51.998c1.489-1.551,3.04-2.855,4.654-3.972L354.054,383.345z"/>
<path style="fill:#3EA69B;" d="M354.054,383.345v-4.964H101.816v4.964l28.668,19.421c1.613,1.117,3.165,2.421,4.654,3.972h185.596
	c1.489-1.551,3.04-2.855,4.654-3.972L354.054,383.345z"/>
<path style="fill:#E1E6E9;" d="M345.964,387.312H109.918c-10.345,0-18.732-8.386-18.732-18.732V99.712
	c0-10.345,8.386-18.732,18.732-18.732h236.046c10.345,0,18.732,8.386,18.732,18.732V368.58
	C364.696,378.925,356.31,387.312,345.964,387.312z"/>
<g>
	<path style="fill:#64798A;" d="M370.863,211.706h-6.166v-49.641h6.166c3.448,0,6.244,2.795,6.244,6.244v37.153
		C377.106,208.911,374.311,211.706,370.863,211.706z"/>
	<path style="fill:#64798A;" d="M370.863,306.228h-6.166v-49.641h6.166c3.448,0,6.244,2.795,6.244,6.244v37.153
		C377.106,303.432,374.311,306.228,370.863,306.228z"/>
	<path style="fill:#64798A;" d="M348.284,116v236.292c0,10.3-8.315,18.615-18.615,18.615H126.202
		c-5.336,0-10.114-2.235-13.465-5.833c-3.227-3.288-5.15-7.819-5.15-12.782V116c0-10.3,8.315-18.615,18.615-18.615h203.466
		c5.336,0,10.114,2.235,13.465,5.832C346.298,106.506,348.284,111.036,348.284,116z"/>
</g>
<path style="fill:#3A556A;" d="M348.284,116v236.292c0,10.3-8.315,18.615-18.615,18.615H126.202c-5.336,0-10.114-2.235-13.465-5.833
	l230.396-261.857C346.298,106.506,348.284,111.036,348.284,116z"/>
<path style="fill:#D5D6DB;" d="M309.112,188.533H146.77v-14.68c0-6.897,5.591-12.488,12.488-12.488h137.366
	c6.897,0,12.488,5.591,12.488,12.488V188.533z"/>
<path style="fill:#EBF0F3;" d="M296.624,306.927H159.258c-6.897,0-12.488-5.591-12.488-12.488V188.533h162.341v105.906
	C309.112,301.336,303.521,306.927,296.624,306.927z"/>
<g>
	<circle style="fill:#E56353;" cx="227.965" cy="215.54" r="12.488"/>
	<circle style="fill:#E56353;" cx="227.965" cy="279.914" r="12.488"/>
</g>
<g>
	<circle style="fill:#27A2DB;" cx="260.121" cy="247.758" r="12.488"/>
	<circle style="fill:#27A2DB;" cx="195.778" cy="247.758" r="12.488"/>
</g>
<g>
</g>
<g>
</g>
<g>
</g>
<g>
</g>
<g>
</g>
<g>
</g>
<g>
</g>
<g>
</g>
<g>
</g>
<g>
</g>
<g>
</g>
<g>
</g>
<g>
</g>
<g>
</g>
<g>
</g>
</svg>
