<?xml version="1.0" encoding="utf-8"?>
<!-- Generator: Adobe Illustrator 19.0.0, SVG Export Plug-In . SVG Version: 6.00 Build 0)  -->
<svg version="1.1" id="Capa_1" xmlns="http://www.w3.org/2000/svg" xmlns:xlink="http://www.w3.org/1999/xlink" x="0px" y="0px"
	 viewBox="-569 371 60 60" style="enable-background:new -569 371 60 60;" xml:space="preserve">
<style type="text/css">
	.st0{fill:#724E4E;}
</style>
<g>
	<path class="st0" d="M-521.8,412.9c-1.2-1.8-4.5-2.6-6.2-2.3c-1.4,0.2-2.6-0.2-3.4-1.2l-0.7-0.9l-0.2-0.1c-0.6-0.3-1.3-0.4-1.9-0.4
		h-3.7v-4h6c0.6,0,1-0.4,1-1s-0.4-1-1-1h-6v-2h8c0.6,0,1-0.4,1-1s-0.4-1-1-1h-8v-2h12c0.6,0,1-0.4,1-1s-0.4-1-1-1h-12v-2h12
		c0.6,0,1-0.4,1-1s-0.4-1-1-1h-12v-2h8c0.6,0,1-0.4,1-1s-0.4-1-1-1h-8v-2h6c0.6,0,1-0.4,1-1s-0.4-1-1-1h-6v-2h2c0.6,0,1-0.4,1-1
		s-0.4-1-1-1h-2v-2c0-0.6-0.4-1-1-1s-1,0.4-1,1v2h-2c-0.6,0-1,0.4-1,1s0.4,1,1,1h2v2h-6c-0.6,0-1,0.4-1,1s0.4,1,1,1h6v2h-8
		c-0.6,0-1,0.4-1,1s0.4,1,1,1h8v2h-12c-0.6,0-1,0.4-1,1s0.4,1,1,1h12v2h-12c-0.6,0-1,0.4-1,1s0.4,1,1,1h12v2h-8c-0.6,0-1,0.4-1,1
		s0.4,1,1,1h8v2h-6c-0.6,0-1,0.4-1,1s0.4,1,1,1h6v4h-3.2c-1,0-1.9,0.3-2.7,0.8l-1,0.9c-0.8,0.8-2,1.2-3,0.9
		c-1.8-0.5-5.2,0.1-6.6,2.1c-1.2,1.9-0.9,4.7,0.8,6.4l7.9,6.8c1.7,1.7,4.3,2.1,6.2,0.9c0.9-0.6,1.6-1.4,2-2.4
		c0.1-0.2,0.2-0.3,0.3-0.3c0.1,0.1,0.3,0.2,0.3,0.3c0.4,1,1.1,1.8,2,2.4c0.8,0.5,1.7,0.7,2.6,0.7c1.3,0,2.6-0.5,3.6-1.5l8.2-6.8
		C-520.8,417.5-520.5,414.8-521.8,412.9L-521.8,412.9z M-523.9,417.7l-8.2,6.8c-1,1-2.6,1.3-3.8,0.6c-0.6-0.3-1-0.8-1.2-1.4
		c-0.3-0.8-1-1.4-1.9-1.6V422h-0.6v0.1c-0.9,0.2-1.6,0.8-1.9,1.6c-0.2,0.6-0.6,1.1-1.2,1.4c-1.2,0.7-2.8,0.5-3.8-0.6l-7.9-6.8
		c-1-1-1.2-2.8-0.5-3.8c0.7-1.1,3.1-1.6,4.4-1.3c1.7,0.5,3.6-0.1,5-1.4l0.7-0.7c0.5-0.3,1-0.4,1.5-0.4h3.2c0,0.6,0.4,1,1,1
		s1-0.4,1-1h3.7c0.3,0,0.6,0.1,0.9,0.2l0.4,0.5c1.2,1.5,3.2,2.2,5.3,1.9c1.3-0.2,3.6,0.5,4.3,1.5
		C-522.7,415.1-522.9,416.8-523.9,417.7z"/>
	<path class="st0" d="M-547.2,413c-2.2,0-4,1.8-4,4s1.8,4,4,4s4-1.8,4-4S-545,413-547.2,413z M-547.2,419c-1.1,0-2-0.9-2-2
		s0.9-2,2-2c1.1,0,2,0.9,2,2S-546.1,419-547.2,419z"/>
	<path class="st0" d="M-531.3,413c-2.2,0-4,1.8-4,4s1.8,4,4,4s4-1.8,4-4S-529.1,413-531.3,413z M-531.3,419c-1.1,0-2-0.9-2-2
		s0.9-2,2-2c1.1,0,2,0.9,2,2S-530.2,419-531.3,419z"/>
	<path class="st0" d="M-519.4,371h-39.1c-1.9,0-3.4,1.5-3.4,3.4v53.1c0,1.9,1.5,3.4,3.4,3.4h39.1c1.9,0,3.4-1.5,3.4-3.4v-53.1
		C-516,372.5-517.5,371-519.4,371z M-518,427.6c0,0.8-0.6,1.4-1.4,1.4h-39.1c-0.8,0-1.4-0.6-1.4-1.4v-53.1c0-0.8,0.6-1.4,1.4-1.4
		h39.1c0.8,0,1.4,0.6,1.4,1.4V427.6z"/>
</g>
</svg>
